{
.appVersion = "1342";
DisplayStrings = (
t
);
copyright = "Copyright 2020 The League Gothic Project Authors (https://github.com/theleagueof/league-gothic)";
customParameters = (
{
name = Axes;
value = (
{
Name = Width;
Tag = wdth;
}
);
},
{
name = "Use Typo Metrics";
value = 1;
},
{
name = "Variable Font Origin";
value = "1AB499B8-18A8-432D-A211-B6882CCB886D";
},
{
name = fsType;
value = (
);
},
{
name = blueScale;
value = 0.03963;
},
{
name = blueShift;
value = 7;
},
{
name = blueFuzz;
value = 1;
},
{
name = license;
value = "This Font Software is licensed under the SIL Open Font License, Version 1.1. This license is available with a FAQ at: http://scripts.sil.org/OFL";
},
{
name = licenseURL;
value = "http://scripts.sil.org/OFL";
}
);
date = "2020-01-30 19:03:56 +0000";
designer = "The League of Moveable Type";
designerURL = "http://theleagueofmoveabletype.com";
disablesNiceNames = 1;
familyName = "League Gothic";
featurePrefixes = (
{
automatic = 1;
code = "languagesystem DFLT dflt;\012\012languagesystem latn dflt;\012languagesystem latn AZE;\012languagesystem latn CRT;\012languagesystem latn KAZ;\012languagesystem latn TAT;\012languagesystem latn TRK;\012languagesystem latn ROM;\012languagesystem latn MOL;\012";
name = Languagesystems;
}
);
features = (
{
automatic = 1;
code = "feature locl;\012feature sups;\012feature numr;\012feature dnom;\012feature frac;\012feature ordn;\012";
name = aalt;
},
{
automatic = 1;
code = "lookup ccmp_Other_1 {\012	@CombiningTopAccents = [acutecomb brevecomb caroncomb circumflexcomb commaturnedabovecomb dieresiscomb dotaccentcomb gravecomb hungarumlautcomb macroncomb ringcomb tildecomb];\012	@CombiningNonTopAccents = [cedillacomb ogonekcomb];\012	sub [i]' @CombiningTopAccents by [idotless];\012	sub [i]' @CombiningNonTopAccents @CombiningTopAccents by [idotless];\012} ccmp_Other_1;\012";
name = ccmp;
},
{
automatic = 1;

glyphs = (
{
color = 6;
glyphname = A;
lastChange = "2020-01-27 22:14:58 +0000";
layers = (
{
anchors = (
{
name = bottom;
position = "{374, 0}";
},
{
name = ogonek;
position = "{728, 0}";
},
{
name = top;
position = "{733, 1470}";
}
);
layerId = "E10EC336-1202-48FF-9A55-15876E80CDFD";
paths = (
{
closed = 1;
nodes = (
"230 0 LINE",
"332 300 LINE",
"540 300 LINE",
"518 0 LINE",
"728 0 LINE",
"818 1470 LINE",
"554 1470 LINE",
"20 0 LINE"
);
},
{
closed = 1;
nodes = (
"572 992 LINE",
"586 1030 LINE",
"598 1030 LINE",
"596 992 LINE",
"560 528 LINE",
"412 528 LINE"
);
}
);
width = 748;
},
{
anchors = (
{
name = bottom;
position = "{159, 0}";
},
{
name = ogonek;
position = "{374, 0}";
},
{
name = top;
position = "{536, 1470}";
}
);
background = {
paths = (
{
closed = 1;
nodes = (
"76 0 LINE",
"162 300 LINE",
"254 300 LINE",
"212 0 LINE",
"374 0 LINE",
"556 1470 LINE",
"362 1470 LINE",
"-84 0 LINE"
);
},
{
closed = 1;
nodes = (
"384 1118 LINE",
"289 528 LINE",
"228 528 LINE"
);
}
);
};
layerId = "38BA14EB-08C8-4487-88C1-8F957131FCA1";
paths = (
{
closed = 1;
nodes = (
"78 0 LINE",
"164 300 LINE",
"256 300 LINE",
"214 0 LINE",
"376 0 LINE",
"556 1470 LINE",
"362 1470 LINE",
"-84 0 LINE"
);
},
{
closed = 1;
nodes = (
"375 1082 LINE",
"376 1089 LINE",
"378 1089 LINE",
"377 1082 LINE",
"290 528 LINE",
"228 528 LINE"
);
}
);
width = 508;
},
{
anchors = (
{
name = bottom;
position = "{487, 0}";
},
{
name = ogonek;
position = "{914, 0}";
},
{
name = top;
position = "{837, 1470}";
}
);
layerId = "A5A4D350-C0CB-4C36-867F-06890CC9F434";
paths = (
{
closed = 1;
nodes = (
"310 0 LINE",
"420 300 LINE",
"689 300 LINE",
"678 0 LINE",
"913 0 LINE",
"956 1470 LINE",
"655 1470 LINE",
"75 0 LINE"
);
},
{
closed = 1;
nodes = (
"676 945 LINE",
"697 999 LINE",
"714 999 LINE",
"711 945 LINE",
"702 528 LINE",
"509 528 LINE"
);
}
);
width = 874.31579;
}
);
leftKerningGroup = A;
rightKerningGroup = A;
unicode = 0041;
},
{
color = 6;
glyphname = AE;
lastChange = "2020-01-27 22:21:49 +0000";
layers = (
{
anchors = (
{
name = bottom;
position = "{537, 0}";
},
{
name = top;
position = "{537, 1470}";
}
);
layerId = "E10EC336-1202-48FF-9A55-15876E80CDFD";
paths = (
{
closed = 1;
nodes = (
"230 0 LINE",
"380 300 LINE",
"602 300 LINE",
"540 0 LINE",
"1034 0 LINE",
"1080 222 LINE",
"802 222 LINE",
"888 626 LINE",
"1088 626 LINE",
"1138 862 LINE",
"938 862 LINE",
"1020 1248 LINE",
"1298 1248 LINE",
"1346 1470 LINE",
"738 1470 LINE",
"16 0 LINE"
);
},
{
closed = 1;
nodes = (
"748 1030 LINE",
"758 1030 LINE",
"652 528 LINE",
"496 528 LINE"
);
}
);
width = 1074;
},
{
anchors = (
{
name = bottom;
position = "{352, 0}";
},
{
name = top;
position = "{352, 1470}";
}
);
layerId = "38BA14EB-08C8-4487-88C1-8F957131FCA1";
paths = (
{
closed = 1;
nodes = (
"76 0 LINE",
"192 300 LINE",
"290 300 LINE",
"226 0 LINE",
"558 0 LINE",
"606 222 LINE",
"440 222 LINE",
"526 626 LINE",
"646 626 LINE",
"696 862 LINE",
"576 862 LINE",
"658 1248 LINE",
"824 1248 LINE",
"872 1470 LINE",
"472 1470 LINE",
"-86 0 LINE"
);
},
{
closed = 1;
nodes = (
"455 1076 LINE",
"456 1076 LINE",
"340 528 LINE",
"276 528 LINE"
);
}
);
width = 704;
},
{
anchors = (
{
name = bottom;
position = "{634, 0}";
},
{
name = top;
position = "{946, 1470}";
}
);
layerId = "A5A4D350-C0CB-4C36-867F-06890CC9F434";
paths = (
{
closed = 1;
nodes = (
"269 0 LINE",
"440 300 LINE",
"727 300 LINE",
"663 0 LINE",
"1242 0 LINE",
"1289 222 LINE",
"952 222 LINE",
"1038 626 LINE",
"1281 626 LINE",
"1331 862 LINE",
"1088 862 LINE",
"1170 1248 LINE",
"1507 1248 LINE",
"1554 1470 LINE",
"837 1470 LINE",
"29 0 LINE"
);
},
{
closed = 1;
nodes = (
"887 1126 LINE",
"902 1126 LINE",
"775 528 LINE",
"571 528 LINE"
);
}
);
width = 1269;
}
);
unicode = 00C6;
},
{
color = 6;
glyphname = B;
lastChange = "2020-01-27 22:16:01 +0000";
layers = (
{
anchors = (
{
name = bottom;
position = "{364, 0}";
},
{
name = top;
position = "{364, 1470}";
}
);
background = {
paths = (
{
closed = 1;
nodes = (
"346 0 LINE",
"474 6 OFFCURVE",
"568 54 OFFCURVE",
"638 132 CURVE SMOOTH",
"704 210 OFFCURVE",
"744 304 OFFCURVE",
"768 416 CURVE SMOOTH",
"800 560 OFFCURVE",
"788 718 OFFCURVE",
"694 776 CURVE",
"756 822 OFFCURVE",
"796 862 OFFCURVE",
"828 910 CURVE SMOOTH",
"860 958 OFFCURVE",
"878 1010 OFFCURVE",
"892 1080 CURVE SMOOTH",
"924 1226 OFFCURVE",
"912 1322 OFFCURVE",
"858 1384 CURVE SMOOTH",
"804 1446 OFFCURVE",
"710 1470 OFFCURVE",
"582 1470 CURVE SMOOTH",
"392 1470 LINE",
"80 0 LINE"
);
},
{
closed = 1;
nodes = (
"436 666 LINE",
"446 666 OFFCURVE",
"460 666 OFFCURVE",
"478 666 CURVE",
"516 664 OFFCURVE",
"548 640 OFFCURVE",
"560 578 CURVE SMOOTH",
"566 546 OFFCURVE",
"562 500 OFFCURVE",
"548 440 CURVE SMOOTH",
"524 320 OFFCURVE",
"482 262 OFFCURVE",
"442 236 CURVE SMOOTH",
"400 210 OFFCURVE",
"358 214 OFFCURVE",
"340 214 CURVE"
);
},
{
closed = 1;
nodes = (
"562 1256 LINE",
"572 1256 OFFCURVE",
"586 1256 OFFCURVE",
"604 1254 CURVE",
"640 1252 OFFCURVE",
"672 1230 OFFCURVE",
"686 1176 CURVE SMOOTH",
"692 1150 OFFCURVE",
"690 1110 OFFCURVE",
"680 1060 CURVE SMOOTH",
"658 958 OFFCURVE",
"620 910 OFFCURVE",
"580 886 CURVE SMOOTH",
"538 862 OFFCURVE",
"496 864 OFFCURVE",
"478 864 CURVE"
);
}
);
};
layerId = "E10EC336-1202-48FF-9A55-15876E80CDFD";
paths = (
{
closed = 1;
nodes = (
"346 0 LINE SMOOTH",
"586 0 OFFCURVE",
"785 253 OFFCURVE",
"785 558 CURVE SMOOTH",
"785 671 OFFCURVE",
"758 736 OFFCURVE",
"694 776 CURVE",
"828 880 OFFCURVE",
"911 1051 OFFCURVE",
"911 1222 CURVE SMOOTH",
"911 1401 OFFCURVE",
"819 1470 OFFCURVE",
"582 1470 CURVE SMOOTH",
"392 1470 LINE",
"80 0 LINE"
);
},
{
closed = 1;
nodes = (
"438 666 LINE",
"541 666 OFFCURVE",
"563 645 OFFCURVE",
"563 548 CURVE SMOOTH",
"563 362 OFFCURVE",
"464 214 OFFCURVE",
"341 214 CURVE"
);
},
{
closed = 1;
nodes = (
"563 1256 LINE",
"664 1256 OFFCURVE",
"691 1231 OFFCURVE",
"691 1141 CURVE SMOOTH",
"691 983 OFFCURVE",
"600 864 OFFCURVE",
"480 864 CURVE"
);
}
);
width = 728;
},
{
anchors = (
{
name = bottom;
position = "{127, 0}";
},
{
name = top;
position = "{408, 1470}";
}
);
background = {
paths = (
{
closed = 1;
nodes = (
"168 0 LINE SMOOTH",
"254 0 OFFCURVE",
"314 78 OFFCURVE",
"342 126 CURVE SMOOTH",
"370 174 OFFCURVE",
"412 306 OFFCURVE",
"436 416 CURVE SMOOTH",
"450 488 OFFCURVE",
"468 586 OFFCURVE",
"468 632 CURVE",
"466 714 OFFCURVE",
"444 744 OFFCURVE",
"416 776 CURVE",
"460 804 OFFCURVE",
"486 846 OFFCURVE",
"510 890 CURVE",
"532 938 OFFCURVE",
"552 1010 OFFCURVE",
"566 1080 CURVE SMOOTH",
"596 1222 OFFCURVE",
"592 1320 OFFCURVE",
"564 1384 CURVE",
"536 1442 OFFCURVE",
"494 1470 OFFCURVE",
"410 1470 CURVE SMOOTH",
"264 1470 LINE",
"-48 0 LINE"
);
},
{
closed = 1;
nodes = (
"258 666 LINE",
"268 666 OFFCURVE",
"286 668 OFFCURVE",
"296 656 CURVE SMOOTH",
"312 636 OFFCURVE",
"298 564 OFFCURVE",
"272 440 CURVE SMOOTH",
"246 314 OFFCURVE",
"226 246 OFFCURVE",
"204 224 CURVE SMOOTH",
"192 212 OFFCURVE",
"170 214 OFFCURVE",
"162 214 CURVE"
);
},
{
closed = 1;
nodes = (
"384 1256 LINE",
"396 1256 OFFCURVE",
"412 1256 OFFCURVE",
"422 1244 CURVE",
"432 1222 OFFCURVE",
"426 1166 OFFCURVE",
"404 1060 CURVE SMOOTH",
"382 954 OFFCURVE",
"364 898 OFFCURVE",
"344 876 CURVE",
"332 864 OFFCURVE",
"310 864 OFFCURVE",
"300 864 CURVE"
);
},
{
closed = 1;
nodes = (
"168 0 LINE SMOOTH",
"254 0 OFFCURVE",
"314 78 OFFCURVE",
"342 126 CURVE SMOOTH",
"370 174 OFFCURVE",
"412 306 OFFCURVE",
"436 416 CURVE SMOOTH",
"450 488 OFFCURVE",
"468 586 OFFCURVE",
"468 632 CURVE",
"466 714 OFFCURVE",
"444 744 OFFCURVE",
"416 776 CURVE",
"460 804 OFFCURVE",
"486 846 OFFCURVE",
"510 890 CURVE",
"532 938 OFFCURVE",
"552 1010 OFFCURVE",
"566 1080 CURVE SMOOTH",
"596 1222 OFFCURVE",
"592 1320 OFFCURVE",
"564 1384 CURVE",
"536 1442 OFFCURVE",
"494 1470 OFFCURVE",
"410 1470 CURVE SMOOTH",
"264 1470 LINE",
"-48 0 LINE"
);
},
{
closed = 1;
nodes = (
"258 666 LINE",
"268 666 OFFCURVE",
"286 668 OFFCURVE",
"296 656 CURVE SMOOTH",
"312 636 OFFCURVE",
"298 564 OFFCURVE",
"272 440 CURVE SMOOTH",
"246 314 OFFCURVE",
"226 246 OFFCURVE",
"204 224 CURVE SMOOTH",
"192 212 OFFCURVE",
"170 214 OFFCURVE",
"162 214 CURVE"
);
},
{
closed = 1;
nodes = (
"384 1256 LINE",
"396 1256 OFFCURVE",
"412 1256 OFFCURVE",
"422 1244 CURVE",
"432 1222 OFFCURVE",
"426 1166 OFFCURVE",
"404 1060 CURVE SMOOTH",
"382 954 OFFCURVE",
"364 898 OFFCURVE",
"344 876 CURVE",
"332 864 OFFCURVE",
"310 864 OFFCURVE",
"300 864 CURVE"
);
}
);
};
layerId = "38BA14EB-08C8-4487-88C1-8F957131FCA1";
paths = (
{
closed = 1;
nodes = (
"168 0 LINE SMOOTH",
"314 0 OFFCURVE",
"462 314 OFFCURVE",
"462 623 CURVE SMOOTH",
"462 690 OFFCURVE",
"447 737 OFFCURVE",
"415 776 CURVE",
"502 831 OFFCURVE",
"588 1073 OFFCURVE",
"588 1263 CURVE SMOOTH",
"588 1403 OFFCURVE",
"530 1470 OFFCURVE",
"408 1470 CURVE SMOOTH",
"262 1470 LINE",
"-50 0 LINE"
);
},
{
closed = 1;
nodes = (
"258 666 LINE",
"289 666 OFFCURVE",
"301 653 OFFCURVE",
"301 618 CURVE SMOOTH",
"301 453 OFFCURVE",
"218 214 OFFCURVE",
"161 214 CURVE"
);
},
{
closed = 1;
nodes = (
"383 1256 LINE",
"415 1256 OFFCURVE",
"426 1243 OFFCURVE",
"426 1207 CURVE SMOOTH",
"426 1057 OFFCURVE",
"355 864 OFFCURVE",
"300 864 CURVE"
);
}
);
width = 496;
},
{
anchors = (
{
name = bottom;
position = "{489, 0}";
},
{
name = top;
position = "{341, 1470}";
}
);
layerId = "A5A4D350-C0CB-4C36-867F-06890CC9F434";
paths = (
{
closed = 1;
nodes = (
"440 0 LINE SMOOTH",
"707 0 OFFCURVE",
"955 196 OFFCURVE",
"955 533 CURVE SMOOTH",
"955 659 OFFCURVE",
"920 737 OFFCURVE",
"841 776 CURVE",
"1000 906 OFFCURVE",
"1081 1039 OFFCURVE",
"1081 1197 CURVE SMOOTH",
"1081 1470 OFFCURVE",
"839 1470 OFFCURVE",
"674 1470 CURVE SMOOTH",
"460 1470 LINE",
"148 0 LINE"
);
},
{
closed = 1;
nodes = (
"533 666 LINE",
"670 666 OFFCURVE",
"701 641 OFFCURVE",
"701 522 CURVE SMOOTH",
"701 309 OFFCURVE",
"593 214 OFFCURVE",
"436 214 CURVE"
);
},
{
closed = 1;
nodes = (
"658 1256 LINE",
"791 1256 OFFCURVE",
"830 1225 OFFCURVE",
"830 1116 CURVE SMOOTH",
"830 940 OFFCURVE",
"729 864 OFFCURVE",
"575 864 CURVE"
);
}
);
width = 850.10526;
}
);
unicode = 0042;
},
{
color = 6;
glyphname = C;
lastChange = "2020-01-27 22:16:01 +0000";
layers = (
{
anchors = (
{
name = bottom;
position = "{296, -20}";
},
{
name = top;
position = "{748, 1486}";
}
);
layerId = "E10EC336-1202-48FF-9A55-15876E80CDFD";
paths = (
{
closed = 1;
nodes = (
"520 -16 OFFCURVE",
"664 102 OFFCURVE",
"706 302 CURVE SMOOTH",
"748 504 LINE",
"546 504 LINE",
"504 302 LINE SMOOTH",
"488 227 OFFCURVE",
"452 194 OFFCURVE",
"398 194 CURVE SMOOTH",
"355 194 OFFCURVE",
"332 237 OFFCURVE",
"346 302 CURVE SMOOTH",
"530 1168 LINE SMOOTH",
"545 1240 OFFCURVE",
"583 1276 OFFCURVE",
"628 1276 CURVE SMOOTH",
"680 1276 OFFCURVE",
"703 1236 OFFCURVE",
"688 1168 CURVE SMOOTH",
"644 966 LINE",
"846 966 LINE",
"890 1168 LINE SMOOTH",
"933 1364 OFFCURVE",
"838 1486 OFFCURVE",
"668 1486 CURVE SMOOTH",
"497 1486 OFFCURVE",
"356 1365 OFFCURVE",
"314 1168 CURVE SMOOTH",
"130 302 LINE SMOOTH",
"89 107 OFFCURVE",
"177 -16 OFFCURVE",
"350 -16 CURVE SMOOTH"
);
}
);
width = 692;
},
{
anchors = (
{
name = bottom;
position = "{132, -16}";
},
{
name = top;
position = "{509, 1477}";
}
);
layerId = "38BA14EB-08C8-4487-88C1-8F957131FCA1";
paths = (
{
closed = 1;
nodes = (
"255 -16 OFFCURVE",
"352 95 OFFCURVE",
"392 282 CURVE SMOOTH",
"440 504 LINE",
"278 504 LINE",
"230 282 LINE SMOOTH",
"219 231 OFFCURVE",
"197 194 OFFCURVE",
"178 194 CURVE SMOOTH",
"159 194 OFFCURVE",
"156 226 OFFCURVE",
"168 282 CURVE SMOOTH",
"364 1196 LINE SMOOTH",
"375 1249 OFFCURVE",
"390 1276 OFFCURVE",
"408 1276 CURVE SMOOTH",
"429 1276 OFFCURVE",
"435 1241 OFFCURVE",
"424 1188 CURVE SMOOTH",
"376 966 LINE",
"538 966 LINE",
"586 1188 LINE SMOOTH",
"623 1362 OFFCURVE",
"567 1486 OFFCURVE",
"450 1486 CURVE SMOOTH",
"335 1486 OFFCURVE",
"230 1365 OFFCURVE",
"192 1188 CURVE SMOOTH",
"0 282 LINE SMOOTH",
"-40 95 OFFCURVE",
"9 -16 OFFCURVE",
"132 -16 CURVE SMOOTH"
);
}
);
width = 476;
},
{
anchors = (
{
name = bottom;
position = "{382, -22}";
},
{
name = top;
position = "{874, 1491}";
}
);
layerId = "A5A4D350-C0CB-4C36-867F-06890CC9F434";
paths = (
{
closed = 1;
nodes = (
"659 -16 OFFCURVE",
"829 106 OFFCURVE",
"871 313 CURVE SMOOTH",
"910 504 LINE",
"687 504 LINE",
"648 313 LINE SMOOTH",
"630 225 OFFCURVE",
"582 194 OFFCURVE",
"525 194 CURVE SMOOTH",
"453 194 OFFCURVE",
"425 243 OFFCURVE",
"440 313 CURVE SMOOTH",
"617 1153 LINE SMOOTH",
"634 1235 OFFCURVE",
"685 1276 OFFCURVE",
"747 1276 CURVE SMOOTH",
"811 1276 OFFCURVE",
"844 1233 OFFCURVE",
"827 1157 CURVE SMOOTH",
"785 966 LINE",
"1008 966 LINE",
"1050 1157 LINE SMOOTH",
"1096 1365 OFFCURVE",
"981 1486 OFFCURVE",
"783 1486 CURVE SMOOTH",
"582 1486 OFFCURVE",
"422 1365 OFFCURVE",
"378 1157 CURVE SMOOTH",
"199 313 LINE SMOOTH",
"157 113 OFFCURVE",
"264 -16 OFFCURVE",
"465 -16 CURVE SMOOTH"
);
}
);
width = 805.68421;
}
);
unicode = 0043;
},
{
color = 6;
glyphname = D;
lastChange = "2020-01-27 22:16:01 +0000";
layers = (
{
anchors = (
{
name = bottom;
position = "{372, 0}";
},
{
name = center;
position = "{528, 735}";
},
{
name = top;
position = "{684, 1470}";
}
);
background = {
paths = (
{
closed = 1;
nodes = (
"250 0 LINE SMOOTH",
"450 0 OFFCURVE",
"566 40 OFFCURVE",
"648 152 CURVE SMOOTH",
"728 264 OFFCURVE",
"774 446 OFFCURVE",
"836 734 CURVE SMOOTH",
"898 1024 OFFCURVE",
"928 1206 OFFCURVE",
"896 1318 CURVE",
"858 1430 OFFCURVE",
"762 1470 OFFCURVE",
"562 1470 CURVE SMOOTH",
"392 1470 LINE",
"80 0 LINE"
);
},
{
closed = 1;
nodes = (
"562 1254 LINE",
"636 1254 OFFCURVE",
"676 1246 OFFCURVE",
"682 1176 CURVE SMOOTH",
"690 1104 OFFCURVE",
"666 992 OFFCURVE",
"646 898 CURVE SMOOTH",
"636 850 OFFCURVE",
"624 796 OFFCURVE",
"612 736 CURVE SMOOTH",
"598 676 OFFCURVE",
"588 622 OFFCURVE",
"578 576 CURVE SMOOTH",
"558 480 OFFCURVE",
"530 362 OFFCURVE",
"496 296 CURVE SMOOTH",
"458 224 OFFCURVE",
"414 216 OFFCURVE",
"340 216 CURVE"
);
}
);
};
layerId = "E10EC336-1202-48FF-9A55-15876E80CDFD";
paths = (
{
closed = 1;
nodes = (
"250 0 LINE SMOOTH",
"615 0 OFFCURVE",
"703 104 OFFCURVE",
"823 675 CURVE SMOOTH",
"850 803 LINE SMOOTH",
"969 1367 OFFCURVE",
"925 1470 OFFCURVE",
"562 1470 CURVE SMOOTH",
"392 1470 LINE",
"80 0 LINE"
);
},
{
closed = 1;
nodes = (
"563 1254 LINE",
"709 1254 OFFCURVE",
"714 1219 OFFCURVE",
"627 803 CURVE SMOOTH",
"601 679 LINE SMOOTH",
"511 248 OFFCURVE",
"493 216 OFFCURVE",
"342 216 CURVE"
);
}
);
width = 744;
},
{
anchors = (
{
name = bottom;
position = "{100, 0}";
},
{
name = center;
position = "{409, 735}";
},
{
name = top;
position = "{505, 1470}";
}
);
background = {
paths = (
{
closed = 1;
nodes = (
"100 0 LINE SMOOTH",
"232 0 OFFCURVE",
"292 52 OFFCURVE",
"334 130 CURVE SMOOTH",
"382 219 OFFCURVE",
"432 446 OFFCURVE",
"494 734 CURVE SMOOTH",
"556 1022 OFFCURVE",
"590 1206 OFFCURVE",
"580 1318 CURVE SMOOTH",
"570 1430 OFFCURVE",
"524 1470 OFFCURVE",
"392 1470 CURVE SMOOTH",
"254 1470 LINE",
"-58 0 LINE"
);
},
{
closed = 1;
nodes = (
"374 1254 LINE",
"398 1252 OFFCURVE",
"428 1258 OFFCURVE",
"424 1206 CURVE SMOOTH",
"417 1116 OFFCURVE",
"380 974 OFFCURVE",
"316 672 CURVE SMOOTH",
"279 496 OFFCURVE",
"240 312 OFFCURVE",
"224 264 CURVE SMOOTH",
"205 207 OFFCURVE",
"178 216 OFFCURVE",
"152 216 CURVE"
);
}
);
};
layerId = "38BA14EB-08C8-4487-88C1-8F957131FCA1";
paths = (
{
closed = 1;
nodes = (
"100 0 LINE SMOOTH",
"288 0 OFFCURVE",
"356 95 OFFCURVE",
"436 470 CURVE SMOOTH",
"535 934 LINE SMOOTH",
"622 1340 OFFCURVE",
"591 1470 OFFCURVE",
"410 1470 CURVE SMOOTH",
"252 1470 LINE",
"-60 0 LINE"
);
},
{
closed = 1;
nodes = (
"373 1254 LINE",
"438 1254 OFFCURVE",
"438 1246 OFFCURVE",
"374 945 CURVE SMOOTH",
"262 422 LINE SMOOTH",
"222 235 OFFCURVE",
"212 216 OFFCURVE",
"152 216 CURVE"
);
}
);
width = 506;
},
{
anchors = (
{
name = bottom;
position = "{515, 0}";
},
{
name = center;
position = "{591, 735}";
},
{
name = top;
position = "{778, 1470}";
}
);
layerId = "A5A4D350-C0CB-4C36-867F-06890CC9F434";
paths = (
{
closed = 1;
nodes = (
"329 0 LINE SMOOTH",
"835 0 OFFCURVE",
"903 183 OFFCURVE",
"1026 783 CURVE SMOOTH",
"1016 734 LINE SMOOTH",
"1162 1450 OFFCURVE",
"1048 1470 OFFCURVE",
"642 1470 CURVE SMOOTH",
"466 1470 LINE",
"154 0 LINE"
);
},
{
closed = 1;
nodes = (
"663 1254 LINE",
"872 1254 OFFCURVE",
"852 1157 OFFCURVE",
"762 728 CURVE SMOOTH",
"780 814 LINE SMOOTH",
"663 255 OFFCURVE",
"641 216 OFFCURVE",
"442 216 CURVE"
);
}
);
width = 869.26316;
}
);
unicode = 0044;
},
{
color = 6;
glyphname = Eth;
lastChange = "2020-01-27 22:16:01 +0000";
layers = (
{
anchors = (
{
name = bottom;
position = "{372, 0}";
},
{
name = center;
position = "{528, 735}";
},
{
name = top;
position = "{684, 1470}";
}
);
background = {
paths = (
{
closed = 1;
nodes = (
"250 0 LINE SMOOTH",
"450 0 OFFCURVE",
"566 40 OFFCURVE",
"648 152 CURVE SMOOTH",
"728 264 OFFCURVE",
"774 446 OFFCURVE",
"836 734 CURVE SMOOTH",
"898 1024 OFFCURVE",
"928 1206 OFFCURVE",
"896 1318 CURVE",
"858 1430 OFFCURVE",
"762 1470 OFFCURVE",
"562 1470 CURVE SMOOTH",
"392 1470 LINE",
"262 862 LINE",
"202 862 LINE",
"156 640 LINE",
"216 640 LINE",
"80 0 LINE"
);
},
{
closed = 1;
nodes = (
"432 640 LINE",
"514 640 LINE",
"560 862 LINE",
"478 862 LINE",
"562 1254 LINE",
"636 1254 OFFCURVE",
"676 1246 OFFCURVE",
"682 1176 CURVE SMOOTH",
"690 1104 OFFCURVE",
"666 992 OFFCURVE",
"646 898 CURVE SMOOTH",
"636 850 OFFCURVE",
"624 796 OFFCURVE",
"612 736 CURVE SMOOTH",
"598 676 OFFCURVE",
"588 622 OFFCURVE",
"578 576 CURVE SMOOTH",
"558 480 OFFCURVE",
"530 362 OFFCURVE",
"496 296 CURVE SMOOTH",
"458 224 OFFCURVE",
"414 216 OFFCURVE",
"340 216 CURVE"
);
}
);
};
layerId = "E10EC336-1202-48FF-9A55-15876E80CDFD";
paths = (
{
closed = 1;
nodes = (
"250 0 LINE SMOOTH",
"615 0 OFFCURVE",
"703 104 OFFCURVE",
"823 675 CURVE SMOOTH",
"850 803 LINE SMOOTH",
"969 1367 OFFCURVE",
"925 1470 OFFCURVE",
"562 1470 CURVE SMOOTH",
"392 1470 LINE",
"263 862 LINE",
"202 862 LINE",
"156 640 LINE",
"216 640 LINE",
"80 0 LINE"
);
},
{
closed = 1;
nodes = (
"432 640 LINE",
"514 640 LINE",
"560 862 LINE",
"480 862 LINE",
"563 1254 LINE",
"709 1254 OFFCURVE",
"714 1219 OFFCURVE",
"627 803 CURVE SMOOTH",
"601 679 LINE SMOOTH",
"511 248 OFFCURVE",
"493 216 OFFCURVE",
"342 216 CURVE"
);
}
);
width = 744;
},
{
anchors = (
{
name = bottom;
position = "{253, 0}";
},
{
name = center;
position = "{409, 735}";
},
{
name = top;
position = "{565, 1470}";
}
);
background = {
paths = (
{
closed = 1;
nodes = (
"70 0 LINE SMOOTH",
"338 0 OFFCURVE",
"376 132 OFFCURVE",
"504 734 CURVE SMOOTH",
"634 1346 OFFCURVE",
"656 1470 OFFCURVE",
"384 1470 CURVE SMOOTH",
"264 1470 LINE",
"134 862 LINE",
"98 862 LINE",
"52 640 LINE",
"88 640 LINE",
"-48 0 LINE"
);
},
{
closed = 1;
nodes = (
"254 640 LINE",
"284 640 LINE",
"330 862 LINE",
"300 862 LINE",
"384 1254 LINE",
"406 1252 OFFCURVE",
"438 1246 OFFCURVE",
"436 1186 CURVE SMOOTH",
"434 1150 OFFCURVE",
"426 1088 OFFCURVE",
"412 1020 CURVE SMOOTH",
"398 950 OFFCURVE",
"378 856 OFFCURVE",
"354 736 CURVE SMOOTH",
"328 616 OFFCURVE",
"308 522 OFFCURVE",
"292 452 CURVE SMOOTH",
"276 382 OFFCURVE",
"258 320 OFFCURVE",
"244 286 CURVE",
"224 228 OFFCURVE",
"184 220 OFFCURVE",
"162 216 CURVE"
);
}
);
};
layerId = "38BA14EB-08C8-4487-88C1-8F957131FCA1";
paths = (
{
closed = 1;
nodes = (
"110 0 LINE SMOOTH",
"298 0 OFFCURVE",
"366 95 OFFCURVE",
"446 470 CURVE SMOOTH",
"545 934 LINE SMOOTH",
"632 1340 OFFCURVE",
"601 1470 OFFCURVE",
"420 1470 CURVE SMOOTH",
"262 1470 LINE",
"133 862 LINE",
"97 862 LINE",
"50 640 LINE",
"86 640 LINE",
"-50 0 LINE"
);
},
{
closed = 1;
nodes = (
"252 640 LINE",
"282 640 LINE",
"329 862 LINE",
"299 862 LINE",
"383 1254 LINE",
"448 1254 OFFCURVE",
"448 1246 OFFCURVE",
"384 945 CURVE SMOOTH",
"272 422 LINE SMOOTH",
"232 235 OFFCURVE",
"222 216 OFFCURVE",
"162 216 CURVE"
);
}
);
width = 506;
},
{
anchors = (
{
name = bottom;
position = "{435, 0}";
},
{
name = center;
position = "{591, 735}";
},
{
name = top;
position = "{747, 1470}";
}
);
layerId = "A5A4D350-C0CB-4C36-867F-06890CC9F434";
paths = (
{
closed = 1;
nodes = (
"324 0 LINE SMOOTH",
"830 0 OFFCURVE",
"898 183 OFFCURVE",
"1021 783 CURVE SMOOTH",
"1011 734 LINE SMOOTH",
"1156 1445 OFFCURVE",
"1047 1470 OFFCURVE",
"637 1470 CURVE SMOOTH",
"460 1470 LINE",
"331 862 LINE",
"257 862 LINE",
"212 640 LINE",
"284 640 LINE",
"148 0 LINE"
);
},
{
closed = 1;
nodes = (
"527 640 LINE",
"636 640 LINE",
"682 862 LINE",
"575 862 LINE",
"658 1254 LINE",
"867 1254 OFFCURVE",
"847 1157 OFFCURVE",
"757 728 CURVE SMOOTH",
"775 814 LINE SMOOTH",
"658 255 OFFCURVE",
"636 216 OFFCURVE",
"437 216 CURVE"
);
}
);
width = 869.26316;
}
);
unicode = 00D0;
},
{
color = 6;
glyphname = E;
lastChange = "2020-01-27 22:14:58 +0000";
layers = (
{
anchors = (
{
name = bottom;
position = "{307, 0}";
},
{
name = ogonek;
position = "{574, 0}";
},
{
name = top;
position = "{689, 1470}";
},
{
name = topleft;
position = "{392, 1470}";
}
);
layerId = "E10EC336-1202-48FF-9A55-15876E80CDFD";
paths = (
{
closed = 1;
nodes = (
"574 0 LINE",
"620 222 LINE",
"342 222 LINE",
"428 626 LINE",
"628 626 LINE",
"678 862 LINE",
"478 862 LINE",
"560 1248 LINE",
"838 1248 LINE",
"886 1470 LINE",
"392 1470 LINE",
"80 0 LINE"
);
}
);
width = 614;
},
{
anchors = (
{
name = bottom;
position = "{92, 0}";
},
{
name = ogonek;
position = "{282, 0}";
},
{
name = top;
position = "{470, 1470}";
},
{
name = topleft;
position = "{264, 1470}";
}
);
layerId = "38BA14EB-08C8-4487-88C1-8F957131FCA1";
paths = (
{
closed = 1;
nodes = (
"282 0 LINE",
"330 222 LINE",
"164 222 LINE",
"250 626 LINE",
"370 626 LINE",
"420 862 LINE",
"300 862 LINE",
"382 1248 LINE",
"548 1248 LINE",
"596 1470 LINE",
"264 1470 LINE",
"-48 0 LINE"
);
}
);
width = 428;
},
{
anchors = (
{
name = bottom;
position = "{420, 0}";
},
{
name = ogonek;
position = "{728, 0}";
},
{
name = top;
position = "{804, 1470}";
},
{
name = topleft;
position = "{459, 1470}";
}
);
layerId = "A5A4D350-C0CB-4C36-867F-06890CC9F434";
paths = (
{
closed = 1;
nodes = (
"728 0 LINE",
"773 222 LINE",
"436 222 LINE",
"522 626 LINE",
"764 626 LINE",
"814 862 LINE",
"572 862 LINE",
"654 1248 LINE",
"991 1248 LINE",
"1039 1470 LINE",
"459 1470 LINE",
"147 0 LINE"
);
}
);
width = 711.89474;
}
);
rightKerningGroup = E;
unicode = 0045;
},
{
color = 6;
glyphname = F;
lastChange = "2020-01-27 22:14:58 +0000";
layers = (
{
anchors = (
{
name = bottom;
position = "{301, 0}";
},
{
name = top;
position = "{691, 1470}";
}
);
layerId = "E10EC336-1202-48FF-9A55-15876E80CDFD";
paths = (
{
closed = 1;
nodes = (
"296 0 LINE",
"432 640 LINE",
"632 640 LINE",
"678 862 LINE",
"478 862 LINE",
"560 1248 LINE",
"858 1248 LINE",
"906 1470 LINE",
"392 1470 LINE",
"80 0 LINE"
);
}
);
width = 602;
},
{
anchors = (
{
name = bottom;
position = "{211, 0}";
},
{
name = top;
position = "{470, 1470}";
}
);
layerId = "38BA14EB-08C8-4487-88C1-8F957131FCA1";
paths = (
{
closed = 1;
nodes = (
"116 0 LINE",
"254 640 LINE",
"374 640 LINE",
"420 862 LINE",
"300 862 LINE",
"382 1248 LINE",
"560 1248 LINE",
"608 1470 LINE",
"264 1470 LINE",
"-48 0 LINE"
);
}
);
width = 422;
},
{
anchors = (
{
name = bottom;
position = "{348, 0}";
},
{
name = top;
position = "{807, 1470}";
}
);
layerId = "A5A4D350-C0CB-4C36-867F-06890CC9F434";
paths = (
{
closed = 1;
nodes = (
"391 0 LINE",
"526 640 LINE",
"768 640 LINE",
"814 862 LINE",
"572 862 LINE",
"654 1248 LINE",
"1015 1248 LINE",
"1063 1470 LINE",
"459 1470 LINE",
"147 0 LINE"
);
}
);
width = 696.73684;
}
);
unicode = 0046;
},
{
color = 6;
glyphname = G;
lastChange = "2020-01-27 22:16:01 +0000";
layers = (
{
anchors = (
{
name = bottom;
position = "{316, -16}";
},
{
name = top;
position = "{670, 1486}";
}
);
background = {
paths = (
{
closed = 1;
nodes = (
"386 -16 OFFCURVE",
"452 20 OFFCURVE",
"502 70 CURVE",
"514 0 LINE",
"642 0 LINE",
"796 732 LINE",
"494 732 LINE",
"456 550 LINE",
"542 550 LINE",
"486 284 LINE SMOOTH",
"480 260 OFFCURVE",
"472 242 OFFCURVE",
"466 230 CURVE SMOOTH",
"452 200 OFFCURVE",
"428 176 OFFCURVE",
"390 176 CURVE SMOOTH",
"372 176 OFFCURVE",
"360 182 OFFCURVE",
"352 192 CURVE SMOOTH",
"336 214 OFFCURVE",
"332 246 OFFCURVE",
"342 284 CURVE SMOOTH",
"530 1168 LINE SMOOTH",
"534 1188 OFFCURVE",
"540 1206 OFFCURVE",
"548 1222 CURVE SMOOTH",
"562 1248 OFFCURVE",
"586 1276 OFFCURVE",
"624 1276 CURVE SMOOTH",
"642 1276 OFFCURVE",
"656 1270 OFFCURVE",
"664 1260 CURVE SMOOTH",
"678 1238 OFFCURVE",
"682 1208 OFFCURVE",
"674 1168 CURVE SMOOTH",
"626 942 LINE",
"842 942 LINE",
"890 1168 LINE SMOOTH",
"900 1230 OFFCURVE",
"900 1282 OFFCURVE",
"886 1326 CURVE SMOOTH",
"878 1366 OFFCURVE",
"858 1406 OFFCURVE",
"824 1436 CURVE SMOOTH",
"790 1466 OFFCURVE",
"740 1486 OFFCURVE",
"668 1486 CURVE SMOOTH",
"596 1486 OFFCURVE",
"536 1466 OFFCURVE",
"490 1436 CURVE SMOOTH",
"444 1406 OFFCURVE",
"412 1366 OFFCURVE",
"382 1326 CURVE SMOOTH",
"350 1278 OFFCURVE",
"328 1226 OFFCURVE",
"314 1168 CURVE SMOOTH",
"130 302 LINE SMOOTH",
"114 240 OFFCURVE",
"110 188 OFFCURVE",
"120 142 CURVE SMOOTH",
"126 102 OFFCURVE",
"142 64 OFFCURVE",
"172 34 CURVE SMOOTH",
"202 2 OFFCURVE",
"246 -16 OFFCURVE",
"316 -16 CURVE SMOOTH"
);
}
);
};
layerId = "E10EC336-1202-48FF-9A55-15876E80CDFD";
paths = (
{
closed = 1;
nodes = (
"380 -16 OFFCURVE",
"447 15 OFFCURVE",
"503 70 CURVE",
"514 0 LINE",
"642 0 LINE",
"797 732 LINE",
"495 732 LINE",
"457 550 LINE",
"543 550 LINE",
"486 284 LINE SMOOTH",
"472 217 OFFCURVE",
"436 176 OFFCURVE",
"391 176 CURVE SMOOTH",
"347 176 OFFCURVE",
"328 218 OFFCURVE",
"342 284 CURVE SMOOTH",
"530 1168 LINE SMOOTH",
"545 1235 OFFCURVE",
"581 1276 OFFCURVE",
"625 1276 CURVE SMOOTH",
"671 1276 OFFCURVE",
"689 1237 OFFCURVE",
"674 1168 CURVE SMOOTH",
"626 942 LINE",
"842 942 LINE",
"888 1168 LINE SMOOTH",
"927 1360 OFFCURVE",
"841 1486 OFFCURVE",
"670 1486 CURVE SMOOTH",
"496 1486 OFFCURVE",
"360 1363 OFFCURVE",
"317 1167 CURVE SMOOTH",
"128 302 LINE SMOOTH",
"85 104 OFFCURVE",
"156 -16 OFFCURVE",
"316 -16 CURVE SMOOTH"
);
}
);
width = 720;
},
{
anchors = (
{
name = bottom;
position = "{95, 0}";
},
{
name = top;
position = "{558, 1470}";
}
);
layerId = "38BA14EB-08C8-4487-88C1-8F957131FCA1";
paths = (
{
closed = 1;
nodes = (
"161 -16 OFFCURVE",
"213 13 OFFCURVE",
"242 54 CURVE",
"248 0 LINE",
"334 0 LINE",
"490 732 LINE",
"300 732 LINE",
"262 550 LINE",
"298 550 LINE",
"238 264 LINE SMOOTH",
"226 210 OFFCURVE",
"202 176 OFFCURVE",
"178 176 CURVE SMOOTH",
"156 176 OFFCURVE",
"151 205 OFFCURVE",
"164 264 CURVE SMOOTH",
"360 1188 LINE SMOOTH",
"372 1243 OFFCURVE",
"391 1276 OFFCURVE",
"408 1276 CURVE SMOOTH",
"427 1276 OFFCURVE",
"433 1239 OFFCURVE",
"422 1188 CURVE SMOOTH",
"370 942 LINE",
"536 942 LINE",
"588 1188 LINE SMOOTH",
"625 1368 OFFCURVE",
"571 1486 OFFCURVE",
"452 1486 CURVE SMOOTH",
"333 1486 OFFCURVE",
"230 1368 OFFCURVE",
"192 1188 CURVE SMOOTH",
"0 282 LINE SMOOTH",
"-34 119 OFFCURVE",
"19 -16 OFFCURVE",
"118 -16 CURVE SMOOTH"
);
}
);
width = 492;
},
{
anchors = (
{
name = bottom;
position = "{432, -24}";
},
{
name = top;
position = "{729, 1494}";
}
);
layerId = "A5A4D350-C0CB-4C36-867F-06890CC9F434";
paths = (
{
closed = 1;
nodes = (
"503 -16 OFFCURVE",
"568 16 OFFCURVE",
"640 78 CURVE",
"654 0 LINE",
"804 0 LINE",
"959 732 LINE",
"598 732 LINE",
"560 550 LINE",
"672 550 LINE",
"617 295 LINE SMOOTH",
"601 221 OFFCURVE",
"559 176 OFFCURVE",
"503 176 CURVE SMOOTH",
"448 176 OFFCURVE",
"421 225 OFFCURVE",
"436 295 CURVE SMOOTH",
"620 1157 LINE SMOOTH",
"636 1231 OFFCURVE",
"680 1276 OFFCURVE",
"741 1276 CURVE SMOOTH",
"798 1276 OFFCURVE",
"824 1236 OFFCURVE",
"807 1157 CURVE SMOOTH",
"761 942 LINE",
"1003 942 LINE",
"1046 1157 LINE SMOOTH",
"1086 1356 OFFCURVE",
"983 1486 OFFCURVE",
"782 1486 CURVE SMOOTH",
"583 1486 OFFCURVE",
"428 1360 OFFCURVE",
"383 1156 CURVE SMOOTH",
"196 313 LINE SMOOTH",
"148 96 OFFCURVE",
"233 -16 OFFCURVE",
"409 -16 CURVE SMOOTH"
);
}
);
width = 840;
}
);
unicode = 0047;
},
{
color = 6;
glyphname = H;
lastChange = "2020-01-27 22:14:58 +0000";
layers = (
{
anchors = (
{
name = bottom;
position = "{380, 0}";
},
{
name = center;
position = "{380, 735}";
},
{
name = top;
position = "{714, 1470}";
},
{
name = topleft;
position = "{392, 1470}";
}
);
layerId = "E10EC336-1202-48FF-9A55-15876E80CDFD";
paths = (
{
closed = 1;
nodes = (
"296 0 LINE",
"432 640 LINE",
"600 640 LINE",
"464 0 LINE",
"680 0 LINE",
"992 1470 LINE",
"776 1470 LINE",
"646 862 LINE",
"478 862 LINE",
"608 1470 LINE",
"392 1470 LINE",
"80 0 LINE"
);
}
);
width = 760;
},
{
anchors = (
{
name = bottom;
position = "{152, 0}";
},
{
name = center;
position = "{258, 735}";
},
{
name = top;
position = "{494, 1470}";
},
{
name = topleft;
position = "{264, 1470}";
}
);
layerId = "38BA14EB-08C8-4487-88C1-8F957131FCA1";
paths = (
{
closed = 1;
nodes = (
"116 0 LINE",
"254 640 LINE",
"318 640 LINE",
"180 0 LINE",
"346 0 LINE",
"660 1470 LINE",
"494 1470 LINE",
"364 862 LINE",
"300 862 LINE",
"430 1470 LINE",
"264 1470 LINE",
"-48 0 LINE"
);
}
);
width = 516;
},
{
anchors = (
{
name = bottom;
position = "{500, 0}";
},
{
name = center;
position = "{444, 735}";
},
{
name = top;
position = "{830, 1470}";
},
{
name = topleft;
position = "{459, 1470}";
}
);
layerId = "A5A4D350-C0CB-4C36-867F-06890CC9F434";
paths = (
{
closed = 1;
nodes = (
"391 0 LINE",
"526 640 LINE",
"748 640 LINE",
"613 0 LINE",
"856 0 LINE",
"1167 1470 LINE",
"924 1470 LINE",
"794 862 LINE",
"572 862 LINE",
"702 1470 LINE",
"459 1470 LINE",
"147 0 LINE"
);
}
);
width = 888.42105;
}
);
unicode = 0048;
},
{
color = 6;
glyphname = Hbar;
lastChange = "2020-01-27 22:14:58 +0000";
layers = (
{
layerId = "E10EC336-1202-48FF-9A55-15876E80CDFD";
paths = (
{
closed = 1;
nodes = (
"296 0 LINE",
"432 640 LINE",
"600 640 LINE",
"464 0 LINE",
"680 0 LINE",
"912 1096 LINE",
"992 1096 LINE",
"1026 1254 LINE",
"946 1254 LINE",
"992 1470 LINE",
"776 1470 LINE",
"730 1254 LINE",
"562 1254 LINE",
"608 1470 LINE",
"392 1470 LINE",
"346 1254 LINE",
"268 1254 LINE",
"234 1096 LINE",
"312 1096 LINE",
"80 0 LINE"
);
},
{
closed = 1;
nodes = (
"528 1096 LINE",
"696 1096 LINE",
"646 862 LINE",
"478 862 LINE"
);
}
);
width = 760;
},
{
layerId = "38BA14EB-08C8-4487-88C1-8F957131FCA1";
paths = (
{
closed = 1;
nodes = (
"116 0 LINE",
"254 640 LINE",
"318 640 LINE",
"180 0 LINE",
"346 0 LINE",
"580 1096 LINE",
"628 1096 LINE",
"662 1254 LINE",
"614 1254 LINE",
"660 1470 LINE",
"494 1470 LINE",
"448 1254 LINE",
"384 1254 LINE",
"430 1470 LINE",
"264 1470 LINE",
"218 1254 LINE",
"172 1254 LINE",
"138 1096 LINE",
"184 1096 LINE",
"-48 0 LINE"
);
},
{
closed = 1;
nodes = (
"350 1096 LINE",
"414 1096 LINE",
"364 862 LINE",
"300 862 LINE"
);
}
);
width = 516;
},
{
layerId = "A5A4D350-C0CB-4C36-867F-06890CC9F434";
paths = (
{
closed = 1;
nodes = (
"391 0 LINE",
"526 640 LINE",
"748 640 LINE",
"613 0 LINE",
"856 0 LINE",
"1087 1096 LINE",
"1184 1096 LINE",
"1218 1254 LINE",
"1121 1254 LINE",
"1167 1470 LINE",
"924 1470 LINE",
"878 1254 LINE",
"656 1254 LINE",
"702 1470 LINE",
"459 1470 LINE",
"413 1254 LINE",
"319 1254 LINE",
"285 1096 LINE",
"379 1096 LINE",
"147 0 LINE"
);
},
{
closed = 1;
nodes = (
"622 1096 LINE",
"844 1096 LINE",
"794 862 LINE",
"572 862 LINE"
);
}
);
width = 888.42105;
}
);
unicode = 0126;
},
{
color = 6;
glyphname = I;
lastChange = "2020-01-27 22:14:58 +0000";
layers = (
{
anchors = (
{
name = bottom;
position = "{188, 0}";
},
{
name = ogonek;
position = "{296, 0}";
},
{
name = top;
position = "{555, 1470}";
},
{
name = topleft;
position = "{424, 1470}";
}
);
layerId = "E10EC336-1202-48FF-9A55-15876E80CDFD";
paths = (
{
closed = 1;
nodes = (
"296 0 LINE",
"608 1470 LINE",
"392 1470 LINE",
"80 0 LINE"
);
}
);
width = 376;
},
{
anchors = (
{
name = bottom;
position = "{35, 0}";
},
{
name = ogonek;
position = "{116, 0}";
},
{
name = top;
position = "{413, 1470}";
},
{
name = topleft;
position = "{264, 1470}";
}
);
layerId = "38BA14EB-08C8-4487-88C1-8F957131FCA1";
paths = (
{
closed = 1;
nodes = (
"116 0 LINE",
"430 1470 LINE",
"264 1470 LINE",
"-48 0 LINE"
);
}
);
width = 286;
},
{
anchors = (
{
name = bottom;
position = "{269, 0}";
},
{
name = ogonek;
position = "{391, 0}";
},
{
name = top;
position = "{630, 1470}";
},
{
name = topleft;
position = "{508, 1470}";
}
);
layerId = "A5A4D350-C0CB-4C36-867F-06890CC9F434";
paths = (
{
closed = 1;
nodes = (
"391 0 LINE",
"702 1470 LINE",
"459 1470 LINE",
"147 0 LINE"
);
}
);
width = 423.36842;
}
);
leftKerningGroup = l;
rightKerningGroup = l;
unicode = 0049;
},
{
color = 6;
glyphname = IJ;
lastChange = "2020-01-27 22:15:29 +0000";
layers = (
{
layerId = "E10EC336-1202-48FF-9A55-15876E80CDFD";
paths = (
{
closed = 1;
nodes = (
"596 -27 OFFCURVE",
"736 75 OFFCURVE",
"776 272 CURVE SMOOTH",
"1032 1470 LINE",
"816 1470 LINE",
"568 306 LINE SMOOTH",
"551 228 OFFCURVE",
"500 188 OFFCURVE",
"430 198 CURVE",
"384 -14 LINE"
);
},
{
closed = 1;
nodes = (
"296 0 LINE",
"608 1470 LINE",
"392 1470 LINE",
"80 0 LINE"
);
}
);
width = 790;
},
{
layerId = "38BA14EB-08C8-4487-88C1-8F957131FCA1";
paths = (
{
closed = 1;
nodes = (
"309 -27 OFFCURVE",
"409 67 OFFCURVE",
"452 272 CURVE SMOOTH",
"706 1470 LINE",
"540 1470 LINE",
"292 306 LINE SMOOTH",
"278 234 OFFCURVE",
"240 194 OFFCURVE",
"196 204 CURVE",
"152 -12 LINE"
);
},
{
closed = 1;
nodes = (
"118 0 LINE",
"430 1470 LINE",
"264 1470 LINE",
"-46 0 LINE"
);
}
);
width = 534;
},
{
layerId = "A5A4D350-C0CB-4C36-867F-06890CC9F434";
paths = (
{
closed = 1;
nodes = (
"747 -27 OFFCURVE",
"907 79 OFFCURVE",
"948 272 CURVE SMOOTH",
"1204 1470 LINE",
"961 1470 LINE",
"713 306 LINE SMOOTH",
"696 225 OFFCURVE",
"636 186 OFFCURVE",
"553 195 CURVE",
"506 -15 LINE"
);
},
{
closed = 1;
nodes = (
"390 0 LINE",
"702 1470 LINE",
"459 1470 LINE",
"146 0 LINE"
);
}
);
width = 924.73684;
}
);
unicode = 0132;
},
{
color = 6;
glyphname = J;
lastChange = "2020-01-27 22:15:29 +0000";
layers = (
{
anchors = (
{
name = bottom;
position = "{207, 0}";
},
{
name = top;
position = "{207, 1470}";
}
);
layerId = "E10EC336-1202-48FF-9A55-15876E80CDFD";
paths = (
{
closed = 1;
nodes = (
"220 -27 OFFCURVE",
"360 75 OFFCURVE",
"400 272 CURVE SMOOTH",
"656 1470 LINE",
"440 1470 LINE",
"192 306 LINE SMOOTH",
"175 228 OFFCURVE",
"124 188 OFFCURVE",
"54 198 CURVE",
"8 -14 LINE"
);
}
);
width = 414;
},
{
anchors = (
{
name = bottom;
position = "{154, 0}";
},
{
name = top;
position = "{154, 1470}";
}
);
layerId = "38BA14EB-08C8-4487-88C1-8F957131FCA1";
paths = (
{
closed = 1;
nodes = (
"69 -27 OFFCURVE",
"169 67 OFFCURVE",
"212 272 CURVE SMOOTH",
"466 1470 LINE",
"300 1470 LINE",
"52 306 LINE SMOOTH",
"38 234 OFFCURVE",
"1 194 OFFCURVE",
"-42 204 CURVE",
"-86 -12 LINE"
);
}
);
width = 308;
},
{
anchors = (
{
name = bottom;
position = "{235, 0}";
},
{
name = top;
position = "{235, 1470}";
}
);
layerId = "A5A4D350-C0CB-4C36-867F-06890CC9F434";
paths = (
{
closed = 1;
nodes = (
"299 -27 OFFCURVE",
"460 79 OFFCURVE",
"501 272 CURVE SMOOTH",
"756 1470 LINE",
"514 1470 LINE",
"265 306 LINE SMOOTH",
"248 225 OFFCURVE",
"188 186 OFFCURVE",
"105 195 CURVE",
"57 -15 LINE"
);
}
);
width = 469.78947;
}
);
unicode = 004A;
},
{
color = 6;
glyphname = K;
lastChange = "2020-01-27 22:14:58 +0000";
layers = (
{
anchors = (
{
name = bottom;
position = "{358, 0}";
},
{
name = top;
position = "{375, 1470}";
}
);
layerId = "E10EC336-1202-48FF-9A55-15876E80CDFD";
paths = (
{
closed = 1;
nodes = (
"296 0 LINE",
"406 520 LINE",
"482 640 LINE",
"500 670 LINE",
"506 670 LINE",
"506 640 LINE",
"520 0 LINE",
"730 0 LINE",
"714 986 LINE",
"1016 1470 LINE",
"806 1470 LINE",
"522 980 LINE",
"506 956 LINE",
"498 956 LINE",
"503 981 LINE",
"608 1470 LINE",
"392 1470 LINE",
"80 0 LINE"
);
}
);
width = 750;
},
{
anchors = (
{
name = bottom;
position = "{155, 0}";
},
{
name = top;
position = "{567, 1470}";
}
);
background = {
paths = (
{
closed = 1;
nodes = (
"110 0 LINE",
"260 700 LINE",
"214 0 LINE",
"376 0 LINE",
"434 932 LINE",
"694 1470 LINE",
"532 1470 LINE",
"334 1048 LINE",
"424 1470 LINE",
"264 1470 LINE",
"-48 0 LINE"
);
}
);
};
layerId = "38BA14EB-08C8-4487-88C1-8F957131FCA1";
paths = (
{
closed = 1;
nodes = (
"111 0 LINE",
"252 664 LINE",
"256 682 LINE",
"260 700 LINE",
"261 700 LINE",
"259 666 LINE",
"215 0 LINE",
"377 0 LINE",
"433 932 LINE",
"693 1470 LINE",
"531 1470 LINE",
"340 1060 LINE",
"335 1048 LINE",
"334 1048 LINE",
"336 1060 LINE",
"423 1470 LINE",
"263 1470 LINE",
"-49 0 LINE"
);
}
);
width = 510;
},
{
anchors = (
{
name = bottom;
position = "{465, 0}";
},
{
name = top;
position = "{274, 1470}";
}
);
layerId = "A5A4D350-C0CB-4C36-867F-06890CC9F434";
paths = (
{
closed = 1;
nodes = (
"393 0 LINE",
"487 444 LINE",
"601 618 LINE",
"626 654 LINE",
"635 654 LINE",
"636 626 LINE",
"681 0 LINE",
"916 0 LINE",
"862 1014 LINE",
"1186 1470 LINE",
"951 1470 LINE",
"618 938 LINE",
"596 908 LINE",
"584 908 LINE",
"591 939 LINE",
"705 1470 LINE",
"460 1470 LINE",
"148 0 LINE"
);
}
);
width = 876.31579;
}
);
unicode = 004B;
},
{
color = 6;
glyphname = L;
lastChange = "2020-01-27 22:14:58 +0000";
layers = (
{
anchors = (
{
name = bottom;
position = "{295, 0}";
},
{
name = center;
position = "{295, 735}";
},
{
name = top;
position = "{708, 1470}";
},
{
name = topright;
position = "{608, 1470}";
}
);
layerId = "E10EC336-1202-48FF-9A55-15876E80CDFD";
paths = (
{
closed = 1;
nodes = (
"582 0 LINE",
"624 200 LINE",
"338 200 LINE",
"608 1470 LINE",
"392 1470 LINE",
"80 0 LINE"
);
}
);
width = 590;
},
{
anchors = (
{
name = bottom;
position = "{90, 0}";
},
{
name = center;
position = "{207, 735}";
},
{
name = top;
position = "{508, 1470}";
},
{
name = topright;
position = "{394, 1470}";
}
);
layerId = "38BA14EB-08C8-4487-88C1-8F957131FCA1";
paths = (
{
closed = 1;
nodes = (
"288 0 LINE",
"332 200 LINE",
"160 200 LINE",
"430 1470 LINE",
"264 1470 LINE",
"-48 0 LINE"
);
}
);
width = 414;
},
{
anchors = (
{
name = bottom;
position = "{403, 0}";
},
{
name = center;
position = "{341, 735}";
},
{
name = top;
position = "{813, 1470}";
},
{
name = topright;
position = "{721, 1470}";
}
);
layerId = "A5A4D350-C0CB-4C36-867F-06890CC9F434";
paths = (
{
closed = 1;
nodes = (
"737 0 LINE",
"778 200 LINE",
"432 200 LINE",
"702 1470 LINE",
"459 1470 LINE",
"147 0 LINE"
);
}
);
width = 682.63158;
}
);
unicode = 004C;
},
{
color = 6;
glyphname = Lslash;
lastChange = "2020-01-27 22:14:58 +0000";
layers = (
{
layerId = "E10EC336-1202-48FF-9A55-15876E80CDFD";
paths = (
{
closed = 1;
nodes = (
"606 0 LINE",
"648 200 LINE",
"362 200 LINE",
"482 766 LINE",
"620 858 LINE",
"666 1074 LINE",
"528 982 LINE",
"632 1470 LINE",
"416 1470 LINE",
"276 814 LINE",
"202 764 LINE",
"156 548 LINE",
"230 598 LINE",
"104 0 LINE"
);
}
);
width = 614;
},
{
layerId = "38BA14EB-08C8-4487-88C1-8F957131FCA1";
paths = (
{
closed = 1;
nodes = (
"302 0 LINE",
"346 200 LINE",
"174 200 LINE",
"292 766 LINE",
"384 862 LINE",
"438 1118 LINE",
"350 1026 LINE",
"444 1470 LINE",
"278 1470 LINE",
"140 824 LINE",
"82 764 LINE",
"26 500 LINE",
"86 566 LINE",
"-34 0 LINE"
);
}
);
width = 428;
},
{
layerId = "A5A4D350-C0CB-4C36-867F-06890CC9F434";
paths = (
{
closed = 1;
nodes = (
"766 0 LINE",
"807 200 LINE",
"461 200 LINE",
"582 766 LINE",
"744 856 LINE",
"786 1051 LINE",
"622 959 LINE",
"731 1470 LINE",
"489 1470 LINE",
"348 809 LINE",
"265 764 LINE",
"224 573 LINE",
"306 615 LINE",
"177 0 LINE"
);
}
);
width = 711.89474;
}
);
unicode = 0141;
},
{
color = 6;
glyphname = M;
lastChange = "2020-01-27 22:14:58 +0000";
layers = (
{
anchors = (
{
name = bottom;
position = "{438, 0}";
},
{
name = top;
position = "{833, 1470}";
}
);
layerId = "E10EC336-1202-48FF-9A55-15876E80CDFD";
paths = (
{
closed = 1;
nodes = (
"280 0 LINE",
"476 929 LINE",
"488 986 LINE",
"500 986 LINE",
"496 924 LINE",
"438 0 LINE",
"530 0 LINE",
"864 924 LINE",
"884 986 LINE",
"896 986 LINE",
"882 920 LINE",
"688 0 LINE",
"888 0 LINE",
"1200 1470 LINE",
"936 1470 LINE",
"664 798 LINE",
"638 720 LINE",
"634 720 LINE",
"640 798 LINE",
"656 1470 LINE",
"392 1470 LINE",
"80 0 LINE"
);
}
);
width = 968;
},
{
anchors = (
{
name = bottom;
position = "{205, 0}";
},
{
name = top;
position = "{522, 1470}";
}
);
background = {
paths = (
{
closed = 1;
nodes = (
"104 0 LINE",
"258 724 LINE",
"166 0 LINE",
"256 0 LINE",
"466 724 LINE",
"316 0 LINE",
"470 0 LINE",
"784 1470 LINE",
"600 1470 LINE",
"376 776 LINE",
"448 1470 LINE",
"264 1470 LINE",
"-48 0 LINE"
);
}
);
};
layerId = "38BA14EB-08C8-4487-88C1-8F957131FCA1";
paths = (
{
closed = 1;
nodes = (
"104 0 LINE",
"255 710 LINE",
"258 724 LINE",
"259 724 LINE",
"256 710 LINE",
"166 0 LINE",
"256 0 LINE",
"462 710 LINE",
"465 724 LINE",
"466 724 LINE",
"463 710 LINE",
"316 0 LINE",
"470 0 LINE",
"782 1470 LINE",
"598 1470 LINE",
"377 778 LINE",
"371 755 LINE",
"370 755 LINE",
"374 778 LINE",
"446 1470 LINE",
"262 1470 LINE",
"-50 0 LINE"
);
}
);
width = 640;
},
{
anchors = (
{
name = bottom;
position = "{561, 0}";
},
{
name = top;
position = "{997, 1470}";
}
);
layerId = "A5A4D350-C0CB-4C36-867F-06890CC9F434";
paths = (
{
closed = 1;
nodes = (
"373 0 LINE",
"592 1044 LINE",
"609 1124 LINE",
"627 1124 LINE",
"622 1037 LINE",
"581 0 LINE",
"674 0 LINE",
"1076 1037 LINE",
"1105 1124 LINE",
"1122 1124 LINE",
"1103 1031 LINE",
"884 0 LINE",
"1108 0 LINE",
"1420 1470 LINE",
"1114 1470 LINE",
"815 809 LINE",
"779 702 LINE",
"773 702 LINE",
"780 809 LINE",
"767 1470 LINE",
"460 1470 LINE",
"148 0 LINE"
);
}
);
width = 1140.63158;
}
);
unicode = 004D;
},
{
color = 6;
glyphname = N;
lastChange = "2020-01-27 22:14:58 +0000";
layers = (
{
anchors = (
{
name = bottom;
position = "{363, 0}";
},
{
name = top;
position = "{759, 1470}";
}
);
layerId = "E10EC336-1202-48FF-9A55-15876E80CDFD";
paths = (
{
closed = 1;
nodes = (
"278 0 LINE",
"440 769 LINE",
"454 834 LINE",
"466 834 LINE",
"470 766 LINE",
"518 0 LINE",
"710 0 LINE",
"1022 1470 LINE",
"824 1470 LINE",
"660 700 LINE",
"646 636 LINE",
"634 636 LINE",
"630 704 LINE",
"584 1470 LINE",
"392 1470 LINE",
"80 0 LINE"
);
}
);
width = 790;
},
{
anchors = (
{
name = bottom;
position = "{145, 0}";
},
{
name = top;
position = "{522, 1470}";
}
);
background = {
paths = (
{
closed = 1;
nodes = (
"104 0 LINE",
"256 714 LINE",
"224 0 LINE",
"364 0 LINE",
"678 1470 LINE",
"524 1470 LINE",
"376 776 LINE",
"404 1470 LINE",
"264 1470 LINE",
"-48 0 LINE"
);
}
);
};
layerId = "38BA14EB-08C8-4487-88C1-8F957131FCA1";
paths = (
{
closed = 1;
nodes = (
"104 0 LINE",
"252 698 LINE",
"255 714 LINE",
"256 714 LINE",
"255 697 LINE",
"224 0 LINE",
"364 0 LINE",
"676 1470 LINE",
"522 1470 LINE",
"378 791 LINE",
"376 776 LINE",
"375 776 LINE",
"375 782 LINE",
"402 1470 LINE",
"262 1470 LINE",
"-50 0 LINE"
);
}
);
width = 534;
},
{
anchors = (
{
name = bottom;
position = "{478, 0}";
},
{
name = top;
position = "{884, 1470}";
}
);
layerId = "A5A4D350-C0CB-4C36-867F-06890CC9F434";
paths = (
{
closed = 1;
nodes = (
"370 0 LINE",
"539 806 LINE",
"559 897 LINE",
"577 897 LINE",
"583 802 LINE",
"673 0 LINE",
"892 0 LINE",
"1204 1470 LINE",
"983 1470 LINE",
"808 652 LINE",
"788 562 LINE",
"770 562 LINE",
"764 663 LINE",
"680 1470 LINE",
"460 1470 LINE",
"148 0 LINE"
);
}
);
width = 924.73684;
}
);
unicode = 004E;
},
{
color = 6;
glyphname = Eng;
lastChange = "2020-01-27 22:16:01 +0000";
layers = (
{
layerId = "E10EC336-1202-48FF-9A55-15876E80CDFD";
paths = (
{
closed = 1;
nodes = (
"546 -254 OFFCURVE",
"662 -170 OFFCURVE",
"710 0 CURVE SMOOTH",
"1022 1470 LINE",
"824 1470 LINE",
"646 636 LINE",
"634 636 LINE",
"630 704 LINE",
"584 1470 LINE",
"392 1470 LINE",
"80 0 LINE",
"278 0 LINE",
"454 834 LINE",
"466 834 LINE",
"470 766 LINE",
"518 0 LINE",
"506 -33 OFFCURVE",
"469 -48 OFFCURVE",
"422 -40 CURVE",
"380 -242 LINE"
);
}
);
width = 790;
},
{
layerId = "38BA14EB-08C8-4487-88C1-8F957131FCA1";
paths = (
{
closed = 1;
nodes = (
"265 -260 OFFCURVE",
"337 -162 OFFCURVE",
"378 0 CURVE SMOOTH",
"690 1470 LINE",
"536 1470 LINE",
"388 772 LINE",
"387 772 LINE",
"389 803 LINE",
"418 1470 LINE",
"276 1470 LINE",
"-34 0 LINE",
"118 0 LINE",
"268 704 LINE",
"269 704 LINE",
"266 670 LINE",
"226 0 LINE",
"207 -29 OFFCURVE",
"189 -39 OFFCURVE",
"170 -32 CURVE",
"124 -240 LINE"
);
}
);
width = 534;
},
{
layerId = "A5A4D350-C0CB-4C36-867F-06890CC9F434";
paths = (
{
closed = 1;
nodes = (
"694 -251 OFFCURVE",
"840 -175 OFFCURVE",
"878 1 CURVE SMOOTH",
"1197 1470 LINE",
"976 1470 LINE",
"782 564 LINE",
"764 564 LINE",
"757 652 LINE",
"671 1470 LINE",
"453 1470 LINE",
"140 0 LINE",
"362 0 LINE",
"552 902 LINE",
"570 902 LINE",
"577 817 LINE",
"672 0 LINE",
"663 -35 OFFCURVE",
"616 -53 OFFCURVE",
"555 -44 CURVE",
"515 -243 LINE"
);
}
);
width = 924.73684;
}
);
unicode = 014A;
},
{
color = 6;
glyphname = O;
lastChange = "2020-01-27 22:16:01 +0000";
layers = (
{
anchors = (
{
name = bottom;
position = "{351, -16}";
},
{
name = center;
position = "{510, 735}";
},
{
name = ogonek;
position = "{412, 0}";
},
{
name = top;
position = "{756, 1470}";
},
{
name = topleft;
position = "{332, 1470}";
},
{
name = topright;
position = "{1000, 1470}";
}
);
background = {
paths = (
{
closed = 1;
nodes = (
"420 -16 OFFCURVE",
"478 0 OFFCURVE",
"526 34 CURVE",
"572 64 OFFCURVE",
"606 102 OFFCURVE",
"636 142 CURVE",
"666 188 OFFCURVE",
"690 242 OFFCURVE",
"706 302 CURVE",
"890 1168 LINE",
"900 1230 OFFCURVE",
"900 1282 OFFCURVE",
"886 1326 CURVE",
"878 1366 OFFCURVE",
"858 1406 OFFCURVE",
"824 1436 CURVE SMOOTH",
"790 1466 OFFCURVE",
"740 1486 OFFCURVE",
"668 1486 CURVE SMOOTH",
"596 1486 OFFCURVE",
"536 1466 OFFCURVE",
"490 1436 CURVE SMOOTH",
"444 1406 OFFCURVE",
"412 1366 OFFCURVE",
"382 1326 CURVE",
"350 1278 OFFCURVE",
"328 1226 OFFCURVE",
"314 1168 CURVE SMOOTH",
"130 302 LINE SMOOTH",
"118 240 OFFCURVE",
"118 188 OFFCURVE",
"132 142 CURVE",
"140 102 OFFCURVE",
"158 64 OFFCURVE",
"192 34 CURVE SMOOTH",
"228 0 OFFCURVE",
"280 -16 OFFCURVE",
"350 -16 CURVE SMOOTH"
);
},
{
closed = 1;
nodes = (
"376 194 OFFCURVE",
"364 200 OFFCURVE",
"356 210 CURVE",
"340 232 OFFCURVE",
"336 264 OFFCURVE",
"346 302 CURVE",
"530 1168 LINE SMOOTH",
"534 1188 OFFCURVE",
"540 1206 OFFCURVE",
"548 1222 CURVE SMOOTH",
"562 1248 OFFCURVE",
"586 1276 OFFCURVE",
"624 1276 CURVE SMOOTH",
"642 1276 OFFCURVE",
"656 1270 OFFCURVE",
"664 1260 CURVE",
"678 1238 OFFCURVE",
"682 1208 OFFCURVE",
"674 1168 CURVE SMOOTH",
"490 302 LINE",
"484 278 OFFCURVE",
"476 260 OFFCURVE",
"470 248 CURVE SMOOTH",
"456 218 OFFCURVE",
"432 194 OFFCURVE",
"394 194 CURVE SMOOTH"
);
}
);
};
layerId = "E10EC336-1202-48FF-9A55-15876E80CDFD";
paths = (
{
closed = 1;
nodes = (
"524 -16 OFFCURVE",
"663 109 OFFCURVE",
"704 303 CURVE SMOOTH",
"888 1169 LINE SMOOTH",
"929 1361 OFFCURVE",
"843 1486 OFFCURVE",
"671 1486 CURVE SMOOTH",
"498 1486 OFFCURVE",
"359 1361 OFFCURVE",
"318 1167 CURVE SMOOTH",
"135 301 LINE SMOOTH",
"94 108 OFFCURVE",
"178 -16 OFFCURVE",
"351 -16 CURVE SMOOTH"
);
},
{
closed = 1;
nodes = (
"352 194 OFFCURVE",
"333 235 OFFCURVE",
"347 302 CURVE SMOOTH",
"531 1168 LINE SMOOTH",
"545 1235 OFFCURVE",
"581 1276 OFFCURVE",
"626 1276 CURVE SMOOTH",
"671 1276 OFFCURVE",
"689 1236 OFFCURVE",
"675 1168 CURVE SMOOTH",
"491 302 LINE SMOOTH",
"477 235 OFFCURVE",
"441 194 OFFCURVE",
"396 194 CURVE SMOOTH"
);
}
);
width = 708;
},
{
anchors = (
{
name = bottom;
position = "{141, 0}";
},
{
name = center;
position = "{242, 735}";
},
{
name = ogonek;
position = "{184, 0}";
},
{
name = top;
position = "{522, 1470}";
},
{
name = topleft;
position = "{300, 1470}";
},
{
name = topright;
position = "{744, 1470}";
}
);
layerId = "38BA14EB-08C8-4487-88C1-8F957131FCA1";
paths = (
{
closed = 1;
nodes = (
"264 -16 OFFCURVE",
"360 94 OFFCURVE",
"400 282 CURVE SMOOTH",
"594 1188 LINE SMOOTH",
"633 1370 OFFCURVE",
"579 1486 OFFCURVE",
"456 1486 CURVE SMOOTH",
"332 1486 OFFCURVE",
"230 1371 OFFCURVE",
"192 1188 CURVE SMOOTH",
"0 282 LINE SMOOTH",
"-37 94 OFFCURVE",
"13 -16 OFFCURVE",
"138 -16 CURVE SMOOTH"
);
},
{
closed = 1;
nodes = (
"165 194 OFFCURVE",
"158 231 OFFCURVE",
"168 282 CURVE SMOOTH",
"362 1188 LINE SMOOTH",
"373 1241 OFFCURVE",
"394 1276 OFFCURVE",
"414 1276 CURVE SMOOTH",
"434 1276 OFFCURVE",
"439 1242 OFFCURVE",
"428 1188 CURVE SMOOTH",
"234 282 LINE SMOOTH",
"226 234 OFFCURVE",
"203 194 OFFCURVE",
"184 194 CURVE SMOOTH"
);
}
);
width = 484;
},
{
anchors = (
{
name = bottom;
position = "{462, -24}";
},
{
name = center;
position = "{651, 735}";
},
{
name = ogonek;
position = "{532, 0}";
},
{
name = top;
position = "{879, 1470}";
},
{
name = topleft;
position = "{349, 1470}";
},
{
name = topright;
position = "{1135, 1470}";
}
);
layerId = "A5A4D350-C0CB-4C36-867F-06890CC9F434";
paths = (
{
closed = 1;
nodes = (
"661 -16 OFFCURVE",
"822 117 OFFCURVE",
"864 314 CURVE SMOOTH",
"1043 1159 LINE SMOOTH",
"1085 1356 OFFCURVE",
"982 1486 OFFCURVE",
"784 1486 CURVE SMOOTH",
"585 1486 OFFCURVE",
"426 1356 OFFCURVE",
"384 1156 CURVE SMOOTH",
"205 311 LINE SMOOTH",
"163 113 OFFCURVE",
"267 -16 OFFCURVE",
"463 -16 CURVE SMOOTH"
);
},
{
closed = 1;
nodes = (
"450 194 OFFCURVE",
"425 237 OFFCURVE",
"441 313 CURVE SMOOTH",
"620 1157 LINE SMOOTH",
"636 1232 OFFCURVE",
"678 1276 OFFCURVE",
"738 1276 CURVE SMOOTH",
"796 1276 OFFCURVE",
"821 1233 OFFCURVE",
"805 1157 CURVE SMOOTH",
"626 313 LINE SMOOTH",
"610 236 OFFCURVE",
"566 194 OFFCURVE",
"508 194 CURVE SMOOTH"
);
}
);
width = 825.89474;
}
);
unicode = 004F;
},
{
color = 6;
glyphname = Oslash;
lastChange = "2020-01-27 22:16:01 +0000";
layers = (
{
anchors = (
{
name = bottom;
position = "{354, 0}";
},
{
name = center;
position = "{510, 735}";
},
{
name = ogonek;
position = "{639, 10}";
},
{
name = top;
position = "{354, 1470}";
},
{
name = topleft;
position = "{332, 1470}";
},
{
name = topright;
position = "{1000, 1470}";
}
);
background = {
paths = (
{
closed = 1;
nodes = (
"178 -20 LINE",
"202 26 LINE",
"238 -2 OFFCURVE",
"288 -16 OFFCURVE",
"350 -16 CURVE SMOOTH",
"420 -16 OFFCURVE",
"478 0 OFFCURVE",
"526 34 CURVE",
"572 64 OFFCURVE",
"606 102 OFFCURVE",
"636 142 CURVE",
"666 188 OFFCURVE",
"690 242 OFFCURVE",
"706 302 CURVE",
"890 1168 LINE SMOOTH",
"892 1178 OFFCURVE",
"894 1186 OFFCURVE",
"894 1196 CURVE SMOOTH",
"894 1204 OFFCURVE",
"894 1214 OFFCURVE",
"896 1224 CURVE",
"896 1258 OFFCURVE",
"896 1302 OFFCURVE",
"882 1344 CURVE",
"958 1490 LINE",
"838 1490 LINE",
"814 1444 LINE",
"778 1472 OFFCURVE",
"730 1486 OFFCURVE",
"668 1486 CURVE SMOOTH",
"596 1486 OFFCURVE",
"536 1466 OFFCURVE",
"490 1436 CURVE SMOOTH",
"444 1406 OFFCURVE",
"412 1366 OFFCURVE",
"382 1326 CURVE SMOOTH",
"350 1278 OFFCURVE",
"328 1226 OFFCURVE",
"314 1168 CURVE SMOOTH",
"130 302 LINE SMOOTH",
"128 292 OFFCURVE",
"126 284 OFFCURVE",
"126 276 CURVE",
"124 266 OFFCURVE",
"124 258 OFFCURVE",
"122 248 CURVE",
"120 216 OFFCURVE",
"118 174 OFFCURVE",
"132 134 CURVE",
"52 -20 LINE"
);
},
{
closed = 1;
nodes = (
"376 194 OFFCURVE",
"364 200 OFFCURVE",
"356 210 CURVE",
"340 232 OFFCURVE",
"336 264 OFFCURVE",
"346 302 CURVE",
"590 778 LINE",
"490 302 LINE",
"484 278 OFFCURVE",
"476 260 OFFCURVE",
"470 248 CURVE SMOOTH",
"456 218 OFFCURVE",
"432 194 OFFCURVE",
"394 194 CURVE SMOOTH"
);
},
{
closed = 1;
nodes = (
"530 1168 LINE SMOOTH",
"534 1188 OFFCURVE",
"540 1206 OFFCURVE",
"548 1222 CURVE SMOOTH",
"562 1248 OFFCURVE",
"586 1276 OFFCURVE",
"624 1276 CURVE SMOOTH",
"656 1276 OFFCURVE",
"670 1258 OFFCURVE",
"676 1236 CURVE",
"678 1210 OFFCURVE",
"678 1190 OFFCURVE",
"676 1178 CURVE",
"432 710 LINE"
);
}
);
};
layerId = "E10EC336-1202-48FF-9A55-15876E80CDFD";
paths = (
{
closed = 1;
nodes = (
"178 -20 LINE",
"958 1490 LINE",
"838 1490 LINE",
"52 -20 LINE"
);
},
{
closed = 1;
nodes = (
"524 -16 OFFCURVE",
"663 109 OFFCURVE",
"704 303 CURVE SMOOTH",
"888 1169 LINE SMOOTH",
"929 1361 OFFCURVE",
"843 1486 OFFCURVE",
"671 1486 CURVE SMOOTH",
"498 1486 OFFCURVE",
"359 1361 OFFCURVE",
"318 1167 CURVE SMOOTH",
"135 301 LINE SMOOTH",
"94 108 OFFCURVE",
"178 -16 OFFCURVE",
"351 -16 CURVE SMOOTH"
);
},
{
closed = 1;
nodes = (
"352 194 OFFCURVE",
"333 235 OFFCURVE",
"347 302 CURVE SMOOTH",
"531 1168 LINE SMOOTH",
"545 1235 OFFCURVE",
"581 1276 OFFCURVE",
"626 1276 CURVE SMOOTH",
"671 1276 OFFCURVE",
"689 1236 OFFCURVE",
"675 1168 CURVE SMOOTH",
"491 302 LINE SMOOTH",
"477 235 OFFCURVE",
"441 194 OFFCURVE",
"396 194 CURVE SMOOTH"
);
}
);
width = 708;
},
{
anchors = (
{
name = bottom;
position = "{242, 0}";
},
{
name = center;
position = "{249, 735}";
},
{
name = ogonek;
position = "{443, 10}";
},
{
name = top;
position = "{242, 1470}";
},
{
name = topleft;
position = "{27, 1470}";
},
{
name = topright;
position = "{471, 1470}";
}
);
background = {
paths = (
{
closed = 1;
nodes = (
"42 -20 LINE",
"54 8 LINE",
"78 -6 OFFCURVE",
"106 -16 OFFCURVE",
"144 -16 CURVE SMOOTH",
"296 -16 OFFCURVE",
"374 130 OFFCURVE",
"406 282 CURVE SMOOTH",
"600 1188 LINE SMOOTH",
"610 1242 OFFCURVE",
"618 1308 OFFCURVE",
"604 1364 CURVE",
"656 1490 LINE",
"564 1490 LINE",
"552 1460 LINE",
"528 1476 OFFCURVE",
"500 1486 OFFCURVE",
"462 1486 CURVE SMOOTH",
"312 1486 OFFCURVE",
"230 1340 OFFCURVE",
"198 1188 CURVE SMOOTH",
"4 282 LINE SMOOTH",
"-6 222 OFFCURVE",
"-12 158 OFFCURVE",
"0 106 CURVE",
"-52 -20 LINE"
);
},
{
closed = 1;
nodes = (
"172 194 OFFCURVE",
"164 228 OFFCURVE",
"174 282 CURVE SMOOTH",
"186 330 LINE",
"324 672 LINE",
"240 282 LINE SMOOTH",
"232 236 OFFCURVE",
"210 194 OFFCURVE",
"190 194 CURVE SMOOTH"
);
},
{
closed = 1;
nodes = (
"368 1188 LINE SMOOTH",
"378 1236 OFFCURVE",
"398 1276 OFFCURVE",
"420 1276 CURVE SMOOTH",
"442 1276 OFFCURVE",
"444 1234 OFFCURVE",
"434 1188 CURVE SMOOTH",
"426 1152 LINE",
"288 816 LINE"
);
}
);
};
layerId = "38BA14EB-08C8-4487-88C1-8F957131FCA1";
paths = (
{
closed = 1;
nodes = (
"42 -20 LINE",
"656 1490 LINE",
"564 1490 LINE",
"-52 -20 LINE"
);
},
{
closed = 1;
nodes = (
"271 -16 OFFCURVE",
"367 94 OFFCURVE",
"407 282 CURVE SMOOTH",
"601 1188 LINE SMOOTH",
"640 1370 OFFCURVE",
"586 1486 OFFCURVE",
"463 1486 CURVE SMOOTH",
"339 1486 OFFCURVE",
"237 1371 OFFCURVE",
"199 1188 CURVE SMOOTH",
"7 282 LINE SMOOTH",
"-30 94 OFFCURVE",
"20 -16 OFFCURVE",
"145 -16 CURVE SMOOTH"
);
},
{
closed = 1;
nodes = (
"172 194 OFFCURVE",
"165 231 OFFCURVE",
"175 282 CURVE SMOOTH",
"369 1188 LINE SMOOTH",
"380 1241 OFFCURVE",
"401 1276 OFFCURVE",
"421 1276 CURVE SMOOTH",
"441 1276 OFFCURVE",
"446 1242 OFFCURVE",
"435 1188 CURVE SMOOTH",
"241 282 LINE SMOOTH",
"233 234 OFFCURVE",
"210 194 OFFCURVE",
"191 194 CURVE SMOOTH"
);
}
);
width = 484;
},
{
anchors = (
{
name = bottom;
position = "{413, 0}";
},
{
name = center;
position = "{647, 735}";
},
{
name = ogonek;
position = "{742, 10}";
},
{
name = top;
position = "{413, 1470}";
},
{
name = topleft;
position = "{493, 1470}";
},
{
name = topright;
position = "{1278, 1470}";
}
);
layerId = "A5A4D350-C0CB-4C36-867F-06890CC9F434";
paths = (
{
closed = 1;
nodes = (
"250 -20 LINE",
"1117 1490 LINE",
"982 1490 LINE",
"107 -20 LINE"
);
},
{
closed = 1;
nodes = (
"657 -16 OFFCURVE",
"818 117 OFFCURVE",
"860 314 CURVE SMOOTH",
"1039 1159 LINE SMOOTH",
"1081 1356 OFFCURVE",
"978 1486 OFFCURVE",
"780 1486 CURVE SMOOTH",
"582 1486 OFFCURVE",
"424 1356 OFFCURVE",
"381 1156 CURVE SMOOTH",
"201 311 LINE SMOOTH",
"159 115 OFFCURVE",
"261 -16 OFFCURVE",
"459 -16 CURVE SMOOTH"
);
},
{
closed = 1;
nodes = (
"447 194 OFFCURVE",
"422 237 OFFCURVE",
"438 313 CURVE SMOOTH",
"616 1157 LINE SMOOTH",
"632 1232 OFFCURVE",
"676 1276 OFFCURVE",
"734 1276 CURVE SMOOTH",
"793 1276 OFFCURVE",
"817 1233 OFFCURVE",
"801 1157 CURVE SMOOTH",
"622 313 LINE SMOOTH",
"606 236 OFFCURVE",
"563 194 OFFCURVE",
"504 194 CURVE SMOOTH"
);
}
);
width = 825.89474;
}
);
unicode = 00D8;
},
{
color = 6;
glyphname = OE;
lastChange = "2020-01-27 22:16:01 +0000";
layers = (
{
anchors = (
{
name = bottom;
position = "{480, 0}";
},
{
name = top;
position = "{480, 1470}";
}
);
layerId = "E10EC336-1202-48FF-9A55-15876E80CDFD";
paths = (
{
closed = 1;
nodes = (
"920 0 LINE",
"966 222 LINE",
"688 222 LINE",
"774 626 LINE",
"974 626 LINE",
"1024 862 LINE",
"824 862 LINE",
"906 1248 LINE",
"1184 1248 LINE",
"1232 1470 LINE",
"666 1470 LINE SMOOTH",
"494 1470 OFFCURVE",
"351 1348 OFFCURVE",
"314 1168 CURVE SMOOTH",
"130 302 LINE SMOOTH",
"92 120 OFFCURVE",
"181 0 OFFCURVE",
"354 0 CURVE SMOOTH"
);
},
{
closed = 1;
nodes = (
"350 194 OFFCURVE",
"332 235 OFFCURVE",
"346 302 CURVE SMOOTH",
"530 1168 LINE SMOOTH",
"543 1235 OFFCURVE",
"579 1276 OFFCURVE",
"624 1276 CURVE SMOOTH",
"667 1276 OFFCURVE",
"687 1238 OFFCURVE",
"676 1182 CURVE SMOOTH",
"490 302 LINE SMOOTH",
"477 236 OFFCURVE",
"439 194 OFFCURVE",
"394 194 CURVE SMOOTH"
);
}
);
width = 960;
},
{
anchors = (
{
name = bottom;
position = "{318, 0}";
},
{
name = top;
position = "{318, 1470}";
}
);
layerId = "38BA14EB-08C8-4487-88C1-8F957131FCA1";
paths = (
{
closed = 1;
nodes = (
"510 0 LINE",
"558 222 LINE",
"392 222 LINE",
"478 626 LINE",
"598 626 LINE",
"648 862 LINE",
"528 862 LINE",
"610 1248 LINE",
"776 1248 LINE",
"824 1470 LINE",
"456 1470 LINE SMOOTH",
"324 1470 OFFCURVE",
"234 1367 OFFCURVE",
"192 1168 CURVE SMOOTH",
"8 302 LINE SMOOTH",
"-34 105 OFFCURVE",
"13 0 OFFCURVE",
"142 0 CURVE SMOOTH"
);
},
{
closed = 1;
nodes = (
"161 194 OFFCURVE",
"158 229 OFFCURVE",
"174 302 CURVE SMOOTH",
"358 1168 LINE SMOOTH",
"372 1234 OFFCURVE",
"394 1276 OFFCURVE",
"414 1276 CURVE SMOOTH",
"436 1276 OFFCURVE",
"442 1233 OFFCURVE",
"428 1168 CURVE SMOOTH",
"244 302 LINE SMOOTH",
"230 234 OFFCURVE",
"207 194 OFFCURVE",
"184 194 CURVE SMOOTH"
);
}
);
width = 636;
},
{
anchors = (
{
name = bottom;
position = "{565, 0}";
},
{
name = top;
position = "{565, 1470}";
}
);
layerId = "A5A4D350-C0CB-4C36-867F-06890CC9F434";
paths = (
{
closed = 1;
nodes = (
"1136 0 LINE",
"1181 222 LINE",
"844 222 LINE",
"930 626 LINE",
"1172 626 LINE",
"1222 862 LINE",
"980 862 LINE",
"1062 1248 LINE",
"1399 1248 LINE",
"1447 1470 LINE",
"777 1470 LINE SMOOTH",
"584 1470 OFFCURVE",
"414 1338 OFFCURVE",
"378 1168 CURVE SMOOTH",
"194 302 LINE SMOOTH",
"157 128 OFFCURVE",
"270 0 OFFCURVE",
"466 0 CURVE SMOOTH"
);
},
{
closed = 1;
nodes = (
"447 194 OFFCURVE",
"424 241 OFFCURVE",
"437 302 CURVE SMOOTH",
"620 1168 LINE SMOOTH",
"634 1236 OFFCURVE",
"676 1276 OFFCURVE",
"735 1276 CURVE SMOOTH",
"789 1276 OFFCURVE",
"817 1241 OFFCURVE",
"806 1189 CURVE SMOOTH",
"620 302 LINE SMOOTH",
"606 237 OFFCURVE",
"562 194 OFFCURVE",
"505 194 CURVE SMOOTH"
);
}
);
width = 1130.52632;
}
);
unicode = 0152;
},
{
color = 6;
glyphname = P;
lastChange = "2020-01-27 22:16:01 +0000";
layers = (
{
anchors = (
{
name = bottom;
position = "{352, 0}";
},
{
name = top;
position = "{976, 1470}";
}
);
background = {
paths = (
{
closed = 1;
nodes = (
"296 0 LINE",
"420 588 LINE",
"514 588 OFFCURVE",
"614 614 OFFCURVE",
"700 684 CURVE SMOOTH",
"786 754 OFFCURVE",
"856 862 OFFCURVE",
"894 1030 CURVE SMOOTH",
"932 1198 OFFCURVE",
"906 1308 OFFCURVE",
"848 1378 CURVE SMOOTH",
"790 1448 OFFCURVE",
"702 1470 OFFCURVE",
"608 1470 CURVE SMOOTH",
"392 1470 LINE",
"80 0 LINE"
);
},
{
closed = 1;
nodes = (
"560 1250 LINE",
"626 1250 OFFCURVE",
"666 1232 OFFCURVE",
"682 1198 CURVE",
"698 1160 OFFCURVE",
"692 1104 OFFCURVE",
"674 1022 CURVE SMOOTH",
"656 940 OFFCURVE",
"640 886 OFFCURVE",
"608 854 CURVE",
"578 820 OFFCURVE",
"532 808 OFFCURVE",
"466 808 CURVE"
);
}
);
};
layerId = "E10EC336-1202-48FF-9A55-15876E80CDFD";
paths = (
{
closed = 1;
nodes = (
"296 0 LINE",
"421 588 LINE",
"699 588 OFFCURVE",
"912 842 OFFCURVE",
"912 1175 CURVE SMOOTH",
"912 1367 OFFCURVE",
"805 1470 OFFCURVE",
"608 1470 CURVE SMOOTH",
"392 1470 LINE",
"80 0 LINE"
);
},
{
closed = 1;
nodes = (
"562 1250 LINE",
"654 1250 OFFCURVE",
"692 1219 OFFCURVE",
"692 1143 CURVE SMOOTH",
"692 931 OFFCURVE",
"610 808 OFFCURVE",
"468 808 CURVE"
);
}
);
width = 704;
},
{
anchors = (
{
name = bottom;
position = "{241, 0}";
},
{
name = top;
position = "{553, 1470}";
}
);
background = {
paths = (
{
closed = 1;
nodes = (
"116 0 LINE",
"242 588 LINE",
"302 590 OFFCURVE",
"368 612 OFFCURVE",
"418 672 CURVE SMOOTH",
"476 742 OFFCURVE",
"528 864 OFFCURVE",
"564 1030 CURVE SMOOTH",
"600 1196 OFFCURVE",
"598 1312 OFFCURVE",
"568 1382 CURVE SMOOTH",
"540 1450 OFFCURVE",
"498 1470 OFFCURVE",
"432 1470 CURVE SMOOTH",
"264 1470 LINE",
"-48 0 LINE"
);
},
{
closed = 1;
nodes = (
"384 1254 LINE",
"402 1254 OFFCURVE",
"426 1254 OFFCURVE",
"430 1232 CURVE",
"440 1196 OFFCURVE",
"420 1104 OFFCURVE",
"402 1022 CURVE SMOOTH",
"384 940 OFFCURVE",
"368 864 OFFCURVE",
"346 832 CURVE SMOOTH",
"332 812 OFFCURVE",
"304 808 OFFCURVE",
"288 808 CURVE"
);
}
);
};
layerId = "38BA14EB-08C8-4487-88C1-8F957131FCA1";
paths = (
{
closed = 1;
nodes = (
"116 0 LINE",
"241 588 LINE",
"428 594 OFFCURVE",
"590 901 OFFCURVE",
"590 1249 CURVE SMOOTH",
"590 1395 OFFCURVE",
"536 1470 OFFCURVE",
"430 1470 CURVE SMOOTH",
"262 1470 LINE",
"-50 0 LINE"
);
},
{
closed = 1;
nodes = (
"383 1254 LINE",
"420 1254 OFFCURVE",
"431 1243 OFFCURVE",
"431 1206 CURVE SMOOTH",
"431 1034 OFFCURVE",
"350 808 OFFCURVE",
"288 808 CURVE"
);
}
);
width = 482;
},
{
anchors = (
{
name = bottom;
position = "{410, 0}";
},
{
name = top;
position = "{1199, 1470}";
}
);
layerId = "A5A4D350-C0CB-4C36-867F-06890CC9F434";
paths = (
{
closed = 1;
nodes = (
"391 0 LINE",
"516 588 LINE",
"881 587 OFFCURVE",
"1081 851 OFFCURVE",
"1081 1128 CURVE SMOOTH",
"1081 1355 OFFCURVE",
"947 1470 OFFCURVE",
"702 1470 CURVE SMOOTH",
"460 1470 LINE",
"148 0 LINE"
);
},
{
closed = 1;
nodes = (
"656 1248 LINE",
"792 1248 OFFCURVE",
"829 1206 OFFCURVE",
"829 1081 CURVE SMOOTH",
"829 862 OFFCURVE",
"716 808 OFFCURVE",
"563 808 CURVE"
);
}
);
width = 820.84211;
}
);
unicode = 0050;
},
{
color = 6;
glyphname = Thorn;
lastChange = "2020-01-27 22:16:01 +0000";
layers = (
{
anchors = (
{
name = bottom;
position = "{354, 0}";
},
{
name = top;
position = "{666, 1470}";
}
);
background = {
paths = (
{
closed = 1;
nodes = (
"296 0 LINE",
"370 352 LINE",
"464 352 OFFCURVE",
"564 378 OFFCURVE",
"650 448 CURVE SMOOTH",
"736 518 OFFCURVE",
"806 626 OFFCURVE",
"844 794 CURVE SMOOTH",
"882 962 OFFCURVE",
"856 1072 OFFCURVE",
"798 1142 CURVE SMOOTH",
"740 1212 OFFCURVE",
"652 1234 OFFCURVE",
"558 1234 CURVE SMOOTH",
"556 1234 LINE",
"606 1470 LINE",
"392 1470 LINE",
"80 0 LINE"
);
},
{
closed = 1;
nodes = (
"510 1014 LINE",
"576 1014 OFFCURVE",
"616 996 OFFCURVE",
"632 962 CURVE",
"648 924 OFFCURVE",
"642 868 OFFCURVE",
"624 786 CURVE SMOOTH",
"606 704 OFFCURVE",
"590 650 OFFCURVE",
"558 618 CURVE",
"528 584 OFFCURVE",
"482 572 OFFCURVE",
"416 572 CURVE"
);
}
);
};
layerId = "E10EC336-1202-48FF-9A55-15876E80CDFD";
paths = (
{
closed = 1;
nodes = (
"296 0 LINE",
"371 352 LINE",
"638 352 OFFCURVE",
"862 619 OFFCURVE",
"862 939 CURVE SMOOTH",
"862 1143 OFFCURVE",
"768 1234 OFFCURVE",
"556 1234 CURVE",
"606 1470 LINE",
"392 1470 LINE",
"80 0 LINE"
);
},
{
closed = 1;
nodes = (
"512 1014 LINE",
"627 1014 OFFCURVE",
"641 1002 OFFCURVE",
"641 905 CURVE SMOOTH",
"641 711 OFFCURVE",
"548 572 OFFCURVE",
"418 572 CURVE"
);
}
);
width = 708;
},
{
anchors = (
{
name = bottom;
position = "{242, 0}";
},
{
name = top;
position = "{554, 1470}";
}
);
background = {
paths = (
{
closed = 1;
nodes = (
"116 0 LINE",
"192 352 LINE",
"252 358 OFFCURVE",
"314 390 OFFCURVE",
"366 448 CURVE SMOOTH",
"426 518 OFFCURVE",
"478 628 OFFCURVE",
"514 794 CURVE SMOOTH",
"550 960 OFFCURVE",
"542 1072 OFFCURVE",
"514 1142 CURVE",
"486 1202 OFFCURVE",
"436 1230 OFFCURVE",
"380 1234 CURVE",
"428 1470 LINE",
"264 1470 LINE",
"-48 0 LINE"
);
},
{
closed = 1;
nodes = (
"332 1014 LINE",
"350 1010 OFFCURVE",
"364 998 OFFCURVE",
"368 968 CURVE",
"378 932 OFFCURVE",
"366 868 OFFCURVE",
"348 786 CURVE SMOOTH",
"330 704 OFFCURVE",
"316 644 OFFCURVE",
"294 612 CURVE",
"278 584 OFFCURVE",
"258 576 OFFCURVE",
"238 572 CURVE"
);
}
);
};
layerId = "38BA14EB-08C8-4487-88C1-8F957131FCA1";
paths = (
{
closed = 1;
nodes = (
"116 0 LINE",
"191 352 LINE",
"367 368 OFFCURVE",
"537 685 OFFCURVE",
"537 995 CURVE SMOOTH",
"537 1157 OFFCURVE",
"490 1228 OFFCURVE",
"378 1234 CURVE",
"426 1470 LINE",
"262 1470 LINE",
"-50 0 LINE"
);
},
{
closed = 1;
nodes = (
"332 1014 LINE",
"361 1006 OFFCURVE",
"369 991 OFFCURVE",
"369 941 CURVE SMOOTH",
"369 791 OFFCURVE",
"295 583 OFFCURVE",
"238 572 CURVE"
);
}
);
width = 484;
},
{
anchors = (
{
name = bottom;
position = "{413, 0}";
},
{
name = top;
position = "{725, 1470}";
}
);
layerId = "A5A4D350-C0CB-4C36-867F-06890CC9F434";
paths = (
{
closed = 1;
nodes = (
"391 0 LINE",
"466 352 LINE",
"781 344 OFFCURVE",
"1033 584 OFFCURVE",
"1033 910 CURVE SMOOTH",
"1033 1136 OFFCURVE",
"914 1237 OFFCURVE",
"650 1234 CURVE",
"701 1470 LINE",
"460 1470 LINE",
"148 0 LINE"
);
},
{
closed = 1;
nodes = (
"607 1014 LINE",
"767 1018 OFFCURVE",
"784 1005 OFFCURVE",
"784 896 CURVE SMOOTH",
"784 669 OFFCURVE",
"686 567 OFFCURVE",
"513 572 CURVE"
);
}
);
width = 825.89474;
}
);
unicode = 00DE;
},
{
color = 6;
glyphname = Q;
lastChange = "2020-01-27 22:16:01 +0000";
layers = (
{
anchors = (
{
name = bottom;
position = "{356, 0}";
},
{
name = top;
position = "{668, 1470}";
}
);
background = {
paths = (
{
closed = 1;
nodes = (
"698 72 LINE",
"658 80 OFFCURVE",
"638 100 OFFCURVE",
"624 124 CURVE",
"638 146 OFFCURVE",
"652 166 OFFCURVE",
"662 188 CURVE",
"684 228 OFFCURVE",
"698 266 OFFCURVE",
"706 302 CURVE SMOOTH",
"890 1168 LINE",
"900 1230 OFFCURVE",
"900 1282 OFFCURVE",
"886 1326 CURVE",
"878 1366 OFFCURVE",
"858 1406 OFFCURVE",
"824 1436 CURVE SMOOTH",
"790 1466 OFFCURVE",
"740 1486 OFFCURVE",
"668 1486 CURVE SMOOTH",
"596 1486 OFFCURVE",
"536 1466 OFFCURVE",
"490 1436 CURVE SMOOTH",
"444 1406 OFFCURVE",
"412 1366 OFFCURVE",
"382 1326 CURVE",
"350 1278 OFFCURVE",
"328 1226 OFFCURVE",
"314 1168 CURVE SMOOTH",
"130 302 LINE SMOOTH",
"118 240 OFFCURVE",
"118 188 OFFCURVE",
"132 142 CURVE",
"140 102 OFFCURVE",
"158 64 OFFCURVE",
"192 34 CURVE SMOOTH",
"228 0 OFFCURVE",
"280 -16 OFFCURVE",
"350 -16 CURVE SMOOTH",
"392 -16 OFFCURVE",
"430 -8 OFFCURVE",
"462 2 CURVE",
"486 -60 OFFCURVE",
"538 -112 OFFCURVE",
"660 -112 CURVE"
);
},
{
closed = 1;
nodes = (
"376 194 OFFCURVE",
"364 200 OFFCURVE",
"356 210 CURVE",
"340 232 OFFCURVE",
"336 264 OFFCURVE",
"346 302 CURVE",
"530 1168 LINE SMOOTH",
"534 1188 OFFCURVE",
"540 1206 OFFCURVE",
"548 1222 CURVE SMOOTH",
"562 1248 OFFCURVE",
"586 1276 OFFCURVE",
"624 1276 CURVE SMOOTH",
"642 1276 OFFCURVE",
"656 1270 OFFCURVE",
"664 1260 CURVE",
"678 1238 OFFCURVE",
"682 1208 OFFCURVE",
"674 1168 CURVE SMOOTH",
"490 302 LINE",
"484 278 OFFCURVE",
"476 260 OFFCURVE",
"470 248 CURVE SMOOTH",
"456 218 OFFCURVE",
"432 194 OFFCURVE",
"394 194 CURVE SMOOTH"
);
}
);
};
layerId = "E10EC336-1202-48FF-9A55-15876E80CDFD";
paths = (
{
closed = 1;
nodes = (
"699 72 LINE",
"664 79 OFFCURVE",
"640 96 OFFCURVE",
"624 124 CURVE",
"670 189 OFFCURVE",
"692 238 OFFCURVE",
"706 302 CURVE SMOOTH",
"887 1169 LINE SMOOTH",
"927 1361 OFFCURVE",
"841 1486 OFFCURVE",
"670 1486 CURVE SMOOTH",
"496 1486 OFFCURVE",
"358 1361 OFFCURVE",
"317 1167 CURVE SMOOTH",
"133 301 LINE SMOOTH",
"92 109 OFFCURVE",
"178 -16 OFFCURVE",
"350 -16 CURVE SMOOTH",
"386 -16 OFFCURVE",
"423 -10 OFFCURVE",
"462 2 CURVE",
"493 -75 OFFCURVE",
"558 -112 OFFCURVE",
"660 -112 CURVE"
);
},
{
closed = 1;
nodes = (
"350 194 OFFCURVE",
"332 235 OFFCURVE",
"346 302 CURVE SMOOTH",
"530 1168 LINE SMOOTH",
"544 1235 OFFCURVE",
"580 1276 OFFCURVE",
"625 1276 CURVE SMOOTH",
"670 1276 OFFCURVE",
"688 1236 OFFCURVE",
"674 1168 CURVE SMOOTH",
"490 302 LINE SMOOTH",
"476 236 OFFCURVE",
"439 194 OFFCURVE",
"395 194 CURVE SMOOTH"
);
}
);
width = 712;
},
{
anchors = (
{
name = bottom;
position = "{244, 0}";
},
{
name = top;
position = "{244, 1470}";
}
);
background = {
paths = (
{
closed = 1;
nodes = (
"368 68 LINE",
"350 74 OFFCURVE",
"338 86 OFFCURVE",
"330 104 CURVE",
"330 106 LINE",
"332 104 OFFCURVE",
"330 106 OFFCURVE",
"332 108 CURVE",
"360 160 OFFCURVE",
"386 222 OFFCURVE",
"398 282 CURVE SMOOTH",
"590 1188 LINE SMOOTH",
"616 1308 OFFCURVE",
"614 1486 OFFCURVE",
"454 1486 CURVE SMOOTH",
"304 1486 OFFCURVE",
"228 1340 OFFCURVE",
"196 1188 CURVE SMOOTH",
"4 282 LINE SMOOTH",
"-22 154 OFFCURVE",
"-20 -4 OFFCURVE",
"122 -14 CURVE",
"124 -14 OFFCURVE",
"124 -16 OFFCURVE",
"128 -16 CURVE SMOOTH",
"144 -16 LINE",
"170 -12 LINE",
"176 -12 OFFCURVE",
"182 -10 OFFCURVE",
"188 -8 CURVE",
"190 -8 LINE",
"200 -64 OFFCURVE",
"236 -112 OFFCURVE",
"330 -112 CURVE"
);
},
{
closed = 1;
nodes = (
"164 194 OFFCURVE",
"164 236 OFFCURVE",
"174 282 CURVE SMOOTH",
"366 1188 LINE SMOOTH",
"376 1236 OFFCURVE",
"390 1276 OFFCURVE",
"412 1276 CURVE SMOOTH",
"434 1276 OFFCURVE",
"430 1234 OFFCURVE",
"420 1188 CURVE SMOOTH",
"228 282 LINE SMOOTH",
"220 242 OFFCURVE",
"202 194 OFFCURVE",
"182 194 CURVE SMOOTH"
);
}
);
};
layerId = "38BA14EB-08C8-4487-88C1-8F957131FCA1";
paths = (
{
closed = 1;
nodes = (
"368 68 LINE",
"350 74 OFFCURVE",
"337 86 OFFCURVE",
"329 105 CURVE",
"373 186 OFFCURVE",
"384 215 OFFCURVE",
"398 282 CURVE SMOOTH",
"590 1188 LINE SMOOTH",
"630 1370 OFFCURVE",
"577 1486 OFFCURVE",
"454 1486 CURVE SMOOTH",
"332 1486 OFFCURVE",
"235 1374 OFFCURVE",
"196 1188 CURVE SMOOTH",
"4 282 LINE SMOOTH",
"-33 102 OFFCURVE",
"17 -16 OFFCURVE",
"128 -16 CURVE SMOOTH",
"147 -16 OFFCURVE",
"175 -12 OFFCURVE",
"190 -8 CURVE",
"202 -76 OFFCURVE",
"250 -112 OFFCURVE",
"330 -112 CURVE"
);
},
{
closed = 1;
nodes = (
"166 194 OFFCURVE",
"163 230 OFFCURVE",
"174 282 CURVE SMOOTH",
"366 1188 LINE SMOOTH",
"378 1246 OFFCURVE",
"394 1276 OFFCURVE",
"412 1276 CURVE SMOOTH",
"431 1276 OFFCURVE",
"433 1247 OFFCURVE",
"420 1188 CURVE SMOOTH",
"228 282 LINE SMOOTH",
"218 232 OFFCURVE",
"198 194 OFFCURVE",
"182 194 CURVE SMOOTH"
);
}
);
width = 488;
},
{
anchors = (
{
name = bottom;
position = "{415, 0}";
},
{
name = top;
position = "{891, 1470}";
}
);
layerId = "A5A4D350-C0CB-4C36-867F-06890CC9F434";
paths = (
{
closed = 1;
nodes = (
"873 74 LINE",
"829 82 OFFCURVE",
"799 101 OFFCURVE",
"779 134 CURVE",
"826 191 OFFCURVE",
"855 250 OFFCURVE",
"868 313 CURVE SMOOTH",
"1043 1159 LINE SMOOTH",
"1084 1356 OFFCURVE",
"980 1486 OFFCURVE",
"784 1486 CURVE SMOOTH",
"582 1486 OFFCURVE",
"423 1354 OFFCURVE",
"381 1156 CURVE SMOOTH",
"201 311 LINE SMOOTH",
"159 113 OFFCURVE",
"263 -16 OFFCURVE",
"467 -16 CURVE SMOOTH",
"512 -16 OFFCURVE",
"554 -9 OFFCURVE",
"605 7 CURVE",
"646 -74 OFFCURVE",
"720 -112 OFFCURVE",
"834 -112 CURVE"
);
},
{
closed = 1;
nodes = (
"447 194 OFFCURVE",
"421 238 OFFCURVE",
"437 313 CURVE SMOOTH",
"616 1157 LINE SMOOTH",
"631 1229 OFFCURVE",
"678 1276 OFFCURVE",
"737 1276 CURVE SMOOTH",
"798 1276 OFFCURVE",
"822 1227 OFFCURVE",
"807 1157 CURVE SMOOTH",
"628 313 LINE SMOOTH",
"612 238 OFFCURVE",
"566 194 OFFCURVE",
"507 194 CURVE SMOOTH"
);
}
);
width = 829.89474;
}
);
unicode = 0051;
},
{
color = 6;
glyphname = R;
lastChange = "2020-01-27 22:16:01 +0000";
layers = (
{
anchors = (
{
name = bottom;
position = "{351, 0}";
},
{
name = top;
position = "{673, 1470}";
}
);
background = {
paths = (
{
closed = 1;
nodes = (
"296 0 LINE",
"426 620 LINE",
"484 620 LINE",
"466 0 LINE",
"682 0 LINE",
"694 712 LINE",
"788 768 OFFCURVE",
"854 900 OFFCURVE",
"886 1046 CURVE SMOOTH",
"944 1326 OFFCURVE",
"866 1470 OFFCURVE",
"608 1470 CURVE SMOOTH",
"392 1470 LINE",
"80 0 LINE"
);
},
{
closed = 1;
nodes = (
"562 1256 LINE",
"592 1256 OFFCURVE",
"632 1256 OFFCURVE",
"658 1226 CURVE SMOOTH",
"684 1196 OFFCURVE",
"698 1142 OFFCURVE",
"676 1038 CURVE SMOOTH",
"654 934 OFFCURVE",
"616 882 OFFCURVE",
"578 852 CURVE SMOOTH",
"540 822 OFFCURVE",
"500 820 OFFCURVE",
"470 820 CURVE"
);
}
);
};
layerId = "E10EC336-1202-48FF-9A55-15876E80CDFD";
paths = (
{
closed = 1;
nodes = (
"296 0 LINE",
"428 620 LINE",
"486 620 LINE",
"466 0 LINE",
"682 0 LINE",
"695 712 LINE",
"807 780 OFFCURVE",
"904 1005 OFFCURVE",
"904 1197 CURVE SMOOTH",
"904 1383 OFFCURVE",
"810 1470 OFFCURVE",
"608 1470 CURVE SMOOTH",
"392 1470 LINE",
"80 0 LINE"
);
},
{
closed = 1;
nodes = (
"563 1256 LINE",
"659 1256 OFFCURVE",
"688 1227 OFFCURVE",
"688 1131 CURVE SMOOTH",
"688 960 OFFCURVE",
"590 820 OFFCURVE",
"470 820 CURVE"
);
}
);
width = 722;
},
{
anchors = (
{
name = bottom;
position = "{127, 0}";
},
{
name = top;
position = "{549, 1470}";
}
);
background = {
paths = (
{
closed = 1;
nodes = (
"116 0 LINE",
"254 640 LINE",
"202 0 LINE",
"364 0 LINE",
"414 712 LINE",
"480 774 OFFCURVE",
"532 906 OFFCURVE",
"562 1046 CURVE SMOOTH",
"620 1324 OFFCURVE",
"588 1470 OFFCURVE",
"432 1470 CURVE SMOOTH",
"264 1470 LINE",
"-48 0 LINE"
);
},
{
closed = 1;
nodes = (
"384 1256 LINE",
"394 1256 OFFCURVE",
"416 1258 OFFCURVE",
"426 1236 CURVE SMOOTH",
"436 1212 OFFCURVE",
"424 1146 OFFCURVE",
"402 1038 CURVE SMOOTH",
"380 932 OFFCURVE",
"362 858 OFFCURVE",
"338 832 CURVE SMOOTH",
"324 816 OFFCURVE",
"304 810 OFFCURVE",
"290 810 CURVE"
);
}
);
};
layerId = "38BA14EB-08C8-4487-88C1-8F957131FCA1";
paths = (
{
closed = 1;
nodes = (
"117 0 LINE",
"253 640 LINE",
"254 640 LINE",
"203 0 LINE",
"365 0 LINE",
"414 712 LINE",
"499 793 OFFCURVE",
"589 1076 OFFCURVE",
"589 1263 CURVE SMOOTH",
"589 1403 OFFCURVE",
"538 1470 OFFCURVE",
"431 1470 CURVE SMOOTH",
"263 1470 LINE",
"-49 0 LINE"
);
},
{
closed = 1;
nodes = (
"384 1256 LINE",
"425 1256 OFFCURVE",
"429 1251 OFFCURVE",
"429 1206 CURVE SMOOTH",
"429 1056 OFFCURVE",
"342 810 OFFCURVE",
"289 810 CURVE"
);
}
);
width = 494;
},
{
anchors = (
{
name = bottom;
position = "{469, 0}";
},
{
name = top;
position = "{738, 1470}";
}
);
layerId = "A5A4D350-C0CB-4C36-867F-06890CC9F434";
paths = (
{
closed = 1;
nodes = (
"390 0 LINE",
"520 609 LINE",
"608 609 LINE",
"604 0 LINE",
"849 0 LINE",
"843 712 LINE",
"969 773 OFFCURVE",
"1070 968 OFFCURVE",
"1070 1159 CURVE SMOOTH",
"1070 1470 OFFCURVE",
"800 1470 OFFCURVE",
"701 1470 CURVE SMOOTH",
"460 1470 LINE",
"148 0 LINE"
);
},
{
closed = 1;
nodes = (
"657 1256 LINE",
"779 1256 OFFCURVE",
"824 1217 OFFCURVE",
"824 1094 CURVE SMOOTH",
"824 909 OFFCURVE",
"721 825 OFFCURVE",
"565 825 CURVE"
);
}
);
width = 842;
}
);
unicode = 0052;
},
{
color = 6;
glyphname = S;
lastChange = "2020-01-27 22:16:02 +0000";
layers = (
{
anchors = (
{
name = bottom;
position = "{343, 0}";
},
{
name = top;
position = "{656, 1470}";
}
);
background = {
paths = (
{
closed = 1;
nodes = (
"466 -16 OFFCURVE",
"546 26 OFFCURVE",
"608 96 CURVE SMOOTH",
"670 166 OFFCURVE",
"702 256 OFFCURVE",
"724 354 CURVE SMOOTH",
"742 434 OFFCURVE",
"732 510 OFFCURVE",
"710 584 CURVE SMOOTH",
"688 659 OFFCURVE",
"656 734 OFFCURVE",
"618 808 CURVE SMOOTH",
"587 869 OFFCURVE",
"562 928 OFFCURVE",
"540 984 CURVE SMOOTH",
"518 1040 OFFCURVE",
"510 1092 OFFCURVE",
"520 1142 CURVE SMOOTH",
"537 1228 OFFCURVE",
"568 1286 OFFCURVE",
"624 1288 CURVE SMOOTH",
"658 1288 OFFCURVE",
"674 1260 OFFCURVE",
"680 1220 CURVE SMOOTH",
"686 1178 OFFCURVE",
"676 1124 OFFCURVE",
"666 1076 CURVE",
"882 1096 LINE",
"900 1178 OFFCURVE",
"908 1276 OFFCURVE",
"884 1356 CURVE SMOOTH",
"860 1435 OFFCURVE",
"796 1489 OFFCURVE",
"662 1486 CURVE SMOOTH",
"560 1484 OFFCURVE",
"480 1438 OFFCURVE",
"422 1374 CURVE SMOOTH",
"361 1307 OFFCURVE",
"324 1222 OFFCURVE",
"308 1142 CURVE SMOOTH",
"300 1102 OFFCURVE",
"294 1062 OFFCURVE",
"300 1024 CURVE SMOOTH",
"312 949 OFFCURVE",
"324 872 OFFCURVE",
"358 796 CURVE SMOOTH",
"375 758 OFFCURVE",
"390 724 OFFCURVE",
"406 690 CURVE SMOOTH",
"422 656 OFFCURVE",
"439 624 OFFCURVE",
"452 594 CURVE SMOOTH",
"458 580 OFFCURVE",
"464 564 OFFCURVE",
"470 550 CURVE SMOOTH",
"476 536 OFFCURVE",
"482 520 OFFCURVE",
"488 506 CURVE SMOOTH",
"510 448 OFFCURVE",
"520 392 OFFCURVE",
"510 344 CURVE SMOOTH",
"490 249 OFFCURVE",
"452 182 OFFCURVE",
"388 182 CURVE SMOOTH",
"342 182 OFFCURVE",
"326 214 OFFCURVE",
"320 262 CURVE SMOOTH",
"314 308 OFFCURVE",
"324 370 OFFCURVE",
"338 432 CURVE",
"122 412 LINE",
"100 300 OFFCURVE",
"84 196 OFFCURVE",
"114 116 CURVE SMOOTH",
"140 36 OFFCURVE",
"208 -16 OFFCURVE",
"346 -16 CURVE SMOOTH"
);
}
);
};
layerId = "E10EC336-1202-48FF-9A55-15876E80CDFD";
paths = (
{
closed = 1;
nodes = (
"566 -16 OFFCURVE",
"733 180 OFFCURVE",
"733 436 CURVE SMOOTH",
"733 537 OFFCURVE",
"700 647 OFFCURVE",
"620 808 CURVE SMOOTH",
"545 959 OFFCURVE",
"518 1039 OFFCURVE",
"518 1104 CURVE SMOOTH",
"518 1203 OFFCURVE",
"567 1287 OFFCURVE",
"626 1288 CURVE SMOOTH",
"683 1289 OFFCURVE",
"697 1216 OFFCURVE",
"667 1076 CURVE",
"883 1096 LINE",
"937 1350 OFFCURVE",
"858 1490 OFFCURVE",
"664 1486 CURVE SMOOTH",
"471 1482 OFFCURVE",
"301 1282 OFFCURVE",
"301 1060 CURVE SMOOTH",
"301 964 OFFCURVE",
"331 850 OFFCURVE",
"392 719 CURVE SMOOTH",
"494 499 OFFCURVE",
"515 441 OFFCURVE",
"515 385 CURVE SMOOTH",
"515 277 OFFCURVE",
"456 182 OFFCURVE",
"389 182 CURVE SMOOTH",
"318 182 OFFCURVE",
"303 257 OFFCURVE",
"340 432 CURVE",
"124 412 LINE",
"54 131 OFFCURVE",
"131 -16 OFFCURVE",
"347 -16 CURVE SMOOTH"
);
}
);
width = 686;
},
{
anchors = (
{
name = bottom;
position = "{90, 0}";
},
{
name = top;
position = "{548, 1470}";
}
);
background = {
anchors = (
{
name = bottom;
position = "{236, 0}";
},
{
name = top;
position = "{236, 1470}";
}
);
paths = (
{
closed = 1;
nodes = (
"300 -16 OFFCURVE",
"370 194 OFFCURVE",
"400 334 CURVE SMOOTH",
"432 482 OFFCURVE",
"406 622 OFFCURVE",
"372 796 CURVE SMOOTH",
"346 942 OFFCURVE",
"328 1046 OFFCURVE",
"348 1142 CURVE SMOOTH",
"366 1228 OFFCURVE",
"382 1288 OFFCURVE",
"406 1288 CURVE SMOOTH",
"438 1288 OFFCURVE",
"404 1126 OFFCURVE",
"394 1074 CURVE",
"562 1098 LINE",
"588 1220 OFFCURVE",
"638 1490 OFFCURVE",
"444 1486 CURVE SMOOTH",
"284 1482 OFFCURVE",
"212 1270 OFFCURVE",
"186 1142 CURVE SMOOTH",
"162 1028 OFFCURVE",
"176 882 OFFCURVE",
"196 764 CURVE SMOOTH",
"238 558 OFFCURVE",
"260 448 OFFCURVE",
"234 324 CURVE SMOOTH",
"214 230 OFFCURVE",
"200 182 OFFCURVE",
"170 182 CURVE SMOOTH",
"126 182 OFFCURVE",
"170 388 OFFCURVE",
"180 434 CURVE",
"12 410 LINE",
"-14 276 OFFCURVE",
"-80 -16 OFFCURVE",
"128 -16 CURVE SMOOTH"
);
}
);
};
layerId = "38BA14EB-08C8-4487-88C1-8F957131FCA1";
paths = (
{
closed = 1;
nodes = (
"278 -16 OFFCURVE",
"413 215 OFFCURVE",
"413 473 CURVE SMOOTH",
"413 553 OFFCURVE",
"400 653 OFFCURVE",
"371 796 CURVE SMOOTH",
"347 915 OFFCURVE",
"337 991 OFFCURVE",
"337 1050 CURVE SMOOTH",
"337 1145 OFFCURVE",
"379 1288 OFFCURVE",
"406 1288 CURVE SMOOTH",
"426 1288 OFFCURVE",
"421 1209 OFFCURVE",
"392 1074 CURVE",
"561 1098 LINE",
"614 1348 OFFCURVE",
"571 1489 OFFCURVE",
"444 1486 CURVE SMOOTH",
"299 1483 OFFCURVE",
"171 1254 OFFCURVE",
"171 998 CURVE SMOOTH",
"171 927 OFFCURVE",
"179 845 OFFCURVE",
"194 766 CURVE SMOOTH",
"233 555 OFFCURVE",
"244 482 OFFCURVE",
"244 422 CURVE SMOOTH",
"244 320 OFFCURVE",
"201 182 OFFCURVE",
"169 182 CURVE SMOOTH",
"143 182 OFFCURVE",
"146 287 OFFCURVE",
"178 434 CURVE",
"11 410 LINE",
"-49 126 OFFCURVE",
"-11 -16 OFFCURVE",
"126 -16 CURVE SMOOTH"
);
}
);
width = 472;
},
{
anchors = (
{
name = bottom;
position = "{476, 0}";
},
{
name = top;
position = "{713, 1470}";
}
);
layerId = "A5A4D350-C0CB-4C36-867F-06890CC9F434";
paths = (
{
closed = 1;
nodes = (
"743 -16 OFFCURVE",
"901 185 OFFCURVE",
"901 416 CURVE SMOOTH",
"901 553 OFFCURVE",
"846 654 OFFCURVE",
"751 815 CURVE SMOOTH",
"662 966 OFFCURVE",
"613 1044 OFFCURVE",
"613 1135 CURVE SMOOTH",
"613 1234 OFFCURVE",
"670 1288 OFFCURVE",
"741 1288 CURVE SMOOTH",
"819 1288 OFFCURVE",
"842 1222 OFFCURVE",
"812 1077 CURVE",
"1052 1095 LINE",
"1109 1346 OFFCURVE",
"1002 1497 OFFCURVE",
"780 1486 CURVE SMOOTH",
"552 1475 OFFCURVE",
"369 1299 OFFCURVE",
"369 1087 CURVE SMOOTH",
"369 984 OFFCURVE",
"412 845 OFFCURVE",
"498 695 CURVE SMOOTH",
"639 449 OFFCURVE",
"658 419 OFFCURVE",
"658 362 CURVE SMOOTH",
"658 260 OFFCURVE",
"596 182 OFFCURVE",
"499 182 CURVE SMOOTH",
"409 182 OFFCURVE",
"387 250 OFFCURVE",
"425 431 CURVE",
"183 413 LINE",
"109 142 OFFCURVE",
"203 -16 OFFCURVE",
"457 -16 CURVE SMOOTH"
);
}
);
width = 798.63158;
}
);
leftKerningGroup = S;
unicode = 0053;
},
{
color = 6;
glyphname = T;
lastChange = "2020-01-27 22:14:58 +0000";
layers = (
{
anchors = (
{
name = bottom;
position = "{316, 0}";
},
{
name = center;
position = "{316, 735}";
},
{
name = top;
position = "{686, 1470}";
}
);
layerId = "E10EC336-1202-48FF-9A55-15876E80CDFD";
paths = (
{
closed = 1;
nodes = (
"424 0 LINE",
"688 1248 LINE",
"892 1248 LINE",
"940 1470 LINE",
"316 1470 LINE",
"268 1248 LINE",
"472 1248 LINE",
"208 0 LINE"
);
}
);
width = 632;
},
{
anchors = (
{
name = bottom;
position = "{66, 0}";
},
{
name = center;
position = "{220, 735}";
},
{
name = top;
position = "{508, 1470}";
}
);
layerId = "38BA14EB-08C8-4487-88C1-8F957131FCA1";
paths = (
{
closed = 1;
nodes = (
"192 0 LINE",
"458 1248 LINE",
"580 1248 LINE",
"628 1470 LINE",
"218 1470 LINE",
"170 1248 LINE",
"292 1248 LINE",
"26 0 LINE"
);
}
);
width = 440;
},
{
anchors = (
{
name = bottom;
position = "{448, 0}";
},
{
name = center;
position = "{367, 735}";
},
{
name = top;
position = "{780, 1470}";
}
);
layerId = "A5A4D350-C0CB-4C36-867F-06890CC9F434";
paths = (
{
closed = 1;
nodes = (
"546 0 LINE",
"809 1248 LINE",
"1056 1248 LINE",
"1104 1470 LINE",
"368 1470 LINE",
"320 1248 LINE",
"567 1248 LINE",
"304 0 LINE"
);
}
);
width = 733.05263;
}
);
unicode = 0054;
},
{
color = 6;
glyphname = Tbar;
lastChange = "2020-01-27 22:14:58 +0000";
layers = (
{
layerId = "E10EC336-1202-48FF-9A55-15876E80CDFD";
paths = (
{
closed = 1;
nodes = (
"424 0 LINE",
"624 942 LINE",
"718 942 LINE",
"750 1100 LINE",
"656 1100 LINE",
"688 1248 LINE",
"892 1248 LINE",
"940 1470 LINE",
"316 1470 LINE",
"268 1248 LINE",
"472 1248 LINE",
"440 1100 LINE",
"362 1100 LINE",
"330 942 LINE",
"408 942 LINE",
"208 0 LINE"
);
}
);
width = 632;
},
{
layerId = "38BA14EB-08C8-4487-88C1-8F957131FCA1";
paths = (
{
closed = 1;
nodes = (
"192 0 LINE",
"394 942 LINE",
"450 942 LINE",
"482 1100 LINE",
"426 1100 LINE",
"458 1248 LINE",
"580 1248 LINE",
"628 1470 LINE",
"218 1470 LINE",
"170 1248 LINE",
"292 1248 LINE",
"260 1100 LINE",
"214 1100 LINE",
"182 942 LINE",
"228 942 LINE",
"26 0 LINE"
);
}
);
width = 440;
},
{
layerId = "A5A4D350-C0CB-4C36-867F-06890CC9F434";
paths = (
{
closed = 1;
nodes = (
"546 0 LINE",
"745 942 LINE",
"859 942 LINE",
"891 1100 LINE",
"777 1100 LINE",
"809 1248 LINE",
"1056 1248 LINE",
"1104 1470 LINE",
"368 1470 LINE",
"320 1248 LINE",
"567 1248 LINE",
"535 1100 LINE",
"440 1100 LINE",
"408 942 LINE",
"503 942 LINE",
"304 0 LINE"
);
}
);
width = 733.05263;
}
);
unicode = 0166;
},
{
color = 6;
glyphname = U;
lastChange = "2020-01-27 22:16:02 +0000";
layers = (
{
anchors = (
{
name = bottom;
position = "{366, 0}";
},
{
name = ogonek;
position = "{418, 0}";
},
{
name = top;
position = "{716, 1470}";
},
{
name = topright;
position = "{712, 1470}";
}
);
background = {
paths = (
{
closed = 1;
nodes = (
"432 -16 OFFCURVE",
"490 0 OFFCURVE",
"538 34 CURVE SMOOTH",
"584 64 OFFCURVE",
"618 102 OFFCURVE",
"648 142 CURVE SMOOTH",
"678 188 OFFCURVE",
"702 242 OFFCURVE",
"718 302 CURVE",
"966 1470 LINE",
"750 1470 LINE",
"502 302 LINE SMOOTH",
"496 278 OFFCURVE",
"488 260 OFFCURVE",
"482 248 CURVE SMOOTH",
"468 218 OFFCURVE",
"444 194 OFFCURVE",
"406 194 CURVE SMOOTH",
"388 194 OFFCURVE",
"376 200 OFFCURVE",
"368 210 CURVE SMOOTH",
"352 232 OFFCURVE",
"348 264 OFFCURVE",
"358 302 CURVE SMOOTH",
"606 1470 LINE",
"390 1470 LINE",
"142 302 LINE SMOOTH",
"130 240 OFFCURVE",
"130 188 OFFCURVE",
"144 142 CURVE SMOOTH",
"152 102 OFFCURVE",
"170 64 OFFCURVE",
"204 34 CURVE SMOOTH",
"240 0 OFFCURVE",
"292 -16 OFFCURVE",
"362 -16 CURVE SMOOTH"
);
}
);
};
layerId = "E10EC336-1202-48FF-9A55-15876E80CDFD";
paths = (
{
closed = 1;
nodes = (
"538 -16 OFFCURVE",
"678 110 OFFCURVE",
"718 302 CURVE SMOOTH",
"966 1470 LINE",
"750 1470 LINE",
"502 302 LINE SMOOTH",
"488 235 OFFCURVE",
"452 194 OFFCURVE",
"406 194 CURVE SMOOTH",
"361 194 OFFCURVE",
"344 234 OFFCURVE",
"358 302 CURVE SMOOTH",
"606 1470 LINE",
"390 1470 LINE",
"142 302 LINE SMOOTH",
"101 109 OFFCURVE",
"187 -16 OFFCURVE",
"362 -16 CURVE SMOOTH"
);
}
);
width = 732;
},
{
anchors = (
{
name = bottom;
position = "{250, 0}";
},
{
name = ogonek;
position = "{190, 0}";
},
{
name = top;
position = "{500, 1470}";
},
{
name = topright;
position = "{480, 1470}";
}
);
layerId = "38BA14EB-08C8-4487-88C1-8F957131FCA1";
paths = (
{
closed = 1;
nodes = (
"261 -16 OFFCURVE",
"349 85 OFFCURVE",
"392 282 CURVE SMOOTH",
"644 1470 LINE",
"478 1470 LINE",
"226 282 LINE SMOOTH",
"214 222 OFFCURVE",
"198 194 OFFCURVE",
"178 194 CURVE SMOOTH",
"155 194 OFFCURVE",
"151 219 OFFCURVE",
"164 282 CURVE SMOOTH",
"416 1470 LINE",
"250 1470 LINE",
"0 282 LINE SMOOTH",
"-42 87 OFFCURVE",
"4 -16 OFFCURVE",
"132 -16 CURVE SMOOTH"
);
}
);
width = 500;
},
{
anchors = (
{
name = bottom;
position = "{427, 0}";
},
{
name = ogonek;
position = "{538, 0}";
},
{
name = top;
position = "{830, 1470}";
},
{
name = topright;
position = "{834, 1470}";
}
);
layerId = "A5A4D350-C0CB-4C36-867F-06890CC9F434";
paths = (
{
closed = 1;
nodes = (
"684 -16 OFFCURVE",
"851 123 OFFCURVE",
"891 313 CURVE SMOOTH",
"1135 1470 LINE",
"893 1470 LINE",
"647 313 LINE SMOOTH",
"632 242 OFFCURVE",
"586 194 OFFCURVE",
"526 194 CURVE SMOOTH",
"469 194 OFFCURVE",
"446 242 OFFCURVE",
"461 313 CURVE SMOOTH",
"706 1470 LINE",
"464 1470 LINE",
"217 313 LINE SMOOTH",
"176 121 OFFCURVE",
"283 -16 OFFCURVE",
"483 -16 CURVE SMOOTH"
);
}
);
width = 854.10526;
}
);
unicode = 0055;
},
{
color = 6;
glyphname = V;
lastChange = "2020-01-27 22:14:58 +0000";
layers = (
{
anchors = (
{
name = bottom;
position = "{350, 0}";
},
{
name = top;
position = "{350, 1470}";
}
);
layerId = "E10EC336-1202-48FF-9A55-15876E80CDFD";
paths = (
{
closed = 1;
nodes = (
"458 0 LINE",
"994 1470 LINE",
"784 1470 LINE",
"504 662 LINE",
"482 600 LINE",
"470 600 LINE",
"476 662 LINE",
"540 1470 LINE",
"330 1470 LINE",
"242 0 LINE"
);
}
);
width = 700;
},
{
anchors = (
{
name = bottom;
position = "{240, 0}";
},
{
name = top;
position = "{552, 1470}";
}
);
background = {
paths = (
{
closed = 1;
nodes = (
"212 0 LINE",
"662 1470 LINE",
"500 1470 LINE",
"284 718 LINE",
"388 1470 LINE",
"226 1470 LINE",
"48 0 LINE"
);
}
);
};
layerId = "38BA14EB-08C8-4487-88C1-8F957131FCA1";
paths = (
{
closed = 1;
nodes = (
"212 0 LINE",
"660 1470 LINE",
"498 1470 LINE",
"286 731 LINE",
"284 718 LINE",
"282 718 LINE",
"284 731 LINE",
"386 1470 LINE",
"224 1470 LINE",
"48 0 LINE"
);
}
);
width = 480;
},
{
anchors = (
{
name = bottom;
position = "{408, 0}";
},
{
name = top;
position = "{244, 1470}";
}
);
layerId = "A5A4D350-C0CB-4C36-867F-06890CC9F434";
paths = (
{
closed = 1;
nodes = (
"587 0 LINE",
"1170 1470 LINE",
"935 1470 LINE",
"619 626 LINE",
"586 538 LINE",
"569 538 LINE",
"577 626 LINE",
"621 1470 LINE",
"386 1470 LINE",
"344 0 LINE"
);
}
);
width = 815.78947;
}
);
leftKerningGroup = V;
unicode = 0056;
},
{
color = 6;
glyphname = W;
lastChange = "2020-01-27 22:14:58 +0000";
layers = (
{
anchors = (
{
name = bottom;
position = "{496, 0}";
},
{
name = top;
position = "{866, 1470}";
}
);
layerId = "E10EC336-1202-48FF-9A55-15876E80CDFD";
paths = (
{
closed = 1;
nodes = (
"370 0 LINE",
"616 696 LINE",
"648 782 LINE",
"656 782 LINE",
"648 696 LINE",
"602 0 LINE",
"770 0 LINE",
"1280 1470 LINE",
"1080 1470 LINE",
"832 706 LINE",
"816 658 LINE",
"800 658 LINE",
"806 706 LINE",
"876 1470 LINE",
"720 1470 LINE",
"466 706 LINE",
"448 658 LINE",
"432 658 LINE",
"440 706 LINE",
"516 1470 LINE",
"316 1470 LINE",
"202 0 LINE"
);
}
);
width = 992;
},
{
anchors = (
{
name = bottom;
position = "{224, 0}";
},
{
name = top;
position = "{596, 1470}";
}
);
background = {
paths = (
{
closed = 1;
nodes = (
"168 0 LINE",
"374 704 LINE",
"280 0 LINE",
"422 0 LINE",
"844 1470 LINE",
"688 1470 LINE",
"502 782 LINE",
"598 1470 LINE",
"476 1470 LINE",
"280 780 LINE",
"386 1470 LINE",
"230 1470 LINE",
"28 0 LINE"
);
}
);
};
layerId = "38BA14EB-08C8-4487-88C1-8F957131FCA1";
paths = (
{
closed = 1;
nodes = (
"168 0 LINE",
"371 694 LINE",
"373 704 LINE",
"375 704 LINE",
"373 694 LINE",
"280 0 LINE",
"422 0 LINE",
"842 1470 LINE",
"686 1470 LINE",
"504 797 LINE",
"501 781 LINE",
"499 781 LINE",
"502 797 LINE",
"596 1470 LINE",
"474 1470 LINE",
"284 797 LINE",
"281 781 LINE",
"279 781 LINE",
"282 797 LINE",
"384 1470 LINE",
"228 1470 LINE",
"28 0 LINE"
);
}
);
width = 668;
},
{
anchors = (
{
name = bottom;
position = "{639, 0}";
},
{
name = top;
position = "{1008, 1470}";
}
);
layerId = "A5A4D350-C0CB-4C36-867F-06890CC9F434";
paths = (
{
closed = 1;
nodes = (
"476 0 LINE",
"745 697 LINE",
"793 823 LINE",
"804 823 LINE",
"793 697 LINE",
"771 0 LINE",
"953 0 LINE",
"1511 1470 LINE",
"1287 1470 LINE",
"1005 658 LINE",
"982 593 LINE",
"958 593 LINE",
"966 658 LINE",
"1023 1470 LINE",
"849 1470 LINE",
"562 658 LINE",
"536 593 LINE",
"513 593 LINE",
"523 658 LINE",
"585 1470 LINE",
"362 1470 LINE",
"294 0 LINE"
);
}
);
width = 1162.52632;
}
);
leftKerningGroup = V;
unicode = 0057;
},
{
color = 6;
glyphname = X;
lastChange = "2020-01-27 22:14:58 +0000";
layers = (
{
anchors = (
{
name = bottom;
position = "{360, 0}";
},
{
name = top;
position = "{360, 1470}";
}
);
layerId = "E10EC336-1202-48FF-9A55-15876E80CDFD";
paths = (
{
closed = 1;
nodes = (
"228 0 LINE",
"444 438 LINE",
"452 456 LINE",
"460 456 LINE",
"460 438 LINE",
"492 0 LINE",
"704 0 LINE",
"630 772 LINE",
"1012 1470 LINE",
"800 1470 LINE",
"602 1098 LINE",
"592 1080 LINE",
"584 1080 LINE",
"582 1098 LINE",
"544 1470 LINE",
"332 1470 LINE",
"418 772 LINE",
"16 0 LINE"
);
}
);
width = 720;
},
{
anchors = (
{
name = bottom;
position = "{246, 0}";
},
{
name = top;
position = "{558, 1470}";
}
);
background = {
paths = (
{
closed = 1;
nodes = (
"74 0 LINE",
"224 406 LINE",
"198 0 LINE",
"360 0 LINE",
"376 520 LINE SMOOTH",
"378 604 OFFCURVE",
"382 690 OFFCURVE",
"384 772 CURVE",
"672 1470 LINE",
"508 1470 LINE",
"464 1352 OFFCURVE",
"416 1232 OFFCURVE",
"374 1114 CURVE",
"392 1470 LINE",
"228 1470 LINE",
"224 1120 LINE SMOOTH",
"220 1010 OFFCURVE",
"220 882 OFFCURVE",
"220 772 CURVE",
"-86 0 LINE"
);
}
);
};
layerId = "38BA14EB-08C8-4487-88C1-8F957131FCA1";
paths = (
{
closed = 1;
nodes = (
"74 0 LINE",
"220 400 LINE",
"221 406 LINE",
"223 406 LINE",
"222 400 LINE",
"198 0 LINE",
"360 0 LINE",
"382 772 LINE",
"670 1470 LINE",
"506 1470 LINE",
"375 1120 LINE",
"373 1110 LINE",
"371 1110 LINE",
"373 1120 LINE",
"390 1470 LINE",
"226 1470 LINE",
"218 772 LINE",
"-88 0 LINE"
);
}
);
width = 492;
},
{
anchors = (
{
name = bottom;
position = "{420, 0}";
},
{
name = top;
position = "{256, 1470}";
}
);
layerId = "A5A4D350-C0CB-4C36-867F-06890CC9F434";
paths = (
{
closed = 1;
nodes = (
"309 0 LINE",
"562 458 LINE",
"574 482 LINE",
"585 482 LINE",
"585 458 LINE",
"647 0 LINE",
"885 0 LINE",
"761 772 LINE",
"1192 1470 LINE",
"955 1470 LINE",
"721 1086 LINE",
"707 1064 LINE",
"696 1064 LINE",
"692 1086 LINE",
"625 1470 LINE",
"388 1470 LINE",
"523 772 LINE",
"71 0 LINE"
);
}
);
width = 840;
}
);
unicode = 0058;
},
{
color = 6;
glyphname = Y;
lastChange = "2020-01-27 22:14:58 +0000";
layers = (
{
anchors = (
{
name = bottom;
position = "{342, 0}";
},
{
name = top;
position = "{699, 1470}";
},
{
name = topleft;
position = "{20, 1470}";
}
);
layerId = "E10EC336-1202-48FF-9A55-15876E80CDFD";
paths = (
{
closed = 1;
nodes = (
"450 0 LINE",
"582 626 LINE",
"982 1470 LINE",
"770 1470 LINE",
"562 1000 LINE",
"552 986 LINE",
"548 986 LINE",
"546 1000 LINE",
"538 1470 LINE",
"326 1470 LINE",
"366 626 LINE",
"234 0 LINE"
);
}
);
width = 684;
},
{
anchors = (
{
name = bottom;
position = "{139, 0}";
},
{
name = top;
position = "{508, 1470}";
},
{
name = topleft;
position = "{332, 1470}";
}
);
background = {
paths = (
{
closed = 1;
nodes = (
"220 0 LINE",
"354 626 LINE",
"672 1470 LINE",
"508 1470 LINE",
"458 1326 OFFCURVE",
"406 1184 OFFCURVE",
"358 1042 CURVE",
"394 1470 LINE",
"230 1470 LINE",
"188 626 LINE",
"54 0 LINE"
);
}
);
};
layerId = "38BA14EB-08C8-4487-88C1-8F957131FCA1";
paths = (
{
closed = 1;
nodes = (
"220 0 LINE",
"353 626 LINE",
"670 1470 LINE",
"506 1470 LINE",
"360 1050 LINE",
"358 1040 LINE",
"356 1040 LINE",
"358 1050 LINE",
"392 1470 LINE",
"228 1470 LINE",
"187 626 LINE",
"54 0 LINE"
);
}
);
width = 470;
},
{
anchors = (
{
name = bottom;
position = "{449, 0}";
},
{
name = top;
position = "{800, 1470}";
},
{
name = topleft;
position = "{-144, 1470}";
}
);
layerId = "A5A4D350-C0CB-4C36-867F-06890CC9F434";
paths = (
{
closed = 1;
nodes = (
"571 0 LINE",
"703 626 LINE",
"1146 1470 LINE",
"909 1470 LINE",
"668 974 LINE",
"654 958 LINE",
"649 958 LINE",
"645 974 LINE",
"615 1470 LINE",
"378 1470 LINE",
"460 626 LINE",
"329 0 LINE"
);
}
);
width = 796.63158;
}
);
leftKerningGroup = Y;
rightKerningGroup = Y;
unicode = 0059;
},
{
color = 6;
glyphname = Z;
lastChange = "2020-01-27 22:14:58 +0000";
layers = (
{
anchors = (
{
name = bottom;
position = "{306, 0}";
},
{
name = center;
position = "{306, 735}";
},
{
name = top;
position = "{744, 1470}";
}
);
layerId = "E10EC336-1202-48FF-9A55-15876E80CDFD";
paths = (
{
closed = 1;
nodes = (
"592 0 LINE",
"636 214 LINE",
"292 214 LINE",
"858 1256 LINE",
"904 1470 LINE",
"380 1470 LINE",
"334 1256 LINE",
"624 1256 LINE",
"68 232 LINE",
"20 0 LINE"
);
}
);
width = 612;
},
{
anchors = (
{
name = bottom;
position = "{102, 0}";
},
{
name = center;
position = "{214, 735}";
},
{
name = top;
position = "{479, 1470}";
}
);
layerId = "38BA14EB-08C8-4487-88C1-8F957131FCA1";
paths = (
{
closed = 1;
nodes = (
"294 0 LINE",
"340 214 LINE",
"132 214 LINE",
"562 1256 LINE",
"608 1470 LINE",
"256 1470 LINE",
"210 1256 LINE",
"384 1256 LINE",
"-34 232 LINE",
"-84 0 LINE"
);
}
);
width = 428;
},
{
anchors = (
{
name = bottom;
position = "{413, 0}";
},
{
name = center;
position = "{354, 735}";
},
{
name = top;
position = "{883, 1470}";
}
);
layerId = "A5A4D350-C0CB-4C36-867F-06890CC9F434";
paths = (
{
closed = 1;
nodes = (
"749 0 LINE",
"792 214 LINE",
"376 214 LINE",
"1014 1256 LINE",
"1060 1470 LINE",
"445 1470 LINE",
"399 1256 LINE",
"750 1256 LINE",
"122 232 LINE",
"75 0 LINE"
);
}
);
width = 708.84211;
}
);
unicode = 005A;
},
{
color = 6;
glyphname = a;
lastChange = "2020-01-27 22:16:02 +0000";
layers = (
{
anchors = (
{
name = bottom;
position = "{333, 0}";
},
{
name = ogonek;
position = "{602, 0}";
},
{
name = top;
position = "{651, 1094}";
}
);
background = {
paths = (
{
closed = 1;
nodes = (
"275 -16 OFFCURVE",
"337 19 OFFCURVE",
"390 88 CURVE",
"404 88 LINE",
"406 66 OFFCURVE",
"406 10 OFFCURVE",
"405 0 CURVE",
"602 0 LINE",
"605 70 OFFCURVE",
"612 113 OFFCURVE",
"628 190 CURVE SMOOTH",
"770 862 LINE SMOOTH",
"800 1002 OFFCURVE",
"715 1110 OFFCURVE",
"576 1110 CURVE SMOOTH",
"421 1110 OFFCURVE",
"270 977 OFFCURVE",
"242 818 CURVE SMOOTH",
"234 772 LINE",
"436 772 LINE",
"451 879 OFFCURVE",
"482 934 OFFCURVE",
"528 934 CURVE SMOOTH",
"565 934 OFFCURVE",
"576 901 OFFCURVE",
"562 834 CURVE SMOOTH",
"537 718 LINE",
"507 691 OFFCURVE",
"473 670 OFFCURVE",
"426 648 CURVE SMOOTH",
"213 548 OFFCURVE",
"89 369 OFFCURVE",
"89 151 CURVE SMOOTH",
"89 33 OFFCURVE",
"123 -16 OFFCURVE",
"206 -16 CURVE SMOOTH"
);
},
{
closed = 1;
nodes = (
"404 -2 OFFCURVE",
"405 -2 OFFCURVE",
"405 0 CURVE",
"404 0 LINE"
);
},
{
closed = 1;
nodes = (
"311 182 OFFCURVE",
"300 199 OFFCURVE",
"300 246 CURVE SMOOTH",
"300 362 OFFCURVE",
"387 482 OFFCURVE",
"497 527 CURVE",
"438 248 LINE SMOOTH",
"431 216 OFFCURVE",
"381 182 OFFCURVE",
"340 182 CURVE SMOOTH"
);
}
);
};
layerId = "E10EC336-1202-48FF-9A55-15876E80CDFD";
paths = (
{
closed = 1;
nodes = (
"273 -16 OFFCURVE",
"338 20 OFFCURVE",
"391 88 CURVE",
"405 88 LINE",
"397 42 OFFCURVE",
"396 12 OFFCURVE",
"404 0 CURVE",
"602 0 LINE",
"610 90 OFFCURVE",
"615 120 OFFCURVE",
"629 190 CURVE SMOOTH",
"772 862 LINE SMOOTH",
"801 1000 OFFCURVE",
"715 1110 OFFCURVE",
"578 1110 CURVE SMOOTH",
"423 1110 OFFCURVE",
"269 977 OFFCURVE",
"242 818 CURVE SMOOTH",
"234 772 LINE",
"436 772 LINE",
"464 900 OFFCURVE",
"483 934 OFFCURVE",
"527 934 CURVE SMOOTH",
"567 934 OFFCURVE",
"574 910 OFFCURVE",
"559 825 CURVE SMOOTH",
"546 751 LINE SMOOTH",
"539 714 OFFCURVE",
"505 689 OFFCURVE",
"367 617 CURVE SMOOTH",
"196 528 OFFCURVE",
"88 346 OFFCURVE",
"88 148 CURVE SMOOTH",
"88 34 OFFCURVE",
"123 -16 OFFCURVE",
"204 -16 CURVE SMOOTH"
);
},
{
closed = 1;
nodes = (
"312 182 OFFCURVE",
"300 198 OFFCURVE",
"300 237 CURVE SMOOTH",
"300 349 OFFCURVE",
"391 481 OFFCURVE",
"498 526 CURVE",
"439 248 LINE SMOOTH",
"432 214 OFFCURVE",
"384 182 OFFCURVE",
"341 182 CURVE SMOOTH"
);
}
);
width = 666;
},
{
anchors = (
{
name = bottom;
position = "{160, 0}";
},
{
name = ogonek;
position = "{324, 0}";
},
{
name = top;
position = "{422, 1110}";
}
);
background = {
paths = (
{
closed = 1;
nodes = (
"322 726 LINE",
"310 704 OFFCURVE",
"272 670 OFFCURVE",
"240 648 CURVE SMOOTH",
"108 552 OFFCURVE",
"38 406 OFFCURVE",
"4 254 CURVE SMOOTH",
"-8 186 OFFCURVE",
"-44 -16 OFFCURVE",
"62 -16 CURVE SMOOTH",
"110 -16 OFFCURVE",
"156 24 OFFCURVE",
"182 66 CURVE",
"180 54 OFFCURVE",
"188 10 OFFCURVE",
"190 0 CURVE",
"324 0 LINE",
"330 48 OFFCURVE",
"334 92 OFFCURVE",
"356 190 CURVE SMOOTH",
"498 862 LINE",
"524 964 OFFCURVE",
"504 1110 OFFCURVE",
"382 1110 CURVE SMOOTH",
"250 1110 OFFCURVE",
"166 960 OFFCURVE",
"140 838 CURVE SMOOTH",
"126 772 LINE",
"278 772 LINE",
"292 844 LINE SMOOTH",
"298 872 OFFCURVE",
"320 936 OFFCURVE",
"340 936 CURVE SMOOTH",
"358 936 OFFCURVE",
"354 878 OFFCURVE",
"346 844 CURVE SMOOTH"
);
},
{
closed = 1;
nodes = (
"218 248 LINE SMOOTH",
"210 210 OFFCURVE",
"186 174 OFFCURVE",
"160 174 CURVE SMOOTH",
"132 174 OFFCURVE",
"148 250 OFFCURVE",
"150 256 CURVE SMOOTH",
"168 344 OFFCURVE",
"226 456 OFFCURVE",
"272 502 CURVE"
);
}
);
};
layerId = "38BA14EB-08C8-4487-88C1-8F957131FCA1";
paths = (
{
closed = 1;
nodes = (
"102 -16 OFFCURVE",
"153 20 OFFCURVE",
"181 66 CURVE",
"183 66 LINE",
"182 45 OFFCURVE",
"185 13 OFFCURVE",
"190 0 CURVE",
"324 0 LINE",
"335 80 OFFCURVE",
"341 116 OFFCURVE",
"356 190 CURVE SMOOTH",
"498 862 LINE SMOOTH",
"529 1006 OFFCURVE",
"480 1110 OFFCURVE",
"382 1110 CURVE SMOOTH",
"277 1110 OFFCURVE",
"173 993 OFFCURVE",
"140 838 CURVE SMOOTH",
"126 772 LINE",
"278 772 LINE",
"300 880 OFFCURVE",
"321 936 OFFCURVE",
"340 936 CURVE SMOOTH",
"355 936 OFFCURVE",
"357 900 OFFCURVE",
"346 844 CURVE SMOOTH",
"326 744 LINE SMOOTH",
"321 719 OFFCURVE",
"289 683 OFFCURVE",
"240 648 CURVE SMOOTH",
"118 560 OFFCURVE",
"39 428 OFFCURVE",
"4 254 CURVE SMOOTH",
"-29 92 OFFCURVE",
"-6 -16 OFFCURVE",
"62 -16 CURVE SMOOTH"
);
},
{
closed = 1;
nodes = (
"141 174 OFFCURVE",
"138 202 OFFCURVE",
"150 256 CURVE SMOOTH",
"169 338 OFFCURVE",
"227 454 OFFCURVE",
"272 502 CURVE",
"218 248 LINE SMOOTH",
"210 211 OFFCURVE",
"181 174 OFFCURVE",
"160 174 CURVE SMOOTH"
);
}
);
width = 460;
},
{
anchors = (
{
name = bottom;
position = "{424, 0}";
},
{
name = ogonek;
position = "{748, 0}";
},
{
name = top;
position = "{772, 1086}";
}
);
layerId = "A5A4D350-C0CB-4C36-867F-06890CC9F434";
paths = (
{
closed = 1;
nodes = (
"367 -16 OFFCURVE",
"433 19 OFFCURVE",
"502 100 CURVE",
"522 100 LINE",
"510 40 OFFCURVE",
"507 11 OFFCURVE",
"517 0 CURVE",
"748 0 LINE",
"756 109 OFFCURVE",
"761 134 OFFCURVE",
"773 190 CURVE SMOOTH",
"916 862 LINE SMOOTH",
"945 997 OFFCURVE",
"839 1110 OFFCURVE",
"681 1110 CURVE SMOOTH",
"500 1110 OFFCURVE",
"319 969 OFFCURVE",
"296 807 CURVE SMOOTH",
"291 772 LINE",
"519 772 LINE",
"550 911 OFFCURVE",
"568 933 OFFCURVE",
"622 933 CURVE SMOOTH",
"691 933 OFFCURVE",
"685 893 OFFCURVE",
"672 815 CURVE SMOOTH",
"662 755 LINE SMOOTH",
"655 711 OFFCURVE",
"652 710 OFFCURVE",
"434 602 CURVE SMOOTH",
"203 488 OFFCURVE",
"112 268 OFFCURVE",
"135 92 CURVE SMOOTH",
"143 31 OFFCURVE",
"162 -16 OFFCURVE",
"272 -16 CURVE SMOOTH"
);
},
{
closed = 1;
nodes = (
"394 186 OFFCURVE",
"383 202 OFFCURVE",
"380 228 CURVE SMOOTH",
"366 351 OFFCURVE",
"477 495 OFFCURVE",
"617 539 CURVE",
"555 248 LINE SMOOTH",
"548 216 OFFCURVE",
"491 186 OFFCURVE",
"435 186 CURVE SMOOTH"
);
}
);
width = 774.42105;
}
);
leftKerningGroup = a;
rightKerningGroup = a;
unicode = 0061;
},
{
color = 6;
glyphname = ae;
lastChange = "2020-01-27 22:16:02 +0000";
layers = (
{
anchors = (
{
name = bottom;
position = "{439, 0}";
},
{
name = top;
position = "{715, 1094}";
}
);
background = {
paths = (
{
closed = 1;
nodes = (
"294 -16 OFFCURVE",
"378 40 OFFCURVE",
"448 112 CURVE",
"470 46 OFFCURVE",
"520 -16 OFFCURVE",
"642 -16 CURVE SMOOTH",
"708 -16 OFFCURVE",
"760 -2 OFFCURVE",
"802 28 CURVE SMOOTH",
"888 86 OFFCURVE",
"934 160 OFFCURVE",
"964 266 CURVE",
"990 392 LINE",
"802 392 LINE",
"776 272 LINE SMOOTH",
"772 250 OFFCURVE",
"766 230 OFFCURVE",
"756 216 CURVE",
"742 186 OFFCURVE",
"720 162 OFFCURVE",
"682 162 CURVE SMOOTH",
"664 162 OFFCURVE",
"650 168 OFFCURVE",
"642 178 CURVE",
"628 202 OFFCURVE",
"624 234 OFFCURVE",
"630 272 CURVE",
"682 510 LINE",
"1016 510 LINE",
"1082 828 LINE SMOOTH",
"1092 882 OFFCURVE",
"1090 926 OFFCURVE",
"1080 968 CURVE SMOOTH",
"1072 1002 OFFCURVE",
"1056 1040 OFFCURVE",
"1024 1066 CURVE SMOOTH",
"992 1092 OFFCURVE",
"946 1110 OFFCURVE",
"882 1110 CURVE SMOOTH",
"812 1110 OFFCURVE",
"760 1090 OFFCURVE",
"714 1060 CURVE",
"680 1094 OFFCURVE",
"634 1110 OFFCURVE",
"576 1110 CURVE SMOOTH",
"498 1110 OFFCURVE",
"426 1078 OFFCURVE",
"364 1024 CURVE SMOOTH",
"306 970 OFFCURVE",
"260 898 OFFCURVE",
"242 818 CURVE",
"234 772 LINE",
"436 772 LINE",
"438 780 OFFCURVE",
"438 788 OFFCURVE",
"440 798 CURVE",
"442 806 OFFCURVE",
"444 814 OFFCURVE",
"446 824 CURVE",
"452 842 OFFCURVE",
"456 860 OFFCURVE",
"462 876 CURVE",
"476 908 OFFCURVE",
"494 934 OFFCURVE",
"528 934 CURVE SMOOTH",
"552 934 OFFCURVE",
"566 922 OFFCURVE",
"570 900 CURVE",
"572 878 OFFCURVE",
"568 852 OFFCURVE",
"562 834 CURVE",
"536 714 LINE",
"522 692 OFFCURVE",
"482 674 OFFCURVE",
"426 648 CURVE SMOOTH",
"372 622 OFFCURVE",
"304 586 OFFCURVE",
"242 524 CURVE SMOOTH",
"180 462 OFFCURVE",
"126 376 OFFCURVE",
"100 254 CURVE SMOOTH",
"76 140 OFFCURVE",
"90 72 OFFCURVE",
"116 34 CURVE",
"140 -6 OFFCURVE",
"180 -16 OFFCURVE",
"206 -16 CURVE SMOOTH"
);
},
{
closed = 1;
nodes = (
"316 182 OFFCURVE",
"308 200 OFFCURVE",
"302 224 CURVE",
"300 246 OFFCURVE",
"300 266 OFFCURVE",
"306 284 CURVE",
"328 388 OFFCURVE",
"388 486 OFFCURVE",
"498 528 CURVE",
"438 248 LINE SMOOTH",
"430 210 OFFCURVE",
"386 182 OFFCURVE",
"340 182 CURVE SMOOTH"
);
},
{
closed = 1;
nodes = (
"748 822 LINE SMOOTH",
"754 846 OFFCURVE",
"762 864 OFFCURVE",
"770 878 CURVE SMOOTH",
"786 908 OFFCURVE",
"808 934 OFFCURVE",
"846 934 CURVE SMOOTH",
"864 934 OFFCURVE",
"878 928 OFFCURVE",
"886 918 CURVE",
"902 894 OFFCURVE",
"902 864 OFFCURVE",
"894 822 CURVE SMOOTH",
"860 668 LINE",
"714 668 LINE"
);
}
);
};
layerId = "E10EC336-1202-48FF-9A55-15876E80CDFD";
paths = (
{
closed = 1;
nodes = (
"277 -16 OFFCURVE",
"370 33 OFFCURVE",
"450 112 CURVE",
"475 27 OFFCURVE",
"540 -16 OFFCURVE",
"643 -16 CURVE SMOOTH",
"804 -16 OFFCURVE",
"927 93 OFFCURVE",
"964 266 CURVE SMOOTH",
"991 392 LINE",
"803 392 LINE",
"778 272 LINE SMOOTH",
"764 204 OFFCURVE",
"728 162 OFFCURVE",
"682 162 CURVE SMOOTH",
"638 162 OFFCURVE",
"618 205 OFFCURVE",
"632 272 CURVE SMOOTH",
"682 510 LINE",
"1016 510 LINE",
"1084 828 LINE SMOOTH",
"1120 997 OFFCURVE",
"1039 1110 OFFCURVE",
"884 1110 CURVE SMOOTH",
"823 1110 OFFCURVE",
"763 1092 OFFCURVE",
"715 1060 CURVE",
"679 1093 OFFCURVE",
"633 1110 OFFCURVE",
"578 1110 CURVE SMOOTH",
"427 1110 OFFCURVE",
"279 981 OFFCURVE",
"244 818 CURVE SMOOTH",
"234 772 LINE",
"436 772 LINE",
"447 824 LINE SMOOTH",
"464 904 OFFCURVE",
"486 934 OFFCURVE",
"529 934 CURVE SMOOTH",
"569 934 OFFCURVE",
"578 908 OFFCURVE",
"563 834 CURVE SMOOTH",
"539 721 LINE SMOOTH",
"523 648 OFFCURVE",
"89 601 OFFCURVE",
"89 143 CURVE SMOOTH",
"89 40 OFFCURVE",
"131 -16 OFFCURVE",
"207 -16 CURVE SMOOTH"
);
},
{
closed = 1;
nodes = (
"314 182 OFFCURVE",
"300 199 OFFCURVE",
"300 233 CURVE SMOOTH",
"300 354 OFFCURVE",
"388 485 OFFCURVE",
"498 528 CURVE",
"439 248 LINE SMOOTH",
"432 216 OFFCURVE",
"382 182 OFFCURVE",
"341 182 CURVE SMOOTH"
);
},
{
closed = 1;
nodes = (
"749 822 LINE SMOOTH",
"764 890 OFFCURVE",
"802 934 OFFCURVE",
"847 934 CURVE SMOOTH",
"893 934 OFFCURVE",
"910 893 OFFCURVE",
"895 822 CURVE SMOOTH",
"862 668 LINE",
"716 668 LINE"
);
}
);
width = 967;
},
{
anchors = (
{
name = bottom;
position = "{233, 0}";
},
{
name = top;
position = "{326, 1094}";
}
);
background = {
paths = (
{
closed = 1;
nodes = (
"145 -16 OFFCURVE",
"201 6 OFFCURVE",
"233 38 CURVE",
"252 2 OFFCURVE",
"288 -16 OFFCURVE",
"339 -16 CURVE SMOOTH",
"468 -16 OFFCURVE",
"555 77 OFFCURVE",
"593 254 CURVE SMOOTH",
"623 392 LINE",
"473 392 LINE",
"447 272 LINE SMOOTH",
"433 205 OFFCURVE",
"409 162 OFFCURVE",
"387 162 CURVE SMOOTH",
"377 162 OFFCURVE",
"371 178 OFFCURVE",
"371 206 CURVE SMOOTH",
"371 223 OFFCURVE",
"373 246 OFFCURVE",
"379 272 CURVE SMOOTH",
"431 510 LINE",
"649 510 LINE",
"717 836 LINE SMOOTH",
"726 881 OFFCURVE",
"731 920 OFFCURVE",
"731 953 CURVE SMOOTH",
"731 1059 OFFCURVE",
"684 1110 OFFCURVE",
"587 1110 CURVE SMOOTH",
"547 1110 OFFCURVE",
"511 1096 OFFCURVE",
"471 1066 CURVE",
"449 1095 OFFCURVE",
"417 1110 OFFCURVE",
"379 1110 CURVE SMOOTH",
"272 1110 OFFCURVE",
"171 997 OFFCURVE",
"137 838 CURVE SMOOTH",
"123 772 LINE",
"275 772 LINE",
"289 844 LINE SMOOTH",
"298 891 OFFCURVE",
"323 936 OFFCURVE",
"337 936 CURVE SMOOTH",
"345 936 OFFCURVE",
"349 921 OFFCURVE",
"349 899 CURVE SMOOTH",
"349 883 OFFCURVE",
"347 864 OFFCURVE",
"343 844 CURVE SMOOTH",
"319 726 LINE",
"308 706 OFFCURVE",
"273 673 OFFCURVE",
"237 648 CURVE SMOOTH",
"93 549 OFFCURVE",
"-11 328 OFFCURVE",
"-11 153 CURVE SMOOTH",
"-11 51 OFFCURVE",
"31 -16 OFFCURVE",
"95 -16 CURVE SMOOTH"
);
},
{
closed = 1;
nodes = (
"147 174 OFFCURVE",
"141 194 OFFCURVE",
"141 218 CURVE SMOOTH",
"141 275 OFFCURVE",
"219 452 OFFCURVE",
"269 502 CURVE",
"215 248 LINE SMOOTH",
"206 206 OFFCURVE",
"185 174 OFFCURVE",
"157 174 CURVE SMOOTH"
);
},
{
closed = 1;
nodes = (
"497 822 LINE SMOOTH",
"511 885 OFFCURVE",
"532 934 OFFCURVE",
"555 934 CURVE SMOOTH",
"568 934 OFFCURVE",
"574 920 OFFCURVE",
"574 893 CURVE SMOOTH",
"574 875 OFFCURVE",
"571 852 OFFCURVE",
"565 822 CURVE SMOOTH",
"531 668 LINE",
"463 668 LINE"
);
}
);
};
layerId = "38BA14EB-08C8-4487-88C1-8F957131FCA1";
paths = (
{
closed = 1;
nodes = (
"145 -16 OFFCURVE",
"201 6 OFFCURVE",
"233 38 CURVE",
"252 2 OFFCURVE",
"288 -16 OFFCURVE",
"339 -16 CURVE SMOOTH",
"468 -16 OFFCURVE",
"555 77 OFFCURVE",
"593 254 CURVE SMOOTH",
"623 392 LINE",
"473 392 LINE",
"447 272 LINE SMOOTH",
"433 206 OFFCURVE",
"409 162 OFFCURVE",
"387 162 CURVE SMOOTH",
"370 162 OFFCURVE",
"367 213 OFFCURVE",
"379 272 CURVE SMOOTH",
"431 510 LINE",
"649 510 LINE",
"717 836 LINE SMOOTH",
"755 1016 OFFCURVE",
"710 1110 OFFCURVE",
"587 1110 CURVE SMOOTH",
"543 1110 OFFCURVE",
"516 1099 OFFCURVE",
"471 1066 CURVE",
"449 1095 OFFCURVE",
"418 1110 OFFCURVE",
"379 1110 CURVE SMOOTH",
"272 1110 OFFCURVE",
"171 996 OFFCURVE",
"137 838 CURVE SMOOTH",
"123 772 LINE",
"275 772 LINE",
"289 844 LINE SMOOTH",
"298 888 OFFCURVE",
"323 936 OFFCURVE",
"337 936 CURVE SMOOTH",
"351 936 OFFCURVE",
"353 894 OFFCURVE",
"343 844 CURVE SMOOTH",
"319 726 LINE SMOOTH",
"307 669 OFFCURVE",
"2 537 OFFCURVE",
"-11 153 CURVE SMOOTH",
"-14 51 OFFCURVE",
"31 -16 OFFCURVE",
"95 -16 CURVE SMOOTH"
);
},
{
closed = 1;
nodes = (
"148 174 OFFCURVE",
"141 193 OFFCURVE",
"141 218 CURVE SMOOTH",
"141 277 OFFCURVE",
"221 454 OFFCURVE",
"269 502 CURVE",
"215 248 LINE SMOOTH",
"205 202 OFFCURVE",
"183 174 OFFCURVE",
"157 174 CURVE SMOOTH"
);
},
{
closed = 1;
nodes = (
"497 822 LINE SMOOTH",
"512 893 OFFCURVE",
"533 934 OFFCURVE",
"555 934 CURVE SMOOTH",
"576 934 OFFCURVE",
"580 892 OFFCURVE",
"565 822 CURVE SMOOTH",
"531 668 LINE",
"463 668 LINE"
);
}
);
width = 653;
},
{
anchors = (
{
name = bottom;
position = "{547, 0}";
},
{
name = top;
position = "{920, 1094}";
}
);
layerId = "A5A4D350-C0CB-4C36-867F-06890CC9F434";
paths = (
{
closed = 1;
nodes = (
"348 -16 OFFCURVE",
"459 47 OFFCURVE",
"564 151 CURVE",
"592 40 OFFCURVE",
"674 -16 OFFCURVE",
"801 -16 CURVE SMOOTH",
"993 -16 OFFCURVE",
"1125 113 OFFCURVE",
"1159 272 CURVE SMOOTH",
"1185 392 LINE",
"977 392 LINE",
"952 272 LINE SMOOTH",
"938 203 OFFCURVE",
"896 162 OFFCURVE",
"837 162 CURVE SMOOTH",
"779 162 OFFCURVE",
"750 201 OFFCURVE",
"765 272 CURVE SMOOTH",
"814 510 LINE",
"1209 510 LINE",
"1277 824 LINE SMOOTH",
"1312 987 OFFCURVE",
"1212 1110 OFFCURVE",
"1040 1110 CURVE SMOOTH",
"970 1110 OFFCURVE",
"893 1088 OFFCURVE",
"843 1057 CURVE",
"800 1092 OFFCURVE",
"746 1110 OFFCURVE",
"683 1110 CURVE SMOOTH",
"509 1110 OFFCURVE",
"338 973 OFFCURVE",
"300 807 CURVE SMOOTH",
"292 772 LINE",
"521 772 LINE",
"530 813 LINE SMOOTH",
"545 881 OFFCURVE",
"556 933 OFFCURVE",
"630 933 CURVE SMOOTH",
"698 933 OFFCURVE",
"691 890 OFFCURVE",
"678 829 CURVE SMOOTH",
"655 718 LINE SMOOTH",
"639 642 OFFCURVE",
"128 622 OFFCURVE",
"142 138 CURVE SMOOTH",
"144 81 OFFCURVE",
"154 -16 OFFCURVE",
"261 -16 CURVE SMOOTH"
);
},
{
closed = 1;
nodes = (
"398 186 OFFCURVE",
"384 202 OFFCURVE",
"384 254 CURVE SMOOTH",
"384 397 OFFCURVE",
"490 508 OFFCURVE",
"619 542 CURVE",
"557 248 LINE SMOOTH",
"552 223 OFFCURVE",
"489 186 OFFCURVE",
"434 186 CURVE SMOOTH"
);
},
{
closed = 1;
nodes = (
"882 822 LINE SMOOTH",
"896 888 OFFCURVE",
"943 934 OFFCURVE",
"1004 934 CURVE SMOOTH",
"1060 934 OFFCURVE",
"1084 894 OFFCURVE",
"1069 822 CURVE SMOOTH",
"1036 668 LINE",
"849 668 LINE"
);
}
);
width = 1132.26316;
}
);
unicode = 00E6;
},
{
color = 6;
glyphname = b;
lastChange = "2020-01-27 22:16:02 +0000";
layers = (
{
anchors = (
{
name = bottom;
position = "{335, 0}";
},
{
name = top;
position = "{706, 1470}";
}
);
background = {
paths = (
{
closed = 1;
nodes = (
"494 -16 OFFCURVE",
"536 16 OFFCURVE",
"574 58 CURVE",
"606 98 OFFCURVE",
"630 152 OFFCURVE",
"640 198 CURVE SMOOTH",
"788 896 LINE SMOOTH",
"798 942 OFFCURVE",
"796 996 OFFCURVE",
"782 1038 CURVE",
"764 1078 OFFCURVE",
"732 1110 OFFCURVE",
"676 1110 CURVE SMOOTH",
"656 1110 OFFCURVE",
"636 1106 OFFCURVE",
"618 1096 CURVE",
"572 1078 OFFCURVE",
"540 1054 OFFCURVE",
"498 1022 CURVE",
"594 1470 LINE",
"392 1470 LINE",
"80 0 LINE",
"282 0 LINE",
"296 72 LINE",
"310 56 OFFCURVE",
"324 42 OFFCURVE",
"338 28 CURVE",
"364 6 OFFCURVE",
"400 -16 OFFCURVE",
"438 -16 CURVE SMOOTH"
);
},
{
closed = 1;
nodes = (
"348 174 OFFCURVE",
"324 202 OFFCURVE",
"332 240 CURVE SMOOTH",
"462 854 LINE",
"470 886 OFFCURVE",
"506 920 OFFCURVE",
"536 920 CURVE SMOOTH",
"566 920 OFFCURVE",
"584 892 OFFCURVE",
"576 854 CURVE SMOOTH",
"446 240 LINE SMOOTH",
"438 202 OFFCURVE",
"408 174 OFFCURVE",
"378 174 CURVE SMOOTH"
);
}
);
};
layerId = "E10EC336-1202-48FF-9A55-15876E80CDFD";
paths = (
{
closed = 1;
nodes = (
"525 -16 OFFCURVE",
"614 78 OFFCURVE",
"640 198 CURVE SMOOTH",
"788 896 LINE SMOOTH",
"814 1016 OFFCURVE",
"765 1110 OFFCURVE",
"676 1110 CURVE SMOOTH",
"632 1110 OFFCURVE",
"583 1087 OFFCURVE",
"498 1021 CURVE",
"594 1470 LINE",
"392 1470 LINE",
"80 0 LINE",
"282 0 LINE",
"296 72 LINE",
"351 9 OFFCURVE",
"393 -16 OFFCURVE",
"438 -16 CURVE SMOOTH"
);
},
{
closed = 1;
nodes = (
"346 174 OFFCURVE",
"325 204 OFFCURVE",
"332 240 CURVE SMOOTH",
"462 854 LINE SMOOTH",
"470 888 OFFCURVE",
"506 920 OFFCURVE",
"536 920 CURVE SMOOTH",
"566 920 OFFCURVE",
"584 890 OFFCURVE",
"576 854 CURVE SMOOTH",
"446 240 LINE SMOOTH",
"438 202 OFFCURVE",
"409 174 OFFCURVE",
"378 174 CURVE SMOOTH"
);
}
);
width = 670;
},
{
anchors = (
{
name = bottom;
position = "{138, 0}";
},
{
name = top;
position = "{507, 1470}";
}
);
layerId = "38BA14EB-08C8-4487-88C1-8F957131FCA1";
paths = (
{
closed = 1;
nodes = (
"280 -16 OFFCURVE",
"321 47 OFFCURVE",
"356 198 CURVE SMOOTH",
"504 896 LINE SMOOTH",
"531 1015 OFFCURVE",
"497 1110 OFFCURVE",
"428 1110 CURVE SMOOTH",
"390 1110 OFFCURVE",
"348 1081 OFFCURVE",
"333 1050 CURVE",
"422 1470 LINE",
"264 1470 LINE",
"-46 0 LINE",
"110 0 LINE",
"122 61 LINE",
"132 21 OFFCURVE",
"174 -16 OFFCURVE",
"220 -16 CURVE SMOOTH"
);
},
{
closed = 1;
nodes = (
"156 174 OFFCURVE",
"151 204 OFFCURVE",
"162 250 CURVE SMOOTH",
"294 862 LINE SMOOTH",
"302 903 OFFCURVE",
"320 934 OFFCURVE",
"336 934 CURVE SMOOTH",
"353 934 OFFCURVE",
"359 903 OFFCURVE",
"350 862 CURVE SMOOTH",
"218 250 LINE SMOOTH",
"209 203 OFFCURVE",
"192 174 OFFCURVE",
"174 174 CURVE SMOOTH"
);
}
);
width = 462;
},
{
anchors = (
{
name = bottom;
position = "{439, 0}";
},
{
name = top;
position = "{811, 1470}";
}
);
layerId = "A5A4D350-C0CB-4C36-867F-06890CC9F434";
paths = (
{
closed = 1;
nodes = (
"654 -16 OFFCURVE",
"767 94 OFFCURVE",
"789 198 CURVE SMOOTH",
"937 896 LINE SMOOTH",
"963 1017 OFFCURVE",
"906 1110 OFFCURVE",
"807 1110 CURVE SMOOTH",
"759 1110 OFFCURVE",
"707 1090 OFFCURVE",
"585 1006 CURVE",
"685 1470 LINE",
"459 1470 LINE",
"146 0 LINE",
"373 0 LINE",
"388 78 LINE",
"466 3 OFFCURVE",
"508 -16 OFFCURVE",
"553 -16 CURVE SMOOTH"
);
},
{
closed = 1;
nodes = (
"443 174 OFFCURVE",
"416 207 OFFCURVE",
"422 235 CURVE SMOOTH",
"551 850 LINE SMOOTH",
"557 880 OFFCURVE",
"604 913 OFFCURVE",
"641 913 CURVE SMOOTH",
"678 913 OFFCURVE",
"702 883 OFFCURVE",
"695 850 CURVE SMOOTH",
"566 235 LINE SMOOTH",
"559 201 OFFCURVE",
"523 174 OFFCURVE",
"485 174 CURVE SMOOTH"
);
}
);
width = 779.47368;
}
);
rightKerningGroup = b;
unicode = 0062;
},
{
color = 6;
glyphname = c;
lastChange = "2020-01-27 22:16:02 +0000";
layers = (
{
anchors = (
{
name = bottom;
position = "{275, 0}";
},
{
name = top;
position = "{626, 1110}";
}
);
background = {
paths = (
{
closed = 1;
nodes = (
"318 252 LINE SMOOTH",
"310 212 OFFCURVE",
"302 164 OFFCURVE",
"356 164 CURVE SMOOTH",
"402 164 OFFCURVE",
"418 186 OFFCURVE",
"432 252 CURVE SMOOTH",
"464 404 LINE",
"666 404 LINE",
"644 298 LINE SMOOTH",
"618 176 OFFCURVE",
"580 98 OFFCURVE",
"526 50 CURVE SMOOTH",
"472 2 OFFCURVE",
"404 -16 OFFCURVE",
"318 -16 CURVE SMOOTH",
"246 -16 OFFCURVE",
"186 4 OFFCURVE",
"148 54 CURVE",
"114 104 OFFCURVE",
"102 186 OFFCURVE",
"128 308 CURVE SMOOTH",
"230 786 LINE SMOOTH",
"256 908 OFFCURVE",
"302 990 OFFCURVE",
"358 1040 CURVE SMOOTH",
"414 1090 OFFCURVE",
"484 1110 OFFCURVE",
"556 1110 CURVE SMOOTH",
"642 1110 OFFCURVE",
"704 1092 OFFCURVE",
"736 1044 CURVE SMOOTH",
"770 996 OFFCURVE",
"776 918 OFFCURVE",
"750 796 CURVE SMOOTH",
"732 710 LINE",
"530 710 LINE",
"558 842 LINE SMOOTH",
"572 908 OFFCURVE",
"564 930 OFFCURVE",
"518 930 CURVE SMOOTH",
"464 930 OFFCURVE",
"452 882 OFFCURVE",
"444 842 CURVE SMOOTH"
);
}
);
};
layerId = "E10EC336-1202-48FF-9A55-15876E80CDFD";
paths = (
{
closed = 1;
nodes = (
"496 -16 OFFCURVE",
"598 83 OFFCURVE",
"644 298 CURVE SMOOTH",
"666 404 LINE",
"464 404 LINE",
"432 252 LINE SMOOTH",
"419 188 OFFCURVE",
"398 164 OFFCURVE",
"356 164 CURVE SMOOTH",
"313 164 OFFCURVE",
"304 185 OFFCURVE",
"318 252 CURVE SMOOTH",
"444 842 LINE SMOOTH",
"457 908 OFFCURVE",
"475 930 OFFCURVE",
"518 930 CURVE SMOOTH",
"560 930 OFFCURVE",
"571 906 OFFCURVE",
"558 842 CURVE SMOOTH",
"530 710 LINE",
"732 710 LINE",
"750 796 LINE SMOOTH",
"796 1010 OFFCURVE",
"734 1110 OFFCURVE",
"556 1110 CURVE SMOOTH",
"377 1110 OFFCURVE",
"278 1012 OFFCURVE",
"230 786 CURVE SMOOTH",
"128 308 LINE SMOOTH",
"80 82 OFFCURVE",
"137 -16 OFFCURVE",
"318 -16 CURVE SMOOTH"
);
}
);
width = 630;
},
{
anchors = (
{
name = bottom;
position = "{90, 2}";
},
{
name = top;
position = "{432, 1110}";
}
);
layerId = "38BA14EB-08C8-4487-88C1-8F957131FCA1";
paths = (
{
closed = 1;
nodes = (
"265 -16 OFFCURVE",
"348 82 OFFCURVE",
"392 278 CURVE SMOOTH",
"418 404 LINE",
"266 404 LINE",
"234 252 LINE SMOOTH",
"222 197 OFFCURVE",
"204 166 OFFCURVE",
"184 166 CURVE SMOOTH",
"165 166 OFFCURVE",
"161 197 OFFCURVE",
"172 252 CURVE SMOOTH",
"300 854 LINE SMOOTH",
"309 900 OFFCURVE",
"331 934 OFFCURVE",
"350 934 CURVE SMOOTH",
"368 934 OFFCURVE",
"373 905 OFFCURVE",
"362 854 CURVE SMOOTH",
"332 710 LINE",
"484 710 LINE",
"506 816 LINE SMOOTH",
"548 1013 OFFCURVE",
"506 1110 OFFCURVE",
"382 1110 CURVE SMOOTH",
"259 1110 OFFCURVE",
"182 1017 OFFCURVE",
"132 806 CURVE SMOOTH",
"22 288 LINE SMOOTH",
"-19 78 OFFCURVE",
"17 -16 OFFCURVE",
"140 -16 CURVE SMOOTH"
);
}
);
width = 438;
},
{
anchors = (
{
name = bottom;
position = "{372, -1}";
},
{
name = top;
position = "{728, 1110}";
}
);
layerId = "A5A4D350-C0CB-4C36-867F-06890CC9F434";
paths = (
{
closed = 1;
nodes = (
"706 -16 OFFCURVE",
"756 208 OFFCURVE",
"777 309 CURVE SMOOTH",
"797 404 LINE",
"568 404 LINE",
"537 252 LINE SMOOTH",
"528 208 OFFCURVE",
"518 163 OFFCURVE",
"445 163 CURVE SMOOTH",
"377 163 OFFCURVE",
"384 202 OFFCURVE",
"395 252 CURVE SMOOTH",
"519 836 LINE SMOOTH",
"531 892 OFFCURVE",
"539 928 OFFCURVE",
"604 928 CURVE SMOOTH",
"676 928 OFFCURVE",
"672 885 OFFCURVE",
"661 836 CURVE SMOOTH",
"634 710 LINE",
"863 710 LINE",
"879 785 LINE SMOOTH",
"899 878 OFFCURVE",
"946 1110 OFFCURVE",
"648 1110 CURVE SMOOTH",
"357 1110 OFFCURVE",
"305 888 OFFCURVE",
"281 775 CURVE SMOOTH",
"183 319 LINE SMOOTH",
"159 209 OFFCURVE",
"114 -16 OFFCURVE",
"410 -16 CURVE SMOOTH"
);
}
);
width = 731.05263;
}
);
leftKerningGroup = c;
rightKerningGroup = c;
unicode = 0063;
},
{
color = 6;
glyphname = d;
lastChange = "2020-01-27 22:16:02 +0000";
layers = (
{
anchors = (
{
name = bottom;
position = "{335, 0}";
},
{
name = center;
position = "{335, 547}";
},
{
name = top;
position = "{675, 1470}";
},
{
name = topright;
position = "{902, 1470}";
}
);
background = {
paths = (
{
closed = 1;
nodes = (
"590 0 LINE",
"388 0 LINE",
"402 72 LINE",
"362 40 OFFCURVE",
"326 16 OFFCURVE",
"284 -2 CURVE",
"264 -12 OFFCURVE",
"244 -16 OFFCURVE",
"224 -16 CURVE SMOOTH",
"168 -16 OFFCURVE",
"136 16 OFFCURVE",
"122 58 CURVE",
"104 98 OFFCURVE",
"104 152 OFFCURVE",
"114 198 CURVE SMOOTH",
"262 896 LINE SMOOTH",
"272 942 OFFCURVE",
"292 996 OFFCURVE",
"330 1038 CURVE",
"362 1078 OFFCURVE",
"406 1110 OFFCURVE",
"462 1110 CURVE SMOOTH",
"500 1110 OFFCURVE",
"536 1088 OFFCURVE",
"562 1066 CURVE",
"576 1052 OFFCURVE",
"590 1038 OFFCURVE",
"604 1022 CURVE",
"700 1470 LINE",
"902 1470 LINE"
);
},
{
closed = 1;
nodes = (
"568 854 LINE",
"576 886 OFFCURVE",
"552 920 OFFCURVE",
"522 920 CURVE SMOOTH",
"492 920 OFFCURVE",
"462 892 OFFCURVE",
"454 854 CURVE SMOOTH",
"324 240 LINE SMOOTH",
"316 202 OFFCURVE",
"334 174 OFFCURVE",
"364 174 CURVE SMOOTH",
"394 174 OFFCURVE",
"430 202 OFFCURVE",
"438 240 CURVE SMOOTH"
);
}
);
};
layerId = "E10EC336-1202-48FF-9A55-15876E80CDFD";
paths = (
{
closed = 1;
nodes = (
"270 -16 OFFCURVE",
"325 11 OFFCURVE",
"402 72 CURVE",
"388 0 LINE",
"590 0 LINE",
"902 1470 LINE",
"700 1470 LINE",
"604 1022 LINE",
"550 1084 OFFCURVE",
"508 1110 OFFCURVE",
"462 1110 CURVE SMOOTH",
"375 1110 OFFCURVE",
"289 1018 OFFCURVE",
"262 896 CURVE SMOOTH",
"114 198 LINE SMOOTH",
"89 80 OFFCURVE",
"138 -16 OFFCURVE",
"224 -16 CURVE SMOOTH"
);
},
{
closed = 1;
nodes = (
"333 174 OFFCURVE",
"316 203 OFFCURVE",
"324 240 CURVE SMOOTH",
"454 854 LINE SMOOTH",
"462 891 OFFCURVE",
"492 920 OFFCURVE",
"522 920 CURVE SMOOTH",
"553 920 OFFCURVE",
"576 887 OFFCURVE",
"568 854 CURVE SMOOTH",
"438 240 LINE SMOOTH",
"431 205 OFFCURVE",
"396 174 OFFCURVE",
"364 174 CURVE SMOOTH"
);
}
);
width = 670;
},
{
anchors = (
{
name = bottom;
position = "{231, 0}";
},
{
name = center;
position = "{231, 547}";
},
{
name = top;
position = "{509, 1470}";
},
{
name = topright;
position = "{638, 1470}";
}
);
layerId = "38BA14EB-08C8-4487-88C1-8F957131FCA1";
paths = (
{
closed = 1;
nodes = (
"100 -16 OFFCURVE",
"158 24 OFFCURVE",
"180 62 CURVE",
"168 0 LINE",
"326 0 LINE",
"638 1470 LINE",
"480 1470 LINE",
"392 1055 LINE",
"380 1088 OFFCURVE",
"354 1110 OFFCURVE",
"322 1110 CURVE SMOOTH",
"254 1110 OFFCURVE",
"179 1014 OFFCURVE",
"154 896 CURVE SMOOTH",
"11 213 LINE SMOOTH",
"-18 74 OFFCURVE",
"1 -16 OFFCURVE",
"61 -16 CURVE SMOOTH"
);
},
{
closed = 1;
nodes = (
"158 174 OFFCURVE",
"154 203 OFFCURVE",
"164 250 CURVE SMOOTH",
"296 862 LINE SMOOTH",
"305 905 OFFCURVE",
"322 934 OFFCURVE",
"338 934 CURVE SMOOTH",
"354 934 OFFCURVE",
"360 904 OFFCURVE",
"352 862 CURVE SMOOTH",
"220 250 LINE SMOOTH",
"210 203 OFFCURVE",
"193 174 OFFCURVE",
"176 174 CURVE SMOOTH"
);
}
);
width = 462;
},
{
anchors = (
{
name = bottom;
position = "{390, 0}";
},
{
name = center;
position = "{390, 547}";
},
{
name = top;
position = "{762, 1470}";
},
{
name = topright;
position = "{1041, 1470}";
}
);
layerId = "A5A4D350-C0CB-4C36-867F-06890CC9F434";
paths = (
{
closed = 1;
nodes = (
"359 -16 OFFCURVE",
"413 4 OFFCURVE",
"519 77 CURVE",
"504 0 LINE",
"729 0 LINE",
"1041 1470 LINE",
"816 1470 LINE",
"716 1005 LINE",
"639 1082 OFFCURVE",
"589 1110 OFFCURVE",
"535 1110 CURVE SMOOTH",
"438 1110 OFFCURVE",
"347 1020 OFFCURVE",
"320 896 CURVE SMOOTH",
"168 190 LINE SMOOTH",
"145 83 OFFCURVE",
"210 -16 OFFCURVE",
"310 -16 CURVE SMOOTH"
);
},
{
closed = 1;
nodes = (
"425 174 OFFCURVE",
"401 203 OFFCURVE",
"408 235 CURVE SMOOTH",
"537 850 LINE SMOOTH",
"544 884 OFFCURVE",
"581 913 OFFCURVE",
"619 913 CURVE SMOOTH",
"658 913 OFFCURVE",
"689 878 OFFCURVE",
"683 850 CURVE SMOOTH",
"553 235 LINE SMOOTH",
"547 206 OFFCURVE",
"503 174 OFFCURVE",
"463 174 CURVE SMOOTH"
);
}
);
width = 779.47368;
}
);
leftKerningGroup = d;
unicode = 0064;
},
{
color = 6;
glyphname = eth;
lastChange = "2020-01-27 22:15:29 +0000";
layers = (
{
background = {
paths = (
{
closed = 1;
nodes = (
"394 -16 OFFCURVE",
"446 -2 OFFCURVE",
"488 28 CURVE SMOOTH",
"574 86 OFFCURVE",
"618 160 OFFCURVE",
"648 266 CURVE",
"784 906 LINE SMOOTH",
"826 1106 OFFCURVE",
"796 1246 OFFCURVE",
"754 1342 CURVE",
"870 1428 LINE",
"830 1492 LINE",
"722 1412 LINE",
"718 1418 OFFCURVE",
"714 1426 OFFCURVE",
"708 1436 CURVE",
"706 1438 OFFCURVE",
"704 1442 OFFCURVE",
"702 1446 CURVE",
"700 1448 OFFCURVE",
"696 1452 OFFCURVE",
"694 1454 CURVE",
"682 1472 LINE",
"556 1374 LINE",
"556 1368 OFFCURVE",
"558 1364 OFFCURVE",
"564 1358 CURVE",
"566 1352 OFFCURVE",
"570 1346 OFFCURVE",
"574 1338 CURVE",
"576 1330 OFFCURVE",
"580 1320 OFFCURVE",
"586 1310 CURVE",
"470 1224 LINE",
"510 1162 LINE",
"604 1232 LINE",
"618 1178 OFFCURVE",
"620 1112 OFFCURVE",
"612 1034 CURVE",
"566 1080 OFFCURVE",
"522 1110 OFFCURVE",
"476 1110 CURVE SMOOTH",
"388 1110 OFFCURVE",
"336 1052 OFFCURVE",
"304 990 CURVE SMOOTH",
"270 926 OFFCURVE",
"254 856 OFFCURVE",
"252 838 CURVE",
"130 272 LINE",
"122 222 OFFCURVE",
"122 174 OFFCURVE",
"132 128 CURVE SMOOTH",
"140 90 OFFCURVE",
"156 58 OFFCURVE",
"188 30 CURVE SMOOTH",
"218 2 OFFCURVE",
"264 -16 OFFCURVE",
"328 -16 CURVE SMOOTH"
);
},
{
closed = 1;
nodes = (
"348 162 OFFCURVE",
"334 168 OFFCURVE",
"326 178 CURVE",
"312 202 OFFCURVE",
"310 234 OFFCURVE",
"320 272 CURVE",
"438 822 LINE",
"440 844 OFFCURVE",
"446 862 OFFCURVE",
"456 878 CURVE",
"470 908 OFFCURVE",
"492 934 OFFCURVE",
"530 934 CURVE SMOOTH",
"548 934 OFFCURVE",
"562 928 OFFCURVE",
"570 918 CURVE",
"584 896 OFFCURVE",
"586 864 OFFCURVE",
"576 822 CURVE SMOOTH",
"458 272 LINE",
"456 250 OFFCURVE",
"450 232 OFFCURVE",
"440 216 CURVE",
"426 186 OFFCURVE",
"404 162 OFFCURVE",
"366 162 CURVE SMOOTH"
);
}
);
};
layerId = "E10EC336-1202-48FF-9A55-15876E80CDFD";
paths = (
{
closed = 1;
nodes = (
"487 -16 OFFCURVE",
"612 94 OFFCURVE",
"649 266 CURVE SMOOTH",
"785 906 LINE SMOOTH",
"819 1068 OFFCURVE",
"810 1217 OFFCURVE",
"755 1342 CURVE",
"872 1428 LINE",
"831 1492 LINE",
"722 1412 LINE",
"713 1430 OFFCURVE",
"697 1454 OFFCURVE",
"683 1472 CURVE",
"556 1374 LINE",
"571 1345 OFFCURVE",
"577 1331 OFFCURVE",
"587 1310 CURVE",
"470 1224 LINE",
"511 1162 LINE",
"606 1232 LINE",
"619 1178 OFFCURVE",
"620 1107 OFFCURVE",
"614 1034 CURVE",
"560 1090 OFFCURVE",
"524 1110 OFFCURVE",
"478 1110 CURVE SMOOTH",
"373 1110 OFFCURVE",
"288 1007 OFFCURVE",
"252 838 CURVE SMOOTH",
"132 272 LINE SMOOTH",
"94 91 OFFCURVE",
"173 -16 OFFCURVE",
"329 -16 CURVE SMOOTH"
);
},
{
closed = 1;
nodes = (
"324 162 OFFCURVE",
"307 202 OFFCURVE",
"322 272 CURVE SMOOTH",
"439 822 LINE SMOOTH",
"454 894 OFFCURVE",
"489 934 OFFCURVE",
"531 934 CURVE SMOOTH",
"574 934 OFFCURVE",
"592 893 OFFCURVE",
"577 822 CURVE SMOOTH",
"460 272 LINE SMOOTH",
"445 203 OFFCURVE",
"411 162 OFFCURVE",
"367 162 CURVE SMOOTH"
);
}
);
width = 658;
},
{
background = {
paths = (
{
closed = 1;
nodes = (
"222 -16 OFFCURVE",
"326 104 OFFCURVE",
"360 266 CURVE SMOOTH",
"496 906 LINE SMOOTH",
"526 1048 OFFCURVE",
"529 1192 OFFCURVE",
"504 1342 CURVE",
"578 1428 LINE",
"554 1516 LINE",
"482 1436 LINE",
"480 1448 OFFCURVE",
"472 1479 OFFCURVE",
"464 1502 CURVE",
"354 1374 LINE",
"363 1356 OFFCURVE",
"369 1336 OFFCURVE",
"372 1314 CURVE",
"290 1224 LINE",
"316 1138 LINE",
"370 1200 LINE",
"370 1156 OFFCURVE",
"368 1107 OFFCURVE",
"364 1076 CURVE",
"344 1098 OFFCURVE",
"322 1110 OFFCURVE",
"302 1110 CURVE SMOOTH",
"219 1110 OFFCURVE",
"152 1012 OFFCURVE",
"115 838 CURVE SMOOTH",
"-4 272 LINE SMOOTH",
"-41 97 OFFCURVE",
"6 -16 OFFCURVE",
"116 -16 CURVE SMOOTH"
);
},
{
closed = 1;
nodes = (
"130 162 OFFCURVE",
"127 199 OFFCURVE",
"139 252 CURVE SMOOTH",
"265 842 LINE SMOOTH",
"274 882 OFFCURVE",
"294 934 OFFCURVE",
"318 934 CURVE SMOOTH",
"342 934 OFFCURVE",
"344 897 OFFCURVE",
"332 842 CURVE SMOOTH",
"207 252 LINE SMOOTH",
"199 214 OFFCURVE",
"178 162 OFFCURVE",
"154 162 CURVE SMOOTH"
);
}
);
};
layerId = "38BA14EB-08C8-4487-88C1-8F957131FCA1";
paths = (
{
closed = 1;
nodes = (
"226 -16 OFFCURVE",
"326 101 OFFCURVE",
"361 266 CURVE SMOOTH",
"497 906 LINE SMOOTH",
"526 1045 OFFCURVE",
"529 1187 OFFCURVE",
"505 1342 CURVE",
"580 1428 LINE",
"554 1516 LINE",
"483 1436 LINE",
"483 1442 OFFCURVE",
"474 1476 OFFCURVE",
"465 1502 CURVE",
"354 1374 LINE",
"360 1364 OFFCURVE",
"370 1332 OFFCURVE",
"373 1314 CURVE",
"290 1224 LINE",
"316 1138 LINE",
"395 1225 LINE",
"400 1195 OFFCURVE",
"400 1123 OFFCURVE",
"393 1062 CURVE",
"366 1093 OFFCURVE",
"335 1110 OFFCURVE",
"302 1110 CURVE SMOOTH",
"222 1110 OFFCURVE",
"150 1008 OFFCURVE",
"114 838 CURVE SMOOTH",
"-6 272 LINE SMOOTH",
"-42 99 OFFCURVE",
"8 -16 OFFCURVE",
"117 -16 CURVE SMOOTH"
);
},
{
closed = 1;
nodes = (
"134 162 OFFCURVE",
"128 196 OFFCURVE",
"140 252 CURVE SMOOTH",
"265 842 LINE SMOOTH",
"279 908 OFFCURVE",
"295 934 OFFCURVE",
"319 934 CURVE SMOOTH",
"343 934 OFFCURVE",
"347 909 OFFCURVE",
"333 842 CURVE SMOOTH",
"208 252 LINE SMOOTH",
"196 196 OFFCURVE",
"176 162 OFFCURVE",
"155 162 CURVE SMOOTH"
);
}
);
width = 454;
},
{
layerId = "A5A4D350-C0CB-4C36-867F-06890CC9F434";
paths = (
{
closed = 1;
nodes = (
"624 -16 OFFCURVE",
"764 90 OFFCURVE",
"801 266 CURVE SMOOTH",
"937 906 LINE SMOOTH",
"974 1080 OFFCURVE",
"957 1233 OFFCURVE",
"887 1342 CURVE",
"1026 1428 LINE",
"977 1479 LINE",
"848 1399 LINE",
"834 1424 OFFCURVE",
"814 1442 OFFCURVE",
"798 1456 CURVE",
"662 1374 LINE",
"682 1335 OFFCURVE",
"686 1330 OFFCURVE",
"700 1308 CURVE",
"565 1224 LINE",
"614 1175 LINE",
"717 1236 LINE",
"734 1169 OFFCURVE",
"736 1099 OFFCURVE",
"730 1019 CURVE",
"662 1088 OFFCURVE",
"623 1110 OFFCURVE",
"569 1110 CURVE SMOOTH",
"451 1110 OFFCURVE",
"361 1006 OFFCURVE",
"325 838 CURVE SMOOTH",
"205 272 LINE SMOOTH",
"166 87 OFFCURVE",
"259 -16 OFFCURVE",
"441 -16 CURVE SMOOTH"
);
},
{
closed = 1;
nodes = (
"424 162 OFFCURVE",
"401 205 OFFCURVE",
"418 283 CURVE SMOOTH",
"530 811 LINE SMOOTH",
"546 887 OFFCURVE",
"591 934 OFFCURVE",
"643 934 CURVE SMOOTH",
"696 934 OFFCURVE",
"721 885 OFFCURVE",
"705 811 CURVE SMOOTH",
"593 283 LINE SMOOTH",
"577 207 OFFCURVE",
"535 162 OFFCURVE",
"479 162 CURVE SMOOTH"
);
}
);
width = 765.36842;
}
);
unicode = 00F0;
},
{
color = 6;
glyphname = dcroat;
lastChange = "2020-01-27 22:16:02 +0000";
layers = (
{
background = {
paths = (
{
closed = 1;
nodes = (
"244 -16 OFFCURVE",
"264 -12 OFFCURVE",
"284 -2 CURVE",
"326 16 OFFCURVE",
"362 40 OFFCURVE",
"402 72 CURVE",
"388 0 LINE",
"590 0 LINE",
"842 1194 LINE",
"888 1194 LINE",
"930 1384 LINE",
"884 1384 LINE",
"902 1470 LINE",
"700 1470 LINE",
"682 1384 LINE",
"640 1384 LINE",
"598 1194 LINE",
"640 1194 LINE",
"604 1022 LINE",
"590 1038 OFFCURVE",
"576 1052 OFFCURVE",
"562 1066 CURVE",
"536 1088 OFFCURVE",
"500 1110 OFFCURVE",
"462 1110 CURVE SMOOTH",
"406 1110 OFFCURVE",
"362 1078 OFFCURVE",
"330 1038 CURVE",
"292 996 OFFCURVE",
"272 942 OFFCURVE",
"262 896 CURVE SMOOTH",
"114 198 LINE SMOOTH",
"104 152 OFFCURVE",
"104 98 OFFCURVE",
"122 58 CURVE",
"136 16 OFFCURVE",
"168 -16 OFFCURVE",
"224 -16 CURVE SMOOTH"
);
},
{
closed = 1;
nodes = (
"334 174 OFFCURVE",
"316 202 OFFCURVE",
"324 240 CURVE SMOOTH",
"454 854 LINE SMOOTH",
"462 892 OFFCURVE",
"492 920 OFFCURVE",
"522 920 CURVE SMOOTH",
"552 920 OFFCURVE",
"576 886 OFFCURVE",
"568 854 CURVE",
"438 240 LINE SMOOTH",
"430 202 OFFCURVE",
"394 174 OFFCURVE",
"364 174 CURVE SMOOTH"
);
}
);
};
layerId = "E10EC336-1202-48FF-9A55-15876E80CDFD";
paths = (
{
closed = 1;
nodes = (
"271 -16 OFFCURVE",
"326 11 OFFCURVE",
"403 72 CURVE",
"388 0 LINE",
"590 0 LINE",
"844 1194 LINE",
"890 1194 LINE",
"930 1384 LINE",
"884 1384 LINE",
"902 1470 LINE",
"700 1470 LINE",
"682 1384 LINE",
"640 1384 LINE",
"600 1194 LINE",
"642 1194 LINE",
"605 1022 LINE",
"546 1086 OFFCURVE",
"508 1110 OFFCURVE",
"464 1110 CURVE SMOOTH",
"376 1110 OFFCURVE",
"288 1017 OFFCURVE",
"262 896 CURVE SMOOTH",
"114 198 LINE SMOOTH",
"89 79 OFFCURVE",
"139 -16 OFFCURVE",
"225 -16 CURVE SMOOTH"
);
},
{
closed = 1;
nodes = (
"335 174 OFFCURVE",
"317 203 OFFCURVE",
"325 240 CURVE SMOOTH",
"455 854 LINE SMOOTH",
"463 891 OFFCURVE",
"493 920 OFFCURVE",
"523 920 CURVE SMOOTH",
"554 920 OFFCURVE",
"576 888 OFFCURVE",
"569 854 CURVE SMOOTH",
"439 240 LINE SMOOTH",
"432 206 OFFCURVE",
"397 174 OFFCURVE",
"365 174 CURVE SMOOTH"
);
}
);
width = 670;
},
{
background = {
paths = (
{
closed = 1;
nodes = (
"70 -16 OFFCURVE",
"92 -10 OFFCURVE",
"106 -2 CURVE",
"112 2 OFFCURVE",
"134 20 OFFCURVE",
"142 26 CURVE",
"136 0 LINE",
"294 0 LINE",
"548 1194 LINE",
"576 1194 LINE",
"616 1384 LINE",
"588 1384 LINE",
"606 1470 LINE",
"448 1470 LINE",
"430 1384 LINE",
"406 1384 LINE",
"366 1194 LINE",
"390 1194 LINE",
"364 1070 LINE",
"346 1090 OFFCURVE",
"326 1110 OFFCURVE",
"294 1110 CURVE SMOOTH",
"252 1110 OFFCURVE",
"212 1074 OFFCURVE",
"190 1038 CURVE SMOOTH",
"166 996 OFFCURVE",
"148 942 OFFCURVE",
"138 896 CURVE SMOOTH",
"-8 198 LINE SMOOTH",
"-18 152 OFFCURVE",
"-24 98 OFFCURVE",
"-16 58 CURVE",
"-10 18 OFFCURVE",
"12 -16 OFFCURVE",
"54 -16 CURVE SMOOTH"
);
},
{
closed = 1;
nodes = (
"146 174 OFFCURVE",
"146 202 OFFCURVE",
"154 240 CURVE SMOOTH",
"286 854 LINE SMOOTH",
"294 892 OFFCURVE",
"306 920 OFFCURVE",
"314 920 CURVE SMOOTH",
"322 920 OFFCURVE",
"324 886 OFFCURVE",
"318 854 CURVE SMOOTH",
"186 240 LINE SMOOTH",
"178 202 OFFCURVE",
"162 174 OFFCURVE",
"154 174 CURVE SMOOTH"
);
}
);
};
layerId = "38BA14EB-08C8-4487-88C1-8F957131FCA1";
paths = (
{
closed = 1;
nodes = (
"81 -16 OFFCURVE",
"104 -5 OFFCURVE",
"141 26 CURVE",
"136 0 LINE",
"294 0 LINE",
"548 1194 LINE",
"576 1194 LINE",
"616 1384 LINE",
"588 1384 LINE",
"606 1470 LINE",
"448 1470 LINE",
"430 1384 LINE",
"406 1384 LINE",
"366 1194 LINE",
"390 1194 LINE",
"363 1070 LINE",
"337 1099 OFFCURVE",
"318 1110 OFFCURVE",
"294 1110 CURVE SMOOTH",
"227 1110 OFFCURVE",
"166 1027 OFFCURVE",
"138 896 CURVE SMOOTH",
"-10 198 LINE SMOOTH",
"-39 63 OFFCURVE",
"-15 -16 OFFCURVE",
"55 -16 CURVE SMOOTH"
);
},
{
closed = 1;
nodes = (
"146 174 OFFCURVE",
"146 197 OFFCURVE",
"155 240 CURVE SMOOTH",
"285 854 LINE SMOOTH",
"293 894 OFFCURVE",
"304 920 OFFCURVE",
"313 920 CURVE SMOOTH",
"323 920 OFFCURVE",
"325 891 OFFCURVE",
"317 854 CURVE SMOOTH",
"187 240 LINE SMOOTH",
"179 203 OFFCURVE",
"165 174 OFFCURVE",
"155 174 CURVE SMOOTH"
);
}
);
width = 462;
},
{
layerId = "A5A4D350-C0CB-4C36-867F-06890CC9F434";
paths = (
{
closed = 1;
nodes = (
"371 -16 OFFCURVE",
"443 19 OFFCURVE",
"541 96 CURVE",
"521 0 LINE",
"746 0 LINE",
"1000 1194 LINE",
"1055 1194 LINE",
"1095 1384 LINE",
"1040 1384 LINE",
"1058 1470 LINE",
"833 1470 LINE",
"815 1384 LINE",
"763 1384 LINE",
"723 1194 LINE",
"775 1194 LINE",
"732 997 LINE",
"656 1079 OFFCURVE",
"608 1110 OFFCURVE",
"553 1110 CURVE SMOOTH",
"453 1110 OFFCURVE",
"352 1012 OFFCURVE",
"327 896 CURVE SMOOTH",
"179 198 LINE SMOOTH",
"156 89 OFFCURVE",
"218 -16 OFFCURVE",
"315 -16 CURVE SMOOTH"
);
},
{
closed = 1;
nodes = (
"433 174 OFFCURVE",
"407 206 OFFCURVE",
"414 240 CURVE SMOOTH",
"544 854 LINE SMOOTH",
"552 891 OFFCURVE",
"594 920 OFFCURVE",
"633 920 CURVE SMOOTH",
"676 920 OFFCURVE",
"709 886 OFFCURVE",
"702 854 CURVE SMOOTH",
"572 240 LINE SMOOTH",
"565 208 OFFCURVE",
"519 174 OFFCURVE",
"476 174 CURVE SMOOTH"
);
}
);
width = 779.47368;
}
);
unicode = 0111;
},
{
color = 6;
glyphname = e;
lastChange = "2020-01-27 22:16:02 +0000";
layers = (
{
anchors = (
{
name = bottom;
position = "{320, -16}";
},
{
name = ogonek;
position = "{360, 0}";
},
{
name = top;
position = "{620, 1110}";
}
);
background = {
paths = (
{
closed = 1;
nodes = (
"668 392 LINE",
"642 266 LINE",
"612 160 OFFCURVE",
"566 86 OFFCURVE",
"480 28 CURVE SMOOTH",
"438 -2 OFFCURVE",
"386 -16 OFFCURVE",
"320 -16 CURVE SMOOTH",
"190 -16 OFFCURVE",
"138 56 OFFCURVE",
"122 128 CURVE SMOOTH",
"112 174 OFFCURVE",
"112 222 OFFCURVE",
"120 272 CURVE",
"238 822 LINE",
"268 928 OFFCURVE",
"316 1004 OFFCURVE",
"402 1066 CURVE",
"440 1096 OFFCURVE",
"494 1110 OFFCURVE",
"560 1110 CURVE SMOOTH",
"624 1110 OFFCURVE",
"670 1092 OFFCURVE",
"702 1066 CURVE SMOOTH",
"734 1040 OFFCURVE",
"750 1002 OFFCURVE",
"758 968 CURVE SMOOTH",
"768 926 OFFCURVE",
"770 882 OFFCURVE",
"760 828 CURVE SMOOTH",
"694 510 LINE",
"360 510 LINE",
"308 272 LINE",
"302 234 OFFCURVE",
"306 202 OFFCURVE",
"320 178 CURVE",
"328 168 OFFCURVE",
"342 162 OFFCURVE",
"360 162 CURVE SMOOTH",
"398 162 OFFCURVE",
"420 186 OFFCURVE",
"434 216 CURVE",
"444 230 OFFCURVE",
"450 250 OFFCURVE",
"454 272 CURVE SMOOTH",
"480 392 LINE"
);
},
{
closed = 1;
nodes = (
"392 668 LINE",
"538 668 LINE",
"572 822 LINE SMOOTH",
"580 864 OFFCURVE",
"580 894 OFFCURVE",
"564 918 CURVE",
"556 928 OFFCURVE",
"542 934 OFFCURVE",
"524 934 CURVE SMOOTH",
"486 934 OFFCURVE",
"464 908 OFFCURVE",
"448 878 CURVE SMOOTH",
"440 864 OFFCURVE",
"432 846 OFFCURVE",
"426 822 CURVE SMOOTH"
);
}
);
};
layerId = "E10EC336-1202-48FF-9A55-15876E80CDFD";
paths = (
{
closed = 1;
nodes = (
"482 -16 OFFCURVE",
"606 92 OFFCURVE",
"642 266 CURVE SMOOTH",
"668 392 LINE",
"480 392 LINE",
"454 272 LINE SMOOTH",
"439 203 OFFCURVE",
"404 162 OFFCURVE",
"360 162 CURVE SMOOTH",
"314 162 OFFCURVE",
"294 206 OFFCURVE",
"308 272 CURVE SMOOTH",
"360 510 LINE",
"694 510 LINE",
"760 828 LINE SMOOTH",
"796 998 OFFCURVE",
"716 1110 OFFCURVE",
"560 1110 CURVE SMOOTH",
"400 1110 OFFCURVE",
"276 1000 OFFCURVE",
"238 822 CURVE SMOOTH",
"120 272 LINE SMOOTH",
"82 96 OFFCURVE",
"160 -16 OFFCURVE",
"320 -16 CURVE SMOOTH"
);
},
{
closed = 1;
nodes = (
"426 822 LINE SMOOTH",
"442 892 OFFCURVE",
"478 934 OFFCURVE",
"524 934 CURVE SMOOTH",
"570 934 OFFCURVE",
"588 893 OFFCURVE",
"572 822 CURVE SMOOTH",
"538 668 LINE",
"392 668 LINE"
);
}
);
width = 644;
},
{
anchors = (
{
name = bottom;
position = "{132, -16}";
},
{
name = ogonek;
position = "{162, 0}";
},
{
name = top;
position = "{440, 1110}";
}
);
background = {
paths = (
{
closed = 1;
nodes = (
"261 -16 OFFCURVE",
"349 77 OFFCURVE",
"386 254 CURVE SMOOTH",
"416 392 LINE",
"266 392 LINE",
"240 272 LINE SMOOTH",
"226 205 OFFCURVE",
"202 162 OFFCURVE",
"180 162 CURVE SMOOTH",
"163 162 OFFCURVE",
"160 207 OFFCURVE",
"172 272 CURVE SMOOTH",
"236 564 LINE",
"169 510 LINE",
"442 510 LINE",
"510 836 LINE SMOOTH",
"551 1020 OFFCURVE",
"508 1110 OFFCURVE",
"380 1110 CURVE SMOOTH",
"271 1110 OFFCURVE",
"174 998 OFFCURVE",
"138 830 CURVE SMOOTH",
"16 260 LINE SMOOTH",
"-18 84 OFFCURVE",
"25 -16 OFFCURVE",
"132 -16 CURVE SMOOTH"
);
},
{
closed = 1;
nodes = (
"290 822 LINE SMOOTH",
"302 885 OFFCURVE",
"325 934 OFFCURVE",
"342 934 CURVE SMOOTH",
"369 934 OFFCURVE",
"374 896 OFFCURVE",
"358 822 CURVE SMOOTH",
"312 614 LINE",
"379 668 LINE",
"201 668 LINE",
"244 614 LINE"
);
}
);
};
layerId = "38BA14EB-08C8-4487-88C1-8F957131FCA1";
paths = (
{
closed = 1;
nodes = (
"255 -16 OFFCURVE",
"351 87 OFFCURVE",
"386 254 CURVE SMOOTH",
"416 392 LINE",
"266 392 LINE",
"240 272 LINE SMOOTH",
"227 210 OFFCURVE",
"201 162 OFFCURVE",
"180 162 CURVE SMOOTH",
"162 162 OFFCURVE",
"159 198 OFFCURVE",
"172 272 CURVE",
"224 510 LINE",
"442 510 LINE",
"510 836 LINE SMOOTH",
"548 1008 OFFCURVE",
"499 1110 OFFCURVE",
"380 1110 CURVE SMOOTH",
"263 1110 OFFCURVE",
"177 1011 OFFCURVE",
"138 830 CURVE SMOOTH",
"16 260 LINE SMOOTH",
"-20 73 OFFCURVE",
"17 -16 OFFCURVE",
"132 -16 CURVE SMOOTH"
);
},
{
closed = 1;
nodes = (
"290 822 LINE SMOOTH",
"304 897 OFFCURVE",
"321 934 OFFCURVE",
"342 934 CURVE SMOOTH",
"365 934 OFFCURVE",
"372 887 OFFCURVE",
"358 822 CURVE SMOOTH",
"324 668 LINE",
"256 668 LINE"
);
}
);
width = 446;
},
{
anchors = (
{
name = bottom;
position = "{419, -16}";
},
{
name = ogonek;
position = "{464, 0}";
},
{
name = top;
position = "{715, 1110}";
}
);
layerId = "A5A4D350-C0CB-4C36-867F-06890CC9F434";
paths = (
{
closed = 1;
nodes = (
"596 -16 OFFCURVE",
"741 91 OFFCURVE",
"777 272 CURVE SMOOTH",
"801 392 LINE",
"593 392 LINE",
"567 272 LINE SMOOTH",
"551 199 OFFCURVE",
"511 162 OFFCURVE",
"455 162 CURVE SMOOTH",
"394 162 OFFCURVE",
"365 210 OFFCURVE",
"380 272 CURVE",
"432 510 LINE",
"827 510 LINE",
"892 824 LINE SMOOTH",
"927 993 OFFCURVE",
"830 1110 OFFCURVE",
"652 1110 CURVE SMOOTH",
"473 1110 OFFCURVE",
"329 994 OFFCURVE",
"291 818 CURVE SMOOTH",
"174 278 LINE SMOOTH",
"137 108 OFFCURVE",
"235 -16 OFFCURVE",
"422 -16 CURVE SMOOTH"
);
},
{
closed = 1;
nodes = (
"499 822 LINE SMOOTH",
"514 889 OFFCURVE",
"561 934 OFFCURVE",
"620 934 CURVE SMOOTH",
"678 934 OFFCURVE",
"701 896 OFFCURVE",
"685 822 CURVE SMOOTH",
"651 668 LINE",
"464 668 LINE"
);
}
);
width = 748.21053;
}
);
leftKerningGroup = c;
rightKerningGroup = c;
unicode = 0065;
},
{
color = 6;
glyphname = f;
lastChange = "2020-01-27 22:16:02 +0000";
layers = (
{
anchors = (
{
name = bottom;
position = "{232, 0}";
},
{
name = top;
position = "{668, 1478}";
}
);
background = {
paths = (
{
closed = 1;
nodes = (
"122 0 LINE",
"314 912 LINE",
"212 912 LINE",
"252 1094 LINE",
"354 1094 LINE",
"360 1124 LINE SMOOTH",
"374 1180 OFFCURVE",
"390 1270 OFFCURVE",
"436 1344 CURVE SMOOTH",
"482 1418 OFFCURVE",
"548 1478 OFFCURVE",
"668 1478 CURVE SMOOTH",
"700 1478 OFFCURVE",
"722 1476 OFFCURVE",
"758 1464 CURVE",
"722 1287 LINE",
"693 1296 OFFCURVE",
"683 1298 OFFCURVE",
"662 1298 CURVE SMOOTH",
"614 1298 OFFCURVE",
"585 1234 OFFCURVE",
"572 1170 CURVE SMOOTH",
"556 1094 LINE",
"658 1094 LINE",
"618 912 LINE",
"516 912 LINE",
"324 0 LINE"
);
}
);
};
layerId = "E10EC336-1202-48FF-9A55-15876E80CDFD";
paths = (
{
closed = 1;
nodes = (
"324 0 LINE",
"516 912 LINE",
"618 912 LINE",
"658 1094 LINE",
"556 1094 LINE",
"593 1273 OFFCURVE",
"613 1298 OFFCURVE",
"662 1298 CURVE SMOOTH",
"682 1298 OFFCURVE",
"700 1294 OFFCURVE",
"722 1287 CURVE",
"758 1464 LINE",
"728 1474 OFFCURVE",
"700 1478 OFFCURVE",
"668 1478 CURVE SMOOTH",
"496 1478 OFFCURVE",
"402 1364 OFFCURVE",
"354 1094 CURVE",
"252 1094 LINE",
"212 912 LINE",
"314 912 LINE",
"122 0 LINE"
);
}
);
width = 464;
},
{
anchors = (
{
name = bottom;
position = "{75, 0}";
},
{
name = top;
position = "{446, 1478}";
}
);
background = {
paths = (
{
closed = 1;
nodes = (
"132 0 LINE",
"326 912 LINE",
"388 912 LINE",
"428 1094 LINE",
"366 1094 LINE",
"382 1170 LINE SMOOTH",
"392 1220 OFFCURVE",
"404 1274 OFFCURVE",
"426 1294 CURVE",
"438 1304 OFFCURVE",
"462 1306 OFFCURVE",
"482 1292 CURVE",
"516 1458 LINE",
"496 1472 OFFCURVE",
"472 1478 OFFCURVE",
"446 1478 CURVE SMOOTH",
"300 1478 OFFCURVE",
"254 1292 OFFCURVE",
"222 1158 CURVE SMOOTH",
"210 1094 LINE",
"148 1094 LINE",
"108 912 LINE",
"170 912 LINE",
"-22 0 LINE"
);
}
);
};
layerId = "38BA14EB-08C8-4487-88C1-8F957131FCA1";
paths = (
{
closed = 1;
nodes = (
"132 0 LINE",
"326 912 LINE",
"388 912 LINE",
"428 1094 LINE",
"361 1094 LINE",
"395 1263 OFFCURVE",
"412 1302 OFFCURVE",
"451 1302 CURVE SMOOTH",
"461 1302 OFFCURVE",
"469 1299 OFFCURVE",
"482 1292 CURVE",
"516 1458 LINE",
"495 1472 OFFCURVE",
"474 1478 OFFCURVE",
"446 1478 CURVE SMOOTH",
"328 1478 OFFCURVE",
"259 1367 OFFCURVE",
"209 1094 CURVE",
"148 1094 LINE",
"108 912 LINE",
"170 912 LINE",
"-22 0 LINE"
);
}
);
width = 338;
},
{
anchors = (
{
name = bottom;
position = "{315, 0}";
},
{
name = top;
position = "{785, 1478}";
}
);
layerId = "A5A4D350-C0CB-4C36-867F-06890CC9F434";
paths = (
{
closed = 1;
nodes = (
"425 0 LINE",
"616 912 LINE",
"739 912 LINE",
"779 1094 LINE",
"659 1094 LINE",
"697 1278 OFFCURVE",
"719 1296 OFFCURVE",
"773 1296 CURVE SMOOTH",
"798 1296 OFFCURVE",
"822 1291 OFFCURVE",
"848 1284 CURVE",
"885 1467 LINE",
"851 1475 OFFCURVE",
"819 1478 OFFCURVE",
"785 1478 CURVE SMOOTH",
"584 1478 OFFCURVE",
"477 1362 OFFCURVE",
"430 1094 CURVE",
"307 1094 LINE",
"267 912 LINE",
"390 912 LINE",
"198 0 LINE"
);
}
);
width = 530.31579;
}
);
unicode = 0066;
},
{
color = 6;
glyphname = g;
lastChange = "2020-01-27 22:16:02 +0000";
layers = (
{
anchors = (
{
name = bottom;
position = "{200, -366}";
},
{
name = top;
position = "{705, 1094}";
}
);
background = {
anchors = (
{
name = top;
position = "{342, 1094}";
}
);
paths = (
{
closed = 1;
nodes = (
"686 528 LINE",
"632 330 OFFCURVE",
"490 258 OFFCURVE",
"368 258 CURVE SMOOTH",
"350 258 LINE SMOOTH",
"340 258 OFFCURVE",
"334 258 OFFCURVE",
"330 260 CURVE",
"308 244 OFFCURVE",
"296 228 OFFCURVE",
"292 210 CURVE SMOOTH",
"286 186 OFFCURVE",
"302 172 OFFCURVE",
"332 164 CURVE",
"362 154 OFFCURVE",
"394 148 OFFCURVE",
"432 142 CURVE SMOOTH",
"494 134 OFFCURVE",
"558 118 OFFCURVE",
"606 80 CURVE SMOOTH",
"652 42 OFFCURVE",
"680 -16 OFFCURVE",
"658 -112 CURVE SMOOTH",
"634 -218 OFFCURVE",
"574 -290 OFFCURVE",
"500 -332 CURVE SMOOTH",
"426 -374 OFFCURVE",
"334 -392 OFFCURVE",
"252 -392 CURVE SMOOTH",
"156 -390 OFFCURVE",
"78 -376 OFFCURVE",
"28 -344 CURVE SMOOTH",
"-22 -312 OFFCURVE",
"-42 -260 OFFCURVE",
"-26 -180 CURVE SMOOTH",
"-18 -142 OFFCURVE",
"6 -112 OFFCURVE",
"44 -82 CURVE SMOOTH",
"82 -52 OFFCURVE",
"124 -32 OFFCURVE",
"166 -14 CURVE",
"104 4 OFFCURVE",
"54 46 OFFCURVE",
"76 132 CURVE",
"82 164 OFFCURVE",
"106 196 OFFCURVE",
"138 226 CURVE SMOOTH",
"168 256 OFFCURVE",
"202 280 OFFCURVE",
"236 296 CURVE",
"186 334 OFFCURVE",
"170 394 OFFCURVE",
"168 444 CURVE SMOOTH",
"166 478 OFFCURVE",
"166 508 OFFCURVE",
"170 534 CURVE",
"234 832 LINE",
"264 934 OFFCURVE",
"312 1008 OFFCURVE",
"394 1066 CURVE",
"432 1096 OFFCURVE",
"484 1110 OFFCURVE",
"548 1110 CURVE SMOOTH",
"650 1110 OFFCURVE",
"704 1064 OFFCURVE",
"730 1010 CURVE",
"746 1024 OFFCURVE",
"774 1048 OFFCURVE",
"812 1070 CURVE SMOOTH",
"850 1092 OFFCURVE",
"884 1110 OFFCURVE",
"916 1110 CURVE",
"878 930 LINE",
"824 930 OFFCURVE",
"782 920 OFFCURVE",
"756 906 CURVE",
"756 880 LINE",
"754 870 OFFCURVE",
"752 862 OFFCURVE",
"754 858 CURVE",
"754 856 OFFCURVE",
"754 852 OFFCURVE",
"754 848 CURVE",
"752 844 OFFCURVE",
"752 840 OFFCURVE",
"752 838 CURVE"
);
},
{
closed = 1;
nodes = (
"550 824 LINE SMOOTH",
"558 858 OFFCURVE",
"556 886 OFFCURVE",
"544 908 CURVE",
"538 918 OFFCURVE",
"526 924 OFFCURVE",
"510 924 CURVE SMOOTH",
"478 924 OFFCURVE",
"458 898 OFFCURVE",
"444 874 CURVE",
"438 860 OFFCURVE",
"432 842 OFFCURVE",
"430 824 CURVE",
"366 524 LINE",
"356 490 OFFCURVE",
"358 462 OFFCURVE",
"370 442 CURVE SMOOTH",
"376 432 OFFCURVE",
"388 426 OFFCURVE",
"404 426 CURVE SMOOTH",
"438 426 OFFCURVE",
"456 450 OFFCURVE",
"470 474 CURVE",
"476 490 OFFCURVE",
"482 506 OFFCURVE",
"486 524 CURVE SMOOTH"
);
},
{
closed = 1;
nodes = (
"270 -50 LINE",
"224 -74 OFFCURVE",
"184 -104 OFFCURVE",
"176 -146 CURVE SMOOTH",
"168 -188 OFFCURVE",
"198 -222 OFFCURVE",
"292 -222 CURVE SMOOTH",
"326 -222 OFFCURVE",
"366 -218 OFFCURVE",
"398 -204 CURVE SMOOTH",
"430 -190 OFFCURVE",
"456 -174 OFFCURVE",
"462 -148 CURVE SMOOTH",
"470 -110 OFFCURVE",
"452 -94 OFFCURVE",
"426 -84 CURVE",
"412 -78 OFFCURVE",
"394 -74 OFFCURVE",
"370 -70 CURVE SMOOTH"
);
},
{
closed = 1;
nodes = (
"334 -392 OFFCURVE",
"426 -374 OFFCURVE",
"500 -332 CURVE SMOOTH",
"574 -290 OFFCURVE",
"634 -218 OFFCURVE",
"658 -112 CURVE SMOOTH",
"680 -16 OFFCURVE",
"652 42 OFFCURVE",
"606 80 CURVE SMOOTH",
"558 118 OFFCURVE",
"494 134 OFFCURVE",
"432 142 CURVE SMOOTH",
"394 148 OFFCURVE",
"362 154 OFFCURVE",
"332 164 CURVE",
"302 172 OFFCURVE",
"286 186 OFFCURVE",
"292 210 CURVE SMOOTH",
"296 228 OFFCURVE",
"308 244 OFFCURVE",
"330 260 CURVE",
"334 258 OFFCURVE",
"340 258 OFFCURVE",
"350 258 CURVE SMOOTH",
"368 258 LINE SMOOTH",
"490 258 OFFCURVE",
"632 330 OFFCURVE",
"686 528 CURVE",
"752 838 LINE",
"752 840 OFFCURVE",
"752 844 OFFCURVE",
"754 848 CURVE",
"754 852 OFFCURVE",
"754 856 OFFCURVE",
"754 858 CURVE",
"752 862 OFFCURVE",
"754 870 OFFCURVE",
"756 880 CURVE",
"756 906 LINE",
"782 920 OFFCURVE",
"824 930 OFFCURVE",
"878 930 CURVE",
"916 1110 LINE",
"884 1110 OFFCURVE",
"850 1092 OFFCURVE",
"812 1070 CURVE SMOOTH",
"774 1048 OFFCURVE",
"746 1024 OFFCURVE",
"730 1010 CURVE",
"704 1064 OFFCURVE",
"650 1110 OFFCURVE",
"548 1110 CURVE SMOOTH",
"484 1110 OFFCURVE",
"432 1096 OFFCURVE",
"394 1066 CURVE",
"312 1008 OFFCURVE",
"264 934 OFFCURVE",
"234 832 CURVE",
"170 534 LINE",
"166 508 OFFCURVE",
"166 478 OFFCURVE",
"168 444 CURVE SMOOTH",
"170 394 OFFCURVE",
"186 334 OFFCURVE",
"236 296 CURVE",
"202 280 OFFCURVE",
"168 256 OFFCURVE",
"138 226 CURVE SMOOTH",
"106 196 OFFCURVE",
"82 164 OFFCURVE",
"76 132 CURVE",
"54 46 OFFCURVE",
"104 4 OFFCURVE",
"166 -14 CURVE",
"124 -32 OFFCURVE",
"82 -52 OFFCURVE",
"44 -82 CURVE SMOOTH",
"6 -112 OFFCURVE",
"-18 -142 OFFCURVE",
"-26 -180 CURVE SMOOTH",
"-42 -260 OFFCURVE",
"-22 -312 OFFCURVE",
"28 -344 CURVE SMOOTH",
"78 -376 OFFCURVE",
"156 -390 OFFCURVE",
"252 -392 CURVE SMOOTH"
);
},
{
closed = 1;
nodes = (
"198 -222 OFFCURVE",
"168 -188 OFFCURVE",
"176 -146 CURVE SMOOTH",
"184 -104 OFFCURVE",
"224 -74 OFFCURVE",
"270 -50 CURVE",
"370 -70 LINE SMOOTH",
"394 -74 OFFCURVE",
"412 -78 OFFCURVE",
"426 -84 CURVE",
"452 -94 OFFCURVE",
"470 -110 OFFCURVE",
"462 -148 CURVE SMOOTH",
"456 -174 OFFCURVE",
"430 -190 OFFCURVE",
"398 -204 CURVE SMOOTH",
"366 -218 OFFCURVE",
"326 -222 OFFCURVE",
"292 -222 CURVE SMOOTH"
);
},
{
closed = 1;
nodes = (
"388 426 OFFCURVE",
"376 432 OFFCURVE",
"370 442 CURVE SMOOTH",
"358 462 OFFCURVE",
"356 490 OFFCURVE",
"366 524 CURVE",
"430 824 LINE",
"432 842 OFFCURVE",
"438 860 OFFCURVE",
"444 874 CURVE",
"458 898 OFFCURVE",
"478 924 OFFCURVE",
"510 924 CURVE SMOOTH",
"526 924 OFFCURVE",
"538 918 OFFCURVE",
"544 908 CURVE",
"556 886 OFFCURVE",
"558 858 OFFCURVE",
"550 824 CURVE SMOOTH",
"486 524 LINE SMOOTH",
"482 506 OFFCURVE",
"476 490 OFFCURVE",
"470 474 CURVE",
"456 450 OFFCURVE",
"438 426 OFFCURVE",
"404 426 CURVE SMOOTH"
);
}
);
};
layerId = "E10EC336-1202-48FF-9A55-15876E80CDFD";
paths = (
{
closed = 1;
nodes = (
"508 -397 OFFCURVE",
"666 -266 OFFCURVE",
"666 -50 CURVE SMOOTH",
"666 72 OFFCURVE",
"610 118 OFFCURVE",
"432 142 CURVE SMOOTH",
"331 156 OFFCURVE",
"291 172 OFFCURVE",
"291 201 CURVE SMOOTH",
"291 218 OFFCURVE",
"306 241 OFFCURVE",
"329 259 CURVE",
"331 259 OFFCURVE",
"350 258 OFFCURVE",
"350 258 CURVE SMOOTH",
"525 258 OFFCURVE",
"650 358 OFFCURVE",
"686 528 CURVE SMOOTH",
"742 789 LINE SMOOTH",
"751 834 OFFCURVE",
"754 864 OFFCURVE",
"755 905 CURVE",
"784 921 OFFCURVE",
"829 930 OFFCURVE",
"878 930 CURVE",
"916 1110 LINE",
"874 1110 OFFCURVE",
"798 1069 OFFCURVE",
"730 1010 CURVE",
"697 1075 OFFCURVE",
"632 1110 OFFCURVE",
"548 1110 CURVE SMOOTH",
"398 1110 OFFCURVE",
"273 996 OFFCURVE",
"234 822 CURVE SMOOTH",
"174 554 LINE SMOOTH",
"149 442 OFFCURVE",
"173 344 OFFCURVE",
"236 296 CURVE",
"141 254 OFFCURVE",
"71 170 OFFCURVE",
"71 98 CURVE SMOOTH",
"71 46 OFFCURVE",
"107 6 OFFCURVE",
"171 -13 CURVE",
"39 -74 OFFCURVE",
"-32 -150 OFFCURVE",
"-32 -231 CURVE SMOOTH",
"-32 -327 OFFCURVE",
"78 -389 OFFCURVE",
"252 -392 CURVE SMOOTH"
);
},
{
closed = 1;
nodes = (
"214 -222 OFFCURVE",
"175 -201 OFFCURVE",
"175 -158 CURVE SMOOTH",
"175 -120 OFFCURVE",
"205 -86 OFFCURVE",
"271 -50 CURVE",
"370 -70 LINE SMOOTH",
"441 -85 OFFCURVE",
"464 -100 OFFCURVE",
"464 -131 CURVE SMOOTH",
"464 -185 OFFCURVE",
"395 -222 OFFCURVE",
"292 -222 CURVE SMOOTH"
);
},
{
closed = 1;
nodes = (
"366 426 OFFCURVE",
"353 460 OFFCURVE",
"366 524 CURVE SMOOTH",
"430 824 LINE SMOOTH",
"444 888 OFFCURVE",
"473 924 OFFCURVE",
"510 924 CURVE SMOOTH",
"547 924 OFFCURVE",
"562 887 OFFCURVE",
"550 824 CURVE SMOOTH",
"486 524 LINE SMOOTH",
"472 461 OFFCURVE",
"443 426 OFFCURVE",
"404 426 CURVE SMOOTH"
);
}
);
width = 684;
},
{
anchors = (
{
name = bottom;
position = "{30, -356}";
},
{
name = top;
position = "{514, 1110}";
}
);
background = {
paths = (
{
closed = 1;
nodes = (
"526 858 LINE",
"528 870 OFFCURVE",
"530 898 OFFCURVE",
"528 906 CURVE",
"540 920 OFFCURVE",
"568 930 OFFCURVE",
"606 930 CURVE",
"644 1110 LINE",
"590 1110 OFFCURVE",
"546 1082 OFFCURVE",
"504 1042 CURVE",
"490 1086 OFFCURVE",
"454 1110 OFFCURVE",
"394 1110 CURVE SMOOTH",
"260 1110 OFFCURVE",
"180 948 OFFCURVE",
"154 832 CURVE SMOOTH",
"90 534 LINE SMOOTH",
"70 442 OFFCURVE",
"82 372 OFFCURVE",
"116 296 CURVE",
"66 258 OFFCURVE",
"12 192 OFFCURVE",
"0 132 CURVE SMOOTH",
"-16 50 OFFCURVE",
"12 8 OFFCURVE",
"54 -14 CURVE",
"52 -14 LINE",
"-6 -52 OFFCURVE",
"-70 -104 OFFCURVE",
"-86 -180 CURVE SMOOTH",
"-112 -308 OFFCURVE",
"-56 -392 OFFCURVE",
"80 -392 CURVE SMOOTH",
"244 -392 OFFCURVE",
"334 -258 OFFCURVE",
"366 -112 CURVE SMOOTH",
"384 -22 OFFCURVE",
"370 36 OFFCURVE",
"344 80 CURVE",
"320 116 OFFCURVE",
"278 130 OFFCURVE",
"238 142 CURVE SMOOTH",
"208 150 OFFCURVE",
"164 170 OFFCURVE",
"172 210 CURVE SMOOTH",
"176 230 OFFCURVE",
"186 248 OFFCURVE",
"194 258 CURVE",
"204 258 LINE SMOOTH",
"340 258 OFFCURVE",
"424 412 OFFCURVE",
"456 528 CURVE"
);
},
{
closed = 1;
nodes = (
"300 524 LINE SMOOTH",
"294 496 OFFCURVE",
"276 426 OFFCURVE",
"250 426 CURVE SMOOTH",
"230 426 OFFCURVE",
"236 486 OFFCURVE",
"244 524 CURVE SMOOTH",
"310 834 LINE SMOOTH",
"318 874 OFFCURVE",
"338 934 OFFCURVE",
"358 934 CURVE SMOOTH",
"384 934 OFFCURVE",
"376 878 OFFCURVE",
"366 834 CURVE SMOOTH"
);
},
{
closed = 1;
nodes = (
"172 -70 LINE",
"196 -80 OFFCURVE",
"218 -100 OFFCURVE",
"208 -148 CURVE",
"198 -188 OFFCURVE",
"162 -222 OFFCURVE",
"118 -222 CURVE SMOOTH",
"74 -222 OFFCURVE",
"62 -188 OFFCURVE",
"72 -146 CURVE",
"80 -104 OFFCURVE",
"106 -74 OFFCURVE",
"128 -54 CURVE"
);
},
{
closed = 1;
nodes = (
"244 -392 OFFCURVE",
"334 -258 OFFCURVE",
"366 -112 CURVE SMOOTH",
"384 -22 OFFCURVE",
"370 36 OFFCURVE",
"344 80 CURVE",
"320 116 OFFCURVE",
"278 130 OFFCURVE",
"238 142 CURVE SMOOTH",
"208 150 OFFCURVE",
"164 170 OFFCURVE",
"172 210 CURVE SMOOTH",
"176 230 OFFCURVE",
"186 248 OFFCURVE",
"194 258 CURVE",
"204 258 LINE SMOOTH",
"340 258 OFFCURVE",
"424 412 OFFCURVE",
"456 528 CURVE",
"526 858 LINE",
"528 870 OFFCURVE",
"530 898 OFFCURVE",
"528 906 CURVE",
"540 920 OFFCURVE",
"568 930 OFFCURVE",
"606 930 CURVE",
"644 1110 LINE",
"590 1110 OFFCURVE",
"546 1082 OFFCURVE",
"504 1042 CURVE",
"490 1086 OFFCURVE",
"454 1110 OFFCURVE",
"394 1110 CURVE SMOOTH",
"260 1110 OFFCURVE",
"180 948 OFFCURVE",
"154 832 CURVE SMOOTH",
"90 534 LINE SMOOTH",
"70 442 OFFCURVE",
"82 372 OFFCURVE",
"116 296 CURVE",
"66 258 OFFCURVE",
"12 192 OFFCURVE",
"0 132 CURVE SMOOTH",
"-16 50 OFFCURVE",
"12 8 OFFCURVE",
"54 -14 CURVE",
"52 -14 LINE",
"-6 -52 OFFCURVE",
"-70 -104 OFFCURVE",
"-86 -180 CURVE SMOOTH",
"-112 -308 OFFCURVE",
"-56 -392 OFFCURVE",
"80 -392 CURVE SMOOTH"
);
},
{
closed = 1;
nodes = (
"74 -222 OFFCURVE",
"62 -188 OFFCURVE",
"72 -146 CURVE",
"80 -104 OFFCURVE",
"106 -74 OFFCURVE",
"128 -54 CURVE",
"172 -70 LINE",
"196 -80 OFFCURVE",
"218 -100 OFFCURVE",
"208 -148 CURVE",
"198 -188 OFFCURVE",
"162 -222 OFFCURVE",
"118 -222 CURVE SMOOTH"
);
},
{
closed = 1;
nodes = (
"230 426 OFFCURVE",
"236 486 OFFCURVE",
"244 524 CURVE SMOOTH",
"310 834 LINE SMOOTH",
"318 874 OFFCURVE",
"338 934 OFFCURVE",
"358 934 CURVE SMOOTH",
"384 934 OFFCURVE",
"376 878 OFFCURVE",
"366 834 CURVE SMOOTH",
"300 524 LINE SMOOTH",
"294 496 OFFCURVE",
"276 426 OFFCURVE",
"250 426 CURVE SMOOTH"
);
}
);
};
layerId = "38BA14EB-08C8-4487-88C1-8F957131FCA1";
paths = (
{
closed = 1;
nodes = (
"241 -392 OFFCURVE",
"376 -227 OFFCURVE",
"376 -30 CURVE SMOOTH",
"376 63 OFFCURVE",
"336 112 OFFCURVE",
"238 142 CURVE SMOOTH",
"191 156 OFFCURVE",
"171 173 OFFCURVE",
"171 199 CURVE SMOOTH",
"171 215 OFFCURVE",
"177 231 OFFCURVE",
"193 261 CURVE",
"199 258 OFFCURVE",
"201 257 OFFCURVE",
"209 257 CURVE SMOOTH",
"313 257 OFFCURVE",
"424 379 OFFCURVE",
"456 528 CURVE SMOOTH",
"526 858 LINE SMOOTH",
"529 870 OFFCURVE",
"529 873 OFFCURVE",
"527 907 CURVE",
"547 924 OFFCURVE",
"568 930 OFFCURVE",
"606 930 CURVE",
"644 1110 LINE",
"597 1110 OFFCURVE",
"554 1089 OFFCURVE",
"503 1041 CURVE",
"487 1084 OFFCURVE",
"447 1110 OFFCURVE",
"394 1110 CURVE SMOOTH",
"285 1110 OFFCURVE",
"190 1000 OFFCURVE",
"154 832 CURVE SMOOTH",
"90 534 LINE SMOOTH",
"72 446 OFFCURVE",
"78 386 OFFCURVE",
"115 297 CURVE",
"40 243 OFFCURVE",
"-4 166 OFFCURVE",
"-4 89 CURVE SMOOTH",
"-4 40 OFFCURVE",
"14 8 OFFCURVE",
"53 -13 CURVE",
"-47 -77 OFFCURVE",
"-91 -143 OFFCURVE",
"-91 -231 CURVE SMOOTH",
"-91 -329 OFFCURVE",
"-24 -392 OFFCURVE",
"80 -392 CURVE SMOOTH"
);
},
{
closed = 1;
nodes = (
"86 -222 OFFCURVE",
"69 -206 OFFCURVE",
"69 -173 CURVE SMOOTH",
"69 -134 OFFCURVE",
"92 -87 OFFCURVE",
"128 -54 CURVE",
"172 -70 LINE SMOOTH",
"196 -79 OFFCURVE",
"210 -101 OFFCURVE",
"210 -130 CURVE SMOOTH",
"210 -181 OFFCURVE",
"169 -222 OFFCURVE",
"118 -222 CURVE SMOOTH"
);
},
{
closed = 1;
nodes = (
"234 426 OFFCURVE",
"232 467 OFFCURVE",
"244 524 CURVE SMOOTH",
"310 834 LINE SMOOTH",
"323 896 OFFCURVE",
"341 934 OFFCURVE",
"358 934 CURVE SMOOTH",
"376 934 OFFCURVE",
"379 893 OFFCURVE",
"366 834 CURVE SMOOTH",
"300 524 LINE SMOOTH",
"289 469 OFFCURVE",
"267 426 OFFCURVE",
"250 426 CURVE SMOOTH"
);
}
);
width = 490;
},
{
anchors = (
{
name = bottom;
position = "{289, -371}";
},
{
name = top;
position = "{806, 1086}";
}
);
layerId = "A5A4D350-C0CB-4C36-867F-06890CC9F434";
paths = (
{
closed = 1;
nodes = (
"649 -400 OFFCURVE",
"819 -287 OFFCURVE",
"819 -60 CURVE SMOOTH",
"819 88 OFFCURVE",
"747 116 OFFCURVE",
"537 142 CURVE SMOOTH",
"443 153 OFFCURVE",
"354 162 OFFCURVE",
"354 202 CURVE SMOOTH",
"354 220 OFFCURVE",
"374 246 OFFCURVE",
"401 258 CURVE",
"400 260 OFFCURVE",
"891 259 OFFCURVE",
"658 259 CURVE SMOOTH",
"383 259 OFFCURVE",
"749 258 OFFCURVE",
"807 528 CURVE SMOOTH",
"855 753 LINE SMOOTH",
"868 815 OFFCURVE",
"871 854 OFFCURVE",
"875 904 CURVE",
"909 919 OFFCURVE",
"966 930 OFFCURVE",
"1021 930 CURVE",
"1059 1110 LINE",
"1020 1110 OFFCURVE",
"926 1058 OFFCURVE",
"849 994 CURVE",
"808 1070 OFFCURVE",
"729 1110 OFFCURVE",
"628 1110 CURVE SMOOTH",
"456 1110 OFFCURVE",
"317 994 OFFCURVE",
"276 817 CURVE SMOOTH",
"218 565 LINE SMOOTH",
"189 440 OFFCURVE",
"224 322 OFFCURVE",
"300 295 CURVE",
"194 260 OFFCURVE",
"110 172 OFFCURVE",
"110 103 CURVE SMOOTH",
"110 49 OFFCURVE",
"156 5 OFFCURVE",
"233 -13 CURVE",
"84 -72 OFFCURVE",
"-1 -154 OFFCURVE",
"-1 -231 CURVE SMOOTH",
"-1 -326 OFFCURVE",
"128 -386 OFFCURVE",
"343 -392 CURVE SMOOTH"
);
},
{
closed = 1;
nodes = (
"281 -222 OFFCURVE",
"231 -198 OFFCURVE",
"231 -150 CURVE SMOOTH",
"231 -113 OFFCURVE",
"264 -85 OFFCURVE",
"346 -48 CURVE",
"474 -71 LINE SMOOTH",
"554 -85 OFFCURVE",
"598 -95 OFFCURVE",
"598 -133 CURVE SMOOTH",
"598 -185 OFFCURVE",
"517 -222 OFFCURVE",
"386 -222 CURVE SMOOTH"
);
},
{
closed = 1;
nodes = (
"415 426 OFFCURVE",
"423 488 OFFCURVE",
"431 524 CURVE SMOOTH",
"494 819 LINE SMOOTH",
"508 884 OFFCURVE",
"541 919 OFFCURVE",
"589 919 CURVE SMOOTH",
"637 919 OFFCURVE",
"660 884 OFFCURVE",
"646 819 CURVE SMOOTH",
"583 524 LINE SMOOTH",
"569 457 OFFCURVE",
"536 426 OFFCURVE",
"486 426 CURVE SMOOTH"
);
}
);
width = 786.10526;
}
);
unicode = 0067;
},
{
color = 6;
glyphname = h;
lastChange = "2020-01-27 22:16:02 +0000";
layers = (
{
anchors = (
{
name = bottom;
position = "{337, 0}";
},
{
name = center;
position = "{337, 735}";
},
{
name = top;
position = "{738, 1470}";
}
);
background = {
paths = (
{
closed = 1;
nodes = (
"282 0 LINE",
"80 0 LINE",
"392 1470 LINE",
"594 1470 LINE",
"494 1002 LINE",
"498 1004 OFFCURVE",
"508 1010 OFFCURVE",
"522 1024 CURVE",
"536 1034 OFFCURVE",
"552 1046 OFFCURVE",
"570 1060 CURVE SMOOTH",
"604 1086 OFFCURVE",
"646 1110 OFFCURVE",
"680 1110 CURVE SMOOTH",
"734 1110 OFFCURVE",
"766 1078 OFFCURVE",
"782 1038 CURVE",
"796 996 OFFCURVE",
"798 942 OFFCURVE",
"788 896 CURVE SMOOTH",
"598 0 LINE",
"396 0 LINE",
"580 866 LINE SMOOTH",
"588 908 OFFCURVE",
"566 914 OFFCURVE",
"542 914 CURVE SMOOTH",
"520 914 OFFCURVE",
"504 902 OFFCURVE",
"488 888 CURVE",
"484 884 OFFCURVE",
"480 880 OFFCURVE",
"476 876 CURVE SMOOTH",
"472 872 OFFCURVE",
"468 868 OFFCURVE",
"464 862 CURVE"
);
}
);
};
layerId = "E10EC336-1202-48FF-9A55-15876E80CDFD";
paths = (
{
closed = 1;
nodes = (
"282 0 LINE",
"465 865 LINE",
"501 906 OFFCURVE",
"519 914 OFFCURVE",
"549 914 CURVE SMOOTH",
"575 914 OFFCURVE",
"586 897 OFFCURVE",
"580 866 CURVE SMOOTH",
"396 0 LINE",
"598 0 LINE",
"788 896 LINE SMOOTH",
"813 1020 OFFCURVE",
"767 1110 OFFCURVE",
"679 1110 CURVE SMOOTH",
"635 1110 OFFCURVE",
"565 1066 OFFCURVE",
"492 996 CURVE",
"594 1470 LINE",
"392 1470 LINE",
"80 0 LINE"
);
}
);
width = 674;
},
{
anchors = (
{
name = bottom;
position = "{229, 0}";
},
{
name = center;
position = "{229, 735}";
},
{
name = top;
position = "{514, 1470}";
}
);
background = {
paths = (
{
closed = 1;
nodes = (
"292 862 LINE",
"298 888 OFFCURVE",
"312 934 OFFCURVE",
"334 934 CURVE SMOOTH",
"358 934 OFFCURVE",
"350 886 OFFCURVE",
"344 862 CURVE SMOOTH",
"160 0 LINE",
"310 0 LINE",
"502 896 LINE SMOOTH",
"516 962 OFFCURVE",
"530 1110 OFFCURVE",
"430 1110 CURVE SMOOTH",
"396 1110 OFFCURVE",
"342 1074 OFFCURVE",
"332 1048 CURVE",
"422 1470 LINE",
"264 1470 LINE",
"-48 0 LINE",
"108 0 LINE"
);
}
);
};
layerId = "38BA14EB-08C8-4487-88C1-8F957131FCA1";
paths = (
{
closed = 1;
nodes = (
"108 0 LINE",
"292 859 LINE SMOOTH",
"303 908 OFFCURVE",
"318 934 OFFCURVE",
"334 934 CURVE SMOOTH",
"351 934 OFFCURVE",
"355 906 OFFCURVE",
"344 862 CURVE SMOOTH",
"160 0 LINE",
"310 0 LINE",
"502 896 LINE SMOOTH",
"529 1022 OFFCURVE",
"499 1110 OFFCURVE",
"430 1110 CURVE SMOOTH",
"397 1110 OFFCURVE",
"363 1090 OFFCURVE",
"334 1057 CURVE",
"422 1470 LINE",
"264 1470 LINE",
"-48 0 LINE"
);
}
);
width = 458;
},
{
anchors = (
{
name = bottom;
position = "{394, 0}";
},
{
name = center;
position = "{394, 735}";
},
{
name = top;
position = "{856, 1470}";
}
);
layerId = "A5A4D350-C0CB-4C36-867F-06890CC9F434";
paths = (
{
closed = 1;
nodes = (
"374 0 LINE",
"575 864 LINE SMOOTH",
"585 905 OFFCURVE",
"616 904 OFFCURVE",
"662 903 CURVE SMOOTH",
"708 902 OFFCURVE",
"706 880 OFFCURVE",
"703 868 CURVE SMOOTH",
"520 0 LINE",
"750 0 LINE",
"938 896 LINE SMOOTH",
"964 1019 OFFCURVE",
"903 1110 OFFCURVE",
"819 1110 CURVE SMOOTH",
"754 1110 OFFCURVE",
"675 1055 OFFCURVE",
"575 964 CURVE",
"685 1470 LINE",
"459 1470 LINE",
"147 0 LINE"
);
}
);
width = 787.68421;
}
);
rightKerningGroup = b;
unicode = 0068;
},
{
color = 6;
glyphname = hbar;
lastChange = "2020-01-27 22:16:02 +0000";
layers = (
{
background = {
paths = (
{
closed = 1;
nodes = (
"282 0 LINE",
"464 862 LINE",
"468 868 OFFCURVE",
"472 872 OFFCURVE",
"476 876 CURVE SMOOTH",
"480 880 OFFCURVE",
"484 884 OFFCURVE",
"488 888 CURVE",
"504 902 OFFCURVE",
"520 914 OFFCURVE",
"542 914 CURVE SMOOTH",
"566 914 OFFCURVE",
"588 908 OFFCURVE",
"580 866 CURVE SMOOTH",
"396 0 LINE",
"598 0 LINE",
"788 896 LINE SMOOTH",
"798 942 OFFCURVE",
"796 996 OFFCURVE",
"782 1038 CURVE",
"766 1078 OFFCURVE",
"734 1110 OFFCURVE",
"680 1110 CURVE SMOOTH",
"646 1110 OFFCURVE",
"604 1086 OFFCURVE",
"570 1060 CURVE SMOOTH",
"552 1046 OFFCURVE",
"536 1034 OFFCURVE",
"522 1024 CURVE",
"508 1010 OFFCURVE",
"498 1004 OFFCURVE",
"494 1002 CURVE",
"542 1224 LINE",
"652 1224 LINE",
"684 1382 LINE",
"574 1382 LINE",
"594 1470 LINE",
"392 1470 LINE",
"372 1382 LINE",
"296 1382 LINE",
"264 1224 LINE",
"340 1224 LINE",
"80 0 LINE"
);
}
);
};
layerId = "E10EC336-1202-48FF-9A55-15876E80CDFD";
paths = (
{
closed = 1;
nodes = (
"282 0 LINE",
"465 862 LINE",
"498 900 OFFCURVE",
"517 914 OFFCURVE",
"542 914 CURVE SMOOTH",
"576 914 OFFCURVE",
"587 900 OFFCURVE",
"580 866 CURVE SMOOTH",
"396 0 LINE",
"598 0 LINE",
"788 896 LINE SMOOTH",
"814 1017 OFFCURVE",
"767 1110 OFFCURVE",
"682 1110 CURVE SMOOTH",
"639 1110 OFFCURVE",
"574 1072 OFFCURVE",
"495 1000 CURVE",
"542 1224 LINE",
"652 1224 LINE",
"686 1382 LINE",
"576 1382 LINE",
"594 1470 LINE",
"392 1470 LINE",
"374 1382 LINE",
"298 1382 LINE",
"264 1224 LINE",
"340 1224 LINE",
"80 0 LINE"
);
}
);
width = 674;
},
{
layerId = "38BA14EB-08C8-4487-88C1-8F957131FCA1";
paths = (
{
closed = 1;
nodes = (
"108 0 LINE",
"292 862 LINE SMOOTH",
"302 906 OFFCURVE",
"318 934 OFFCURVE",
"334 934 CURVE SMOOTH",
"351 934 OFFCURVE",
"355 905 OFFCURVE",
"344 862 CURVE SMOOTH",
"160 0 LINE",
"310 0 LINE",
"502 896 LINE SMOOTH",
"528 1020 OFFCURVE",
"498 1110 OFFCURVE",
"430 1110 CURVE SMOOTH",
"398 1110 OFFCURVE",
"345 1078 OFFCURVE",
"332 1050 CURVE",
"370 1224 LINE",
"436 1224 LINE",
"468 1382 LINE",
"402 1382 LINE",
"422 1470 LINE",
"264 1470 LINE",
"244 1382 LINE",
"198 1382 LINE",
"166 1224 LINE",
"212 1224 LINE",
"-48 0 LINE"
);
}
);
width = 464;
},
{
layerId = "A5A4D350-C0CB-4C36-867F-06890CC9F434";
paths = (
{
closed = 1;
nodes = (
"374 0 LINE",
"573 858 LINE SMOOTH",
"577 876 OFFCURVE",
"584 903 OFFCURVE",
"653 903 CURVE SMOOTH",
"712 903 OFFCURVE",
"706 883 OFFCURVE",
"703 868 CURVE SMOOTH",
"520 0 LINE",
"750 0 LINE",
"939 896 LINE SMOOTH",
"964 1015 OFFCURVE",
"907 1110 OFFCURVE",
"821 1110 CURVE SMOOTH",
"764 1110 OFFCURVE",
"695 1069 OFFCURVE",
"581 974 CURVE",
"633 1224 LINE",
"766 1224 LINE",
"801 1382 LINE",
"668 1382 LINE",
"685 1470 LINE",
"459 1470 LINE",
"442 1382 LINE",
"351 1382 LINE",
"316 1224 LINE",
"407 1224 LINE",
"147 0 LINE"
);
}
);
width = 784.52632;
}
);
unicode = 0127;
},
{
color = 6;
glyphname = i;
lastChange = "2020-01-27 22:14:58 +0000";
layers = (
{
anchors = (
{
name = bottom;
position = "{181, 0}";
}
);
layerId = "E10EC336-1202-48FF-9A55-15876E80CDFD";
paths = (
{
closed = 1;
nodes = (
"282 0 LINE",
"514 1094 LINE",
"312 1094 LINE",
"80 0 LINE"
);
},
{
closed = 1;
nodes = (
"550 1268 LINE",
"594 1470 LINE",
"392 1470 LINE",
"348 1268 LINE"
);
}
);
width = 362;
},
{
anchors = (
{
name = bottom;
position = "{132, 0}";
}
);
layerId = "38BA14EB-08C8-4487-88C1-8F957131FCA1";
paths = (
{
closed = 1;
nodes = (
"108 0 LINE",
"342 1094 LINE",
"184 1094 LINE",
"-48 0 LINE"
);
},
{
closed = 1;
nodes = (
"378 1268 LINE",
"422 1470 LINE",
"264 1470 LINE",
"220 1268 LINE"
);
}
);
width = 264;
},
{
anchors = (
{
name = bottom;
position = "{207, 0}";
}
);
layerId = "A5A4D350-C0CB-4C36-867F-06890CC9F434";
paths = (
{
closed = 1;
nodes = (
"374 0 LINE",
"605 1094 LINE",
"379 1094 LINE",
"147 0 LINE"
);
},
{
closed = 1;
nodes = (
"641 1268 LINE",
"685 1470 LINE",
"459 1470 LINE",
"415 1268 LINE"
);
}
);
width = 413.57895;
}
);
leftKerningGroup = l;
rightKerningGroup = l;
unicode = 0069;
},
{
color = 6;
glyphname = idotless;
lastChange = "2020-01-27 22:14:58 +0000";
layers = (
{
anchors = (
{
name = bottom;
position = "{181, 0}";
},
{
name = ogonek;
position = "{282, 0}";
},
{
name = top;
position = "{468, 1094}";
}
);
layerId = "E10EC336-1202-48FF-9A55-15876E80CDFD";
paths = (
{
closed = 1;
nodes = (
"282 0 LINE",
"514 1094 LINE",
"312 1094 LINE",
"80 0 LINE"
);
}
);
width = 362;
},
{
anchors = (
{
name = bottom;
position = "{47, 0}";
},
{
name = ogonek;
position = "{128, 0}";
},
{
name = top;
position = "{343, 1094}";
}
);
layerId = "38BA14EB-08C8-4487-88C1-8F957131FCA1";
paths = (
{
closed = 1;
nodes = (
"128 0 LINE",
"362 1094 LINE",
"204 1094 LINE",
"-28 0 LINE"
);
}
);
width = 278;
},
{
anchors = (
{
name = bottom;
position = "{252, 0}";
},
{
name = ogonek;
position = "{363, 0}";
},
{
name = top;
position = "{534, 1094}";
}
);
layerId = "A5A4D350-C0CB-4C36-867F-06890CC9F434";
paths = (
{
closed = 1;
nodes = (
"363 0 LINE",
"594 1094 LINE",
"369 1094 LINE",
"137 0 LINE"
);
}
);
width = 406.21053;
}
);
unicode = 0131;
},
{
color = 6;
glyphname = j;
lastChange = "2020-01-27 22:16:02 +0000";
layers = (
{
background = {
paths = (
{
closed = 1;
nodes = (
"78 -376 OFFCURVE",
"150 -318 OFFCURVE",
"196 -244 CURVE SMOOTH",
"238 -172 OFFCURVE",
"256 -84 OFFCURVE",
"270 -28 CURVE SMOOTH",
"508 1094 LINE",
"306 1094 LINE",
"68 -26 LINE SMOOTH",
"66 -32 OFFCURVE",
"64 -40 OFFCURVE",
"64 -46 CURVE",
"62 -54 OFFCURVE",
"60 -62 OFFCURVE",
"58 -72 CURVE",
"52 -90 OFFCURVE",
"48 -108 OFFCURVE",
"42 -124 CURVE SMOOTH",
"28 -158 OFFCURVE",
"6 -186 OFFCURVE",
"-26 -186 CURVE SMOOTH",
"-40 -186 OFFCURVE",
"-50 -184 OFFCURVE",
"-64 -182 CURVE",
"-66 -180 OFFCURVE",
"-70 -180 OFFCURVE",
"-72 -180 CURVE SMOOTH",
"-74 -180 OFFCURVE",
"-78 -180 OFFCURVE",
"-80 -178 CURVE",
"-120 -364 LINE",
"-118 -366 OFFCURVE",
"-114 -366 OFFCURVE",
"-112 -366 CURVE",
"-110 -368 OFFCURVE",
"-106 -368 OFFCURVE",
"-102 -370 CURVE",
"-88 -374 OFFCURVE",
"-66 -376 OFFCURVE",
"-34 -376 CURVE SMOOTH"
);
},
{
closed = 1;
nodes = (
"544 1268 LINE",
"588 1470 LINE",
"386 1470 LINE",
"342 1268 LINE"
);
}
);
};
layerId = "E10EC336-1202-48FF-9A55-15876E80CDFD";
paths = (
{
closed = 1;
nodes = (
"127 -376 OFFCURVE",
"218 -272 OFFCURVE",
"270 -28 CURVE SMOOTH",
"508 1094 LINE",
"306 1094 LINE",
"68 -26 LINE SMOOTH",
"52 -126 OFFCURVE",
"17 -186 OFFCURVE",
"-26 -186 CURVE SMOOTH",
"-41 -186 OFFCURVE",
"-61 -183 OFFCURVE",
"-80 -178 CURVE",
"-120 -364 LINE",
"-90 -373 OFFCURVE",
"-72 -376 OFFCURVE",
"-34 -376 CURVE SMOOTH"
);
},
{
closed = 1;
nodes = (
"544 1268 LINE",
"588 1470 LINE",
"386 1470 LINE",
"342 1268 LINE"
);
}
);
width = 356;
},
{
background = {
paths = (
{
closed = 1;
nodes = (
"-34 -376 OFFCURVE",
"22 -314 OFFCURVE",
"56 -244 CURVE SMOOTH",
"88 -172 OFFCURVE",
"108 -84 OFFCURVE",
"120 -28 CURVE SMOOTH",
"358 1094 LINE",
"200 1094 LINE",
"-46 -72 LINE SMOOTH",
"-56 -118 OFFCURVE",
"-68 -202 OFFCURVE",
"-134 -178 CURVE",
"-178 -360 LINE",
"-150 -374 OFFCURVE",
"-132 -376 OFFCURVE",
"-110 -376 CURVE SMOOTH"
);
},
{
closed = 1;
nodes = (
"394 1268 LINE",
"438 1470 LINE",
"280 1470 LINE",
"236 1268 LINE"
);
}
);
};
layerId = "38BA14EB-08C8-4487-88C1-8F957131FCA1";
paths = (
{
closed = 1;
nodes = (
"0 -376 OFFCURVE",
"67 -276 OFFCURVE",
"120 -28 CURVE SMOOTH",
"358 1094 LINE",
"200 1094 LINE",
"-46 -72 LINE SMOOTH",
"-66 -159 OFFCURVE",
"-80 -182 OFFCURVE",
"-112 -182 CURVE SMOOTH",
"-120 -182 OFFCURVE",
"-129 -180 OFFCURVE",
"-134 -178 CURVE",
"-178 -360 LINE",
"-156 -371 OFFCURVE",
"-134 -376 OFFCURVE",
"-110 -376 CURVE SMOOTH"
);
},
{
closed = 1;
nodes = (
"394 1268 LINE",
"438 1470 LINE",
"280 1470 LINE",
"236 1268 LINE"
);
}
);
width = 274;
},
{
layerId = "A5A4D350-C0CB-4C36-867F-06890CC9F434";
paths = (
{
closed = 1;
nodes = (
"268 -377 OFFCURVE",
"326 -139 OFFCURVE",
"349 -28 CURVE SMOOTH",
"587 1094 LINE",
"362 1094 LINE",
"132 -3 LINE SMOOTH",
"110 -108 OFFCURVE",
"70 -188 OFFCURVE",
"14 -188 CURVE SMOOTH",
"2 -188 OFFCURVE",
"-30 -184 OFFCURVE",
"-52 -178 CURVE",
"-89 -366 LINE",
"-71 -374 OFFCURVE",
"6 -377 OFFCURVE",
"8 -377 CURVE SMOOTH"
);
},
{
closed = 1;
nodes = (
"623 1268 LINE",
"667 1470 LINE",
"442 1470 LINE",
"398 1268 LINE"
);
}
);
width = 399.15789;
}
);
unicode = 006A;
},
{
color = 6;
glyphname = k;
lastChange = "2020-01-27 22:14:58 +0000";
layers = (
{
anchors = (
{
name = bottom;
position = "{348, 0}";
},
{
name = top;
position = "{313, 1470}";
}
);
layerId = "E10EC336-1202-48FF-9A55-15876E80CDFD";
paths = (
{
closed = 1;
nodes = (
"282 0 LINE",
"362 378 LINE",
"400 442 LINE",
"410 458 LINE",
"420 458 LINE",
"420 442 LINE",
"428 0 LINE",
"622 0 LINE",
"591 829 LINE",
"546 661 LINE",
"816 1094 LINE",
"634 1094 LINE",
"474 808 LINE",
"456 772 LINE",
"446 772 LINE",
"454 810 LINE",
"594 1470 LINE",
"392 1470 LINE",
"80 0 LINE"
);
}
);
width = 626;
},
{
anchors = (
{
name = bottom;
position = "{121, 0}";
},
{
name = top;
position = "{218, 1470}";
}
);
background = {
paths = (
{
closed = 1;
nodes = (
"102 0 LINE",
"202 464 LINE",
"172 0 LINE",
"324 0 LINE",
"350 773 LINE",
"321 670 LINE",
"562 1094 LINE",
"410 1094 LINE",
"288 866 LINE",
"416 1470 LINE",
"264 1470 LINE",
"-48 0 LINE"
);
}
);
};
layerId = "38BA14EB-08C8-4487-88C1-8F957131FCA1";
paths = (
{
closed = 1;
nodes = (
"102 0 LINE",
"190 408 LINE",
"191 413 LINE",
"201 464 LINE",
"203 464 LINE",
"199 417 LINE",
"172 0 LINE",
"324 0 LINE",
"350 773 LINE",
"321 670 LINE",
"562 1094 LINE",
"410 1094 LINE",
"297 883 LINE",
"289 866 LINE",
"287 866 LINE",
"292 885 LINE",
"416 1470 LINE",
"264 1470 LINE",
"-48 0 LINE"
);
}
);
width = 436;
},
{
anchors = (
{
name = bottom;
position = "{467, 0}";
},
{
name = top;
position = "{363, 1470}";
}
);
layerId = "A5A4D350-C0CB-4C36-867F-06890CC9F434";
paths = (
{
closed = 1;
nodes = (
"377 0 LINE",
"453 362 LINE",
"510 457 LINE",
"520 455 LINE",
"534 455 LINE",
"536 455 LINE",
"563 0 LINE",
"779 0 LINE",
"718 858 LINE",
"664 656 LINE",
"950 1094 LINE",
"752 1094 LINE",
"567 769 LINE",
"544 723 LINE",
"530 723 LINE",
"539 771 LINE",
"688 1470 LINE",
"459 1470 LINE",
"147 0 LINE"
);
}
);
width = 726;
}
);
unicode = 006B;
},
{
color = 6;
glyphname = l;
lastChange = "2020-01-27 22:14:58 +0000";
layers = (
{
anchors = (
{
name = bottom;
position = "{141, 0}";
},
{
name = center;
position = "{333, 735}";
},
{
name = top;
position = "{546, 1470}";
},
{
name = topright;
position = "{594, 1470}";
}
);
layerId = "E10EC336-1202-48FF-9A55-15876E80CDFD";
paths = (
{
closed = 1;
nodes = (
"282 0 LINE",
"594 1470 LINE",
"392 1470 LINE",
"80 0 LINE"
);
}
);
width = 362;
},
{
anchors = (
{
name = bottom;
position = "{3, 0}";
},
{
name = center;
position = "{180, 735}";
},
{
name = top;
position = "{401, 1470}";
},
{
name = topright;
position = "{422, 1470}";
}
);
layerId = "38BA14EB-08C8-4487-88C1-8F957131FCA1";
paths = (
{
closed = 1;
nodes = (
"108 0 LINE",
"422 1470 LINE",
"264 1470 LINE",
"-48 0 LINE"
);
}
);
width = 274;
},
{
anchors = (
{
name = bottom;
position = "{214, 0}";
},
{
name = center;
position = "{414, 735}";
},
{
name = top;
position = "{622, 1470}";
},
{
name = topright;
position = "{685, 1470}";
}
);
layerId = "A5A4D350-C0CB-4C36-867F-06890CC9F434";
paths = (
{
closed = 1;
nodes = (
"374 0 LINE",
"685 1470 LINE",
"459 1470 LINE",
"147 0 LINE"
);
}
);
width = 408.31579;
}
);
leftKerningGroup = l;
rightKerningGroup = l;
unicode = 006C;
},
{
color = 6;
glyphname = lslash;
lastChange = "2020-01-27 22:14:58 +0000";
layers = (
{
layerId = "E10EC336-1202-48FF-9A55-15876E80CDFD";
paths = (
{
closed = 1;
nodes = (
"330 0 LINE",
"496 782 LINE",
"610 858 LINE",
"656 1074 LINE",
"542 998 LINE",
"642 1470 LINE",
"440 1470 LINE",
"306 840 LINE",
"192 764 LINE",
"146 548 LINE",
"260 624 LINE",
"128 0 LINE"
);
}
);
width = 458;
},
{
layerId = "38BA14EB-08C8-4487-88C1-8F957131FCA1";
paths = (
{
closed = 1;
nodes = (
"136 0 LINE",
"304 784 LINE",
"378 862 LINE",
"432 1118 LINE",
"358 1042 LINE",
"450 1470 LINE",
"292 1470 LINE",
"157 837 LINE",
"82 760 LINE",
"28 504 LINE",
"102 580 LINE",
"-20 0 LINE"
);
}
);
width = 334;
},
{
layerId = "A5A4D350-C0CB-4C36-867F-06890CC9F434";
paths = (
{
closed = 1;
nodes = (
"432 0 LINE",
"597 781 LINE",
"732 856 LINE",
"774 1051 LINE",
"639 975 LINE",
"743 1470 LINE",
"518 1470 LINE",
"384 842 LINE",
"250 766 LINE",
"208 571 LINE",
"343 647 LINE",
"206 0 LINE"
);
}
);
width = 523.26316;
}
);
unicode = 0142;
},
{
color = 6;
glyphname = m;
lastChange = "2020-01-27 22:16:02 +0000";
layers = (
{
anchors = (
{
name = bottom;
position = "{499, 0}";
},
{
name = top;
position = "{756, 1094}";
}
);
background = {
paths = (
{
closed = 1;
nodes = (
"602 0 LINE",
"412 0 LINE",
"596 866 LINE SMOOTH",
"604 908 OFFCURVE",
"574 914 OFFCURVE",
"552 914 CURVE SMOOTH",
"530 914 OFFCURVE",
"508 902 OFFCURVE",
"492 888 CURVE",
"482 880 OFFCURVE",
"472 872 OFFCURVE",
"464 862 CURVE",
"282 0 LINE",
"80 0 LINE",
"312 1094 LINE",
"514 1094 LINE",
"494 1002 LINE",
"498 1004 OFFCURVE",
"508 1010 OFFCURVE",
"522 1024 CURVE",
"552 1046 OFFCURVE",
"590 1074 OFFCURVE",
"630 1096 CURVE SMOOTH",
"648 1106 OFFCURVE",
"666 1110 OFFCURVE",
"684 1110 CURVE SMOOTH",
"756 1110 OFFCURVE",
"786 1052 OFFCURVE",
"796 988 CURVE",
"800 990 OFFCURVE",
"806 994 OFFCURVE",
"812 1000 CURVE SMOOTH",
"818 1006 OFFCURVE",
"824 1012 OFFCURVE",
"834 1018 CURVE",
"868 1048 OFFCURVE",
"906 1072 OFFCURVE",
"948 1094 CURVE",
"970 1104 OFFCURVE",
"988 1110 OFFCURVE",
"1004 1110 CURVE SMOOTH",
"1058 1110 OFFCURVE",
"1090 1078 OFFCURVE",
"1106 1038 CURVE",
"1120 996 OFFCURVE",
"1122 942 OFFCURVE",
"1112 896 CURVE SMOOTH",
"922 0 LINE",
"732 0 LINE",
"916 866 LINE SMOOTH",
"924 908 OFFCURVE",
"894 914 OFFCURVE",
"872 914 CURVE SMOOTH",
"850 914 OFFCURVE",
"828 902 OFFCURVE",
"812 888 CURVE",
"802 880 OFFCURVE",
"792 872 OFFCURVE",
"784 862 CURVE"
);
}
);
};
layerId = "E10EC336-1202-48FF-9A55-15876E80CDFD";
paths = (
{
closed = 1;
nodes = (
"959 1110 OFFCURVE",
"911 1084 OFFCURVE",
"795 988 CURVE",
"783 1065 OFFCURVE",
"744 1110 OFFCURVE",
"686 1110 CURVE SMOOTH",
"642 1110 OFFCURVE",
"595 1084 OFFCURVE",
"494 1002 CURVE",
"514 1094 LINE",
"312 1094 LINE",
"80 0 LINE",
"282 0 LINE",
"465 865 LINE",
"497 898 OFFCURVE",
"525 914 OFFCURVE",
"552 914 CURVE SMOOTH",
"583 914 OFFCURVE",
"602 894 OFFCURVE",
"596 866 CURVE SMOOTH",
"412 0 LINE",
"602 0 LINE",
"785 864 LINE",
"821 901 OFFCURVE",
"846 914 OFFCURVE",
"872 914 CURVE SMOOTH",
"904 914 OFFCURVE",
"922 895 OFFCURVE",
"916 866 CURVE SMOOTH",
"732 0 LINE",
"922 0 LINE",
"1112 896 LINE SMOOTH",
"1137 1012 OFFCURVE",
"1088 1110 OFFCURVE",
"1004 1110 CURVE SMOOTH"
);
}
);
width = 998;
},
{
anchors = (
{
name = bottom;
position = "{266, 0}";
},
{
name = top;
position = "{548, 1094}";
}
);
background = {
paths = (
{
closed = 1;
nodes = (
"514 862 LINE SMOOTH",
"518 886 OFFCURVE",
"536 934 OFFCURVE",
"558 934 CURVE SMOOTH",
"580 934 OFFCURVE",
"582 904 OFFCURVE",
"574 862 CURVE SMOOTH",
"390 0 LINE",
"536 0 LINE",
"726 896 LINE SMOOTH",
"740 962 OFFCURVE",
"772 1110 OFFCURVE",
"672 1110 CURVE SMOOTH",
"628 1110 OFFCURVE",
"560 1074 OFFCURVE",
"532 1030 CURVE",
"536 1070 OFFCURVE",
"516 1110 OFFCURVE",
"472 1110 CURVE SMOOTH",
"434 1110 OFFCURVE",
"380 1076 OFFCURVE",
"348 1036 CURVE",
"360 1094 LINE",
"202 1094 LINE",
"-28 0 LINE",
"128 0 LINE",
"312 862 LINE SMOOTH",
"320 900 OFFCURVE",
"336 934 OFFCURVE",
"354 934 CURVE SMOOTH",
"374 934 OFFCURVE",
"380 908 OFFCURVE",
"370 866 CURVE SMOOTH",
"186 0 LINE",
"330 0 LINE"
);
}
);
};
layerId = "38BA14EB-08C8-4487-88C1-8F957131FCA1";
paths = (
{
closed = 1;
nodes = (
"625 1110 OFFCURVE",
"560 1073 OFFCURVE",
"532 1030 CURVE",
"537 1075 OFFCURVE",
"511 1110 OFFCURVE",
"472 1110 CURVE SMOOTH",
"435 1110 OFFCURVE",
"380 1077 OFFCURVE",
"348 1036 CURVE",
"360 1094 LINE",
"202 1094 LINE",
"-28 0 LINE",
"128 0 LINE",
"315 876 LINE SMOOTH",
"323 913 OFFCURVE",
"337 934 OFFCURVE",
"354 934 CURVE SMOOTH",
"372 934 OFFCURVE",
"379 906 OFFCURVE",
"370 866 CURVE SMOOTH",
"186 0 LINE",
"330 0 LINE",
"516 873 LINE SMOOTH",
"525 912 OFFCURVE",
"540 934 OFFCURVE",
"558 934 CURVE SMOOTH",
"578 934 OFFCURVE",
"584 907 OFFCURVE",
"574 862 CURVE SMOOTH",
"390 0 LINE",
"536 0 LINE",
"726 896 LINE SMOOTH",
"756 1037 OFFCURVE",
"738 1110 OFFCURVE",
"672 1110 CURVE SMOOTH"
);
}
);
width = 658;
},
{
anchors = (
{
name = bottom;
position = "{622, 0}";
},
{
name = top;
position = "{865, 1094}";
}
);
layerId = "A5A4D350-C0CB-4C36-867F-06890CC9F434";
paths = (
{
closed = 1;
nodes = (
"1135 1110 OFFCURVE",
"1096 1090 OFFCURVE",
"933 966 CURVE",
"912 1060 OFFCURVE",
"867 1110 OFFCURVE",
"799 1110 CURVE SMOOTH",
"751 1110 OFFCURVE",
"708 1088 OFFCURVE",
"571 984 CURVE",
"595 1094 LINE",
"370 1094 LINE",
"137 0 LINE",
"363 0 LINE",
"562 855 LINE SMOOTH",
"571 894 OFFCURVE",
"624 903 OFFCURVE",
"656 903 CURVE SMOOTH",
"694 903 OFFCURVE",
"720 888 OFFCURVE",
"715 866 CURVE SMOOTH",
"531 0 LINE",
"745 0 LINE",
"947 854 LINE SMOOTH",
"957 898 OFFCURVE",
"1006 903 OFFCURVE",
"1033 903 CURVE SMOOTH",
"1078 903 OFFCURVE",
"1100 889 OFFCURVE",
"1096 868 CURVE SMOOTH",
"912 0 LINE",
"1125 0 LINE",
"1316 896 LINE SMOOTH",
"1338 999 OFFCURVE",
"1272 1110 OFFCURVE",
"1179 1110 CURVE SMOOTH"
);
}
);
width = 1176.94737;
}
);
leftKerningGroup = n;
rightKerningGroup = b;
unicode = 006D;
},
{
color = 6;
glyphname = n;
lastChange = "2020-01-27 22:16:02 +0000";
layers = (
{
anchors = (
{
name = bottom;
position = "{337, 0}";
},
{
name = top;
position = "{571, 1094}";
}
);
background = {
paths = (
{
closed = 1;
nodes = (
"282 0 LINE",
"464 862 LINE",
"468 868 OFFCURVE",
"472 872 OFFCURVE",
"476 876 CURVE SMOOTH",
"480 880 OFFCURVE",
"484 884 OFFCURVE",
"488 888 CURVE",
"504 902 OFFCURVE",
"520 914 OFFCURVE",
"542 914 CURVE SMOOTH",
"566 914 OFFCURVE",
"588 908 OFFCURVE",
"580 866 CURVE SMOOTH",
"396 0 LINE",
"598 0 LINE",
"788 896 LINE SMOOTH",
"798 942 OFFCURVE",
"796 996 OFFCURVE",
"782 1038 CURVE",
"766 1078 OFFCURVE",
"734 1110 OFFCURVE",
"680 1110 CURVE SMOOTH",
"646 1110 OFFCURVE",
"604 1086 OFFCURVE",
"570 1060 CURVE SMOOTH",
"552 1046 OFFCURVE",
"536 1034 OFFCURVE",
"522 1024 CURVE",
"508 1010 OFFCURVE",
"498 1004 OFFCURVE",
"494 1002 CURVE",
"514 1094 LINE",
"312 1094 LINE",
"80 0 LINE"
);
}
);
};
layerId = "E10EC336-1202-48FF-9A55-15876E80CDFD";
paths = (
{
closed = 1;
nodes = (
"282 0 LINE",
"464 862 LINE",
"485 895 OFFCURVE",
"514 914 OFFCURVE",
"542 914 CURVE SMOOTH",
"571 914 OFFCURVE",
"585 895 OFFCURVE",
"580 866 CURVE SMOOTH",
"396 0 LINE",
"598 0 LINE",
"788 896 LINE SMOOTH",
"813 1014 OFFCURVE",
"765 1110 OFFCURVE",
"680 1110 CURVE SMOOTH",
"637 1110 OFFCURVE",
"601 1087 OFFCURVE",
"433 954 CURVE",
"475 913 LINE",
"514 1094 LINE",
"312 1094 LINE",
"80 0 LINE"
);
}
);
width = 674;
},
{
anchors = (
{
name = bottom;
position = "{154, 0}";
},
{
name = top;
position = "{424, 1094}";
}
);
background = {
paths = (
{
closed = 1;
nodes = (
"312 862 LINE SMOOTH",
"320 904 OFFCURVE",
"334 934 OFFCURVE",
"354 934 CURVE SMOOTH",
"374 934 OFFCURVE",
"378 906 OFFCURVE",
"370 864 CURVE SMOOTH",
"186 0 LINE",
"342 0 LINE",
"532 896 LINE SMOOTH",
"546 962 OFFCURVE",
"570 1110 OFFCURVE",
"470 1110 CURVE SMOOTH",
"436 1110 OFFCURVE",
"376 1068 OFFCURVE",
"348 1038 CURVE",
"360 1094 LINE",
"202 1094 LINE",
"-28 0 LINE",
"128 0 LINE"
);
}
);
};
layerId = "38BA14EB-08C8-4487-88C1-8F957131FCA1";
paths = (
{
closed = 1;
nodes = (
"128 0 LINE",
"312 862 LINE SMOOTH",
"321 908 OFFCURVE",
"336 934 OFFCURVE",
"354 934 CURVE SMOOTH",
"373 934 OFFCURVE",
"379 909 OFFCURVE",
"370 864 CURVE SMOOTH",
"186 0 LINE",
"342 0 LINE",
"532 896 LINE SMOOTH",
"560 1028 OFFCURVE",
"539 1110 OFFCURVE",
"478 1110 CURVE SMOOTH",
"430 1110 OFFCURVE",
"341 1049 OFFCURVE",
"334 1011 CURVE",
"336 984 LINE",
"360 1094 LINE",
"202 1094 LINE",
"-28 0 LINE"
);
}
);
width = 464;
},
{
anchors = (
{
name = bottom;
position = "{433, 0}";
},
{
name = top;
position = "{648, 1094}";
}
);
layerId = "A5A4D350-C0CB-4C36-867F-06890CC9F434";
paths = (
{
closed = 1;
nodes = (
"363 0 LINE",
"554 860 LINE SMOOTH",
"561 890 OFFCURVE",
"607 903 OFFCURVE",
"640 903 CURVE SMOOTH",
"675 903 OFFCURVE",
"694 888 OFFCURVE",
"690 867 CURVE SMOOTH",
"507 0 LINE",
"733 0 LINE",
"923 896 LINE SMOOTH",
"944 993 OFFCURVE",
"897 1110 OFFCURVE",
"781 1110 CURVE SMOOTH",
"747 1110 OFFCURVE",
"738 1107 OFFCURVE",
"485 924 CURVE",
"548 876 LINE",
"595 1094 LINE",
"370 1094 LINE",
"137 0 LINE"
);
}
);
width = 784.52632;
}
);
leftKerningGroup = n;
rightKerningGroup = b;
unicode = 006E;
},
{
color = 6;
glyphname = eng;
lastChange = "2020-01-27 22:16:02 +0000";
layers = (
{
background = {
paths = (
{
closed = 1;
nodes = (
"352 -270 OFFCURVE",
"432 -242 OFFCURVE",
"488 -200 CURVE SMOOTH",
"544 -160 OFFCURVE",
"574 -100 OFFCURVE",
"588 -38 CURVE SMOOTH",
"790 904 LINE",
"796 950 OFFCURVE",
"796 998 OFFCURVE",
"782 1038 CURVE SMOOTH",
"766 1078 OFFCURVE",
"734 1110 OFFCURVE",
"680 1110 CURVE SMOOTH",
"646 1110 OFFCURVE",
"604 1086 OFFCURVE",
"570 1060 CURVE SMOOTH",
"552 1046 OFFCURVE",
"536 1034 OFFCURVE",
"522 1024 CURVE",
"508 1010 OFFCURVE",
"498 1004 OFFCURVE",
"494 1002 CURVE",
"514 1094 LINE",
"312 1094 LINE",
"80 0 LINE",
"282 0 LINE",
"464 862 LINE",
"468 868 OFFCURVE",
"472 872 OFFCURVE",
"476 876 CURVE SMOOTH",
"488 888 LINE SMOOTH",
"504 902 OFFCURVE",
"520 914 OFFCURVE",
"542 914 CURVE SMOOTH",
"566 914 OFFCURVE",
"588 908 OFFCURVE",
"580 866 CURVE SMOOTH",
"392 -12 LINE",
"378 -66 OFFCURVE",
"338 -112 OFFCURVE",
"268 -96 CURVE",
"232 -264 LINE"
);
}
);
};
layerId = "E10EC336-1202-48FF-9A55-15876E80CDFD";
paths = (
{
closed = 1;
nodes = (
"338 -269 OFFCURVE",
"426 -247 OFFCURVE",
"490 -200 CURVE SMOOTH",
"542 -161 OFFCURVE",
"575 -108 OFFCURVE",
"590 -38 CURVE SMOOTH",
"789 904 LINE SMOOTH",
"813 1012 OFFCURVE",
"764 1110 OFFCURVE",
"686 1110 CURVE SMOOTH",
"642 1110 OFFCURVE",
"580 1075 OFFCURVE",
"495 1002 CURVE",
"515 1094 LINE",
"313 1094 LINE",
"80 0 LINE",
"282 0 LINE",
"465 862 LINE",
"495 900 OFFCURVE",
"516 914 OFFCURVE",
"542 914 CURVE SMOOTH",
"572 914 OFFCURVE",
"586 896 OFFCURVE",
"580 866 CURVE SMOOTH",
"393 -12 LINE SMOOTH",
"386 -45 OFFCURVE",
"380 -57 OFFCURVE",
"365 -70 CURVE SMOOTH",
"340 -91 OFFCURVE",
"301 -102 OFFCURVE",
"270 -96 CURVE",
"234 -264 LINE"
);
}
);
width = 674;
},
{
layerId = "38BA14EB-08C8-4487-88C1-8F957131FCA1";
paths = (
{
closed = 1;
nodes = (
"163 -271 OFFCURVE",
"227 -250 OFFCURVE",
"272 -200 CURVE SMOOTH",
"306 -162 OFFCURVE",
"335 -100 OFFCURVE",
"348 -38 CURVE SMOOTH",
"546 896 LINE SMOOTH",
"572 1019 OFFCURVE",
"546 1110 OFFCURVE",
"484 1110 CURVE SMOOTH",
"451 1110 OFFCURVE",
"404 1082 OFFCURVE",
"362 1038 CURVE",
"374 1094 LINE",
"216 1094 LINE",
"-14 0 LINE",
"142 0 LINE",
"326 862 LINE SMOOTH",
"335 910 OFFCURVE",
"350 934 OFFCURVE",
"368 934 CURVE SMOOTH",
"387 934 OFFCURVE",
"393 908 OFFCURVE",
"384 866 CURVE SMOOTH",
"198 -12 LINE SMOOTH",
"190 -44 OFFCURVE",
"184 -60 OFFCURVE",
"178 -70 CURVE SMOOTH",
"166 -87 OFFCURVE",
"140 -96 OFFCURVE",
"118 -90 CURVE",
"80 -264 LINE"
);
}
);
width = 464;
},
{
layerId = "A5A4D350-C0CB-4C36-867F-06890CC9F434";
paths = (
{
closed = 1;
nodes = (
"430 -268 OFFCURVE",
"534 -245 OFFCURVE",
"606 -199 CURVE SMOOTH",
"695 -142 OFFCURVE",
"711 -67 OFFCURVE",
"717 -38 CURVE SMOOTH",
"918 908 LINE SMOOTH",
"939 1008 OFFCURVE",
"879 1110 OFFCURVE",
"792 1110 CURVE SMOOTH",
"743 1110 OFFCURVE",
"673 1071 OFFCURVE",
"565 983 CURVE",
"589 1094 LINE",
"364 1094 LINE",
"129 0 LINE",
"356 0 LINE",
"554 858 LINE SMOOTH",
"563 896 OFFCURVE",
"599 903 OFFCURVE",
"629 903 CURVE SMOOTH",
"671 903 OFFCURVE",
"688 890 OFFCURVE",
"683 866 CURVE SMOOTH",
"496 -12 LINE SMOOTH",
"490 -40 OFFCURVE",
"486 -53 OFFCURVE",
"463 -70 CURVE SMOOTH",
"432 -93 OFFCURVE",
"386 -105 OFFCURVE",
"350 -99 CURVE",
"315 -264 LINE"
);
}
);
width = 784.52632;
}
);
unicode = 014B;
},
{
color = 6;
glyphname = o;
lastChange = "2020-01-27 22:16:02 +0000";
layers = (
{
anchors = (
{
name = bottom;
position = "{321, 0}";
},
{
name = center;
position = "{321, 547}";
},
{
name = ogonek;
position = "{374, 0}";
},
{
name = top;
position = "{637, 1094}";
},
{
name = topright;
position = "{827, 1110}";
}
);
background = {
paths = (
{
closed = 1;
nodes = (
"382 -16 OFFCURVE",
"434 -2 OFFCURVE",
"476 28 CURVE SMOOTH",
"562 86 OFFCURVE",
"606 160 OFFCURVE",
"636 266 CURVE",
"754 828 LINE SMOOTH",
"764 882 OFFCURVE",
"762 926 OFFCURVE",
"752 968 CURVE SMOOTH",
"744 1002 OFFCURVE",
"728 1040 OFFCURVE",
"696 1066 CURVE SMOOTH",
"664 1092 OFFCURVE",
"618 1110 OFFCURVE",
"554 1110 CURVE SMOOTH",
"488 1110 OFFCURVE",
"434 1096 OFFCURVE",
"396 1066 CURVE",
"310 1004 OFFCURVE",
"266 928 OFFCURVE",
"236 822 CURVE",
"118 272 LINE",
"110 222 OFFCURVE",
"110 174 OFFCURVE",
"120 128 CURVE SMOOTH",
"128 90 OFFCURVE",
"144 58 OFFCURVE",
"176 30 CURVE SMOOTH",
"206 2 OFFCURVE",
"252 -16 OFFCURVE",
"316 -16 CURVE SMOOTH"
);
},
{
closed = 1;
nodes = (
"336 162 OFFCURVE",
"322 168 OFFCURVE",
"314 178 CURVE",
"300 202 OFFCURVE",
"298 234 OFFCURVE",
"308 272 CURVE",
"426 822 LINE",
"428 844 OFFCURVE",
"434 862 OFFCURVE",
"444 878 CURVE",
"458 908 OFFCURVE",
"480 934 OFFCURVE",
"518 934 CURVE SMOOTH",
"536 934 OFFCURVE",
"550 928 OFFCURVE",
"558 918 CURVE",
"572 896 OFFCURVE",
"574 864 OFFCURVE",
"564 822 CURVE SMOOTH",
"446 272 LINE",
"444 250 OFFCURVE",
"438 232 OFFCURVE",
"428 216 CURVE",
"414 186 OFFCURVE",
"392 162 OFFCURVE",
"354 162 CURVE SMOOTH"
);
}
);
};
layerId = "E10EC336-1202-48FF-9A55-15876E80CDFD";
paths = (
{
closed = 1;
nodes = (
"471 -16 OFFCURVE",
"601 98 OFFCURVE",
"637 266 CURVE SMOOTH",
"756 828 LINE SMOOTH",
"791 995 OFFCURVE",
"710 1110 OFFCURVE",
"556 1110 CURVE SMOOTH",
"401 1110 OFFCURVE",
"274 995 OFFCURVE",
"237 822 CURVE SMOOTH",
"120 272 LINE SMOOTH",
"83 99 OFFCURVE",
"162 -16 OFFCURVE",
"317 -16 CURVE SMOOTH"
);
},
{
closed = 1;
nodes = (
"310 162 OFFCURVE",
"294 200 OFFCURVE",
"310 272 CURVE SMOOTH",
"427 822 LINE SMOOTH",
"443 898 OFFCURVE",
"473 934 OFFCURVE",
"519 934 CURVE SMOOTH",
"565 934 OFFCURVE",
"581 896 OFFCURVE",
"565 822 CURVE SMOOTH",
"448 272 LINE SMOOTH",
"433 201 OFFCURVE",
"400 162 OFFCURVE",
"355 162 CURVE SMOOTH"
);
}
);
width = 642;
},
{
anchors = (
{
name = bottom;
position = "{223, 0}";
},
{
name = center;
position = "{223, 547}";
},
{
name = ogonek;
position = "{202, 0}";
},
{
name = top;
position = "{451, 1094}";
},
{
name = topright;
position = "{582, 1094}";
}
);
background = {
paths = (
{
closed = 1;
nodes = (
"267 -16 OFFCURVE",
"349 78 OFFCURVE",
"388 266 CURVE SMOOTH",
"506 828 LINE SMOOTH",
"546 1024 OFFCURVE",
"509 1110 OFFCURVE",
"384 1110 CURVE SMOOTH",
"256 1110 OFFCURVE",
"178 1020 OFFCURVE",
"136 822 CURVE SMOOTH",
"18 272 LINE SMOOTH",
"-23 79 OFFCURVE",
"18 -16 OFFCURVE",
"142 -16 CURVE SMOOTH"
);
},
{
closed = 1;
nodes = (
"159 162 OFFCURVE",
"153 197 OFFCURVE",
"164 252 CURVE SMOOTH",
"290 842 LINE SMOOTH",
"304 906 OFFCURVE",
"321 934 OFFCURVE",
"346 934 CURVE SMOOTH",
"370 934 OFFCURVE",
"374 907 OFFCURVE",
"360 842 CURVE SMOOTH",
"234 252 LINE SMOOTH",
"222 197 OFFCURVE",
"201 162 OFFCURVE",
"180 162 CURVE SMOOTH"
);
}
);
};
layerId = "38BA14EB-08C8-4487-88C1-8F957131FCA1";
paths = (
{
closed = 1;
nodes = (
"267 -16 OFFCURVE",
"347 77 OFFCURVE",
"387 266 CURVE SMOOTH",
"506 828 LINE SMOOTH",
"547 1021 OFFCURVE",
"508 1110 OFFCURVE",
"382 1110 CURVE SMOOTH",
"255 1110 OFFCURVE",
"177 1019 OFFCURVE",
"135 822 CURVE SMOOTH",
"18 272 LINE SMOOTH",
"-23 78 OFFCURVE",
"18 -16 OFFCURVE",
"143 -16 CURVE SMOOTH"
);
},
{
closed = 1;
nodes = (
"160 162 OFFCURVE",
"153 199 OFFCURVE",
"164 252 CURVE SMOOTH",
"289 842 LINE SMOOTH",
"303 907 OFFCURVE",
"319 934 OFFCURVE",
"345 934 CURVE SMOOTH",
"370 934 OFFCURVE",
"373 909 OFFCURVE",
"359 842 CURVE SMOOTH",
"234 252 LINE SMOOTH",
"222 196 OFFCURVE",
"202 162 OFFCURVE",
"181 162 CURVE SMOOTH"
);
}
);
width = 446;
},
{
anchors = (
{
name = bottom;
position = "{373, 0}";
},
{
name = center;
position = "{373, 547}";
},
{
name = ogonek;
position = "{465, 0}";
},
{
name = top;
position = "{735, 1094}";
},
{
name = topright;
position = "{956, 1118}";
}
);
layerId = "A5A4D350-C0CB-4C36-867F-06890CC9F434";
paths = (
{
closed = 1;
nodes = (
"578 -16 OFFCURVE",
"736 109 OFFCURVE",
"769 266 CURVE SMOOTH",
"887 828 LINE SMOOTH",
"919 981 OFFCURVE",
"816 1110 OFFCURVE",
"648 1110 CURVE SMOOTH",
"478 1110 OFFCURVE",
"325 982 OFFCURVE",
"291 822 CURVE SMOOTH",
"174 272 LINE SMOOTH",
"139 108 OFFCURVE",
"240 -16 OFFCURVE",
"409 -16 CURVE SMOOTH"
);
},
{
closed = 1;
nodes = (
"389 162 OFFCURVE",
"368 201 OFFCURVE",
"386 283 CURVE SMOOTH",
"500 811 LINE SMOOTH",
"518 893 OFFCURVE",
"554 934 OFFCURVE",
"611 934 CURVE SMOOTH",
"668 934 OFFCURVE",
"690 889 OFFCURVE",
"673 811 CURVE SMOOTH",
"561 283 LINE SMOOTH",
"544 204 OFFCURVE",
"504 162 OFFCURVE",
"447 162 CURVE SMOOTH"
);
}
);
width = 745.15789;
}
);
leftKerningGroup = c;
rightKerningGroup = c;
unicode = 006F;
},
{
color = 6;
glyphname = oslash;
lastChange = "2020-01-27 22:16:02 +0000";
layers = (
{
anchors = (
{
name = bottom;
position = "{321, 0}";
},
{
name = center;
position = "{321, 547}";
},
{
name = ogonek;
position = "{578, 10}";
},
{
name = top;
position = "{321, 1094}";
},
{
name = topright;
position = "{622, 1094}";
}
);
background = {
paths = (
{
closed = 1;
nodes = (
"182 -76 LINE",
"220 0 LINE",
"248 -10 OFFCURVE",
"280 -16 OFFCURVE",
"316 -16 CURVE SMOOTH",
"382 -16 OFFCURVE",
"434 -2 OFFCURVE",
"476 28 CURVE SMOOTH",
"562 86 OFFCURVE",
"606 160 OFFCURVE",
"636 266 CURVE",
"754 828 LINE",
"758 856 OFFCURVE",
"760 884 OFFCURVE",
"760 910 CURVE",
"754 956 OFFCURVE",
"748 1010 OFFCURVE",
"710 1052 CURVE",
"766 1170 LINE",
"692 1170 LINE",
"656 1092 LINE",
"626 1102 OFFCURVE",
"594 1110 OFFCURVE",
"554 1110 CURVE SMOOTH",
"488 1110 OFFCURVE",
"434 1096 OFFCURVE",
"396 1066 CURVE",
"310 1004 OFFCURVE",
"266 928 OFFCURVE",
"236 822 CURVE",
"118 272 LINE SMOOTH",
"112 246 OFFCURVE",
"110 218 OFFCURVE",
"110 188 CURVE SMOOTH",
"110 140 OFFCURVE",
"122 84 OFFCURVE",
"160 42 CURVE",
"104 -76 LINE"
);
},
{
closed = 1;
nodes = (
"328 162 OFFCURVE",
"314 172 OFFCURVE",
"308 192 CURVE",
"530 666 LINE",
"446 272 LINE",
"444 250 OFFCURVE",
"438 232 OFFCURVE",
"428 216 CURVE",
"414 186 OFFCURVE",
"392 162 OFFCURVE",
"354 162 CURVE SMOOTH"
);
},
{
closed = 1;
nodes = (
"426 822 LINE",
"428 844 OFFCURVE",
"434 862 OFFCURVE",
"444 878 CURVE",
"458 908 OFFCURVE",
"480 934 OFFCURVE",
"518 934 CURVE SMOOTH",
"548 934 OFFCURVE",
"558 922 OFFCURVE",
"564 900 CURVE",
"342 426 LINE"
);
}
);
};
layerId = "E10EC336-1202-48FF-9A55-15876E80CDFD";
paths = (
{
closed = 1;
nodes = (
"471 -16 OFFCURVE",
"601 98 OFFCURVE",
"637 266 CURVE SMOOTH",
"756 828 LINE SMOOTH",
"791 995 OFFCURVE",
"710 1110 OFFCURVE",
"556 1110 CURVE SMOOTH",
"401 1110 OFFCURVE",
"274 995 OFFCURVE",
"237 822 CURVE SMOOTH",
"120 272 LINE SMOOTH",
"83 99 OFFCURVE",
"162 -16 OFFCURVE",
"317 -16 CURVE SMOOTH"
);
},
{
closed = 1;
nodes = (
"310 162 OFFCURVE",
"294 200 OFFCURVE",
"310 272 CURVE SMOOTH",
"427 822 LINE SMOOTH",
"443 898 OFFCURVE",
"473 934 OFFCURVE",
"519 934 CURVE SMOOTH",
"565 934 OFFCURVE",
"581 896 OFFCURVE",
"565 822 CURVE SMOOTH",
"448 272 LINE SMOOTH",
"433 201 OFFCURVE",
"400 162 OFFCURVE",
"355 162 CURVE SMOOTH"
);
},
{
closed = 1;
nodes = (
"182 -76 LINE",
"766 1170 LINE",
"692 1170 LINE",
"104 -76 LINE"
);
}
);
width = 642;
},
{
anchors = (
{
name = bottom;
position = "{223, 0}";
},
{
name = center;
position = "{223, 547}";
},
{
name = ogonek;
position = "{401, 10}";
},
{
name = top;
position = "{229, 1094}";
},
{
name = topright;
position = "{426, 1094}";
}
);
background = {
paths = (
{
closed = 1;
nodes = (
"64 -74 LINE",
"90 -6 LINE",
"106 -12 OFFCURVE",
"126 -16 OFFCURVE",
"148 -16 CURVE SMOOTH",
"292 -16 OFFCURVE",
"358 98 OFFCURVE",
"394 266 CURVE SMOOTH",
"512 828 LINE SMOOTH",
"530 912 OFFCURVE",
"542 990 OFFCURVE",
"518 1042 CURVE",
"572 1168 LINE",
"486 1168 LINE",
"456 1100 LINE",
"438 1106 OFFCURVE",
"416 1110 OFFCURVE",
"390 1110 CURVE SMOOTH",
"242 1110 OFFCURVE",
"174 974 OFFCURVE",
"142 822 CURVE SMOOTH",
"24 272 LINE SMOOTH",
"8 192 OFFCURVE",
"0 108 OFFCURVE",
"24 52 CURVE",
"-24 -74 LINE"
);
},
{
closed = 1;
nodes = (
"176 162 OFFCURVE",
"168 168 OFFCURVE",
"164 176 CURVE",
"288 476 LINE",
"240 252 LINE",
"238 234 OFFCURVE",
"218 162 OFFCURVE",
"186 162 CURVE SMOOTH"
);
},
{
closed = 1;
nodes = (
"296 842 LINE SMOOTH",
"308 896 OFFCURVE",
"324 934 OFFCURVE",
"352 934 CURVE SMOOTH",
"370 934 OFFCURVE",
"374 922 OFFCURVE",
"374 902 CURVE",
"238 566 LINE"
);
}
);
};
layerId = "38BA14EB-08C8-4487-88C1-8F957131FCA1";
paths = (
{
closed = 1;
nodes = (
"274 -16 OFFCURVE",
"354 77 OFFCURVE",
"394 266 CURVE SMOOTH",
"513 828 LINE SMOOTH",
"554 1021 OFFCURVE",
"515 1110 OFFCURVE",
"389 1110 CURVE SMOOTH",
"262 1110 OFFCURVE",
"184 1019 OFFCURVE",
"142 822 CURVE SMOOTH",
"25 272 LINE SMOOTH",
"-16 78 OFFCURVE",
"25 -16 OFFCURVE",
"150 -16 CURVE SMOOTH"
);
},
{
closed = 1;
nodes = (
"167 162 OFFCURVE",
"160 199 OFFCURVE",
"171 252 CURVE SMOOTH",
"296 842 LINE SMOOTH",
"310 907 OFFCURVE",
"326 934 OFFCURVE",
"352 934 CURVE SMOOTH",
"377 934 OFFCURVE",
"380 909 OFFCURVE",
"366 842 CURVE SMOOTH",
"241 252 LINE SMOOTH",
"229 196 OFFCURVE",
"209 162 OFFCURVE",
"188 162 CURVE SMOOTH"
);
},
{
closed = 1;
nodes = (
"64 -74 LINE",
"572 1168 LINE",
"486 1168 LINE",
"-24 -74 LINE"
);
}
);
width = 446;
},
{
anchors = (
{
name = bottom;
position = "{373, 0}";
},
{
name = center;
position = "{373, 547}";
},
{
name = ogonek;
position = "{671, 10}";
},
{
name = top;
position = "{369, 1094}";
},
{
name = topright;
position = "{725, 1094}";
}
);
layerId = "A5A4D350-C0CB-4C36-867F-06890CC9F434";
paths = (
{
closed = 1;
nodes = (
"575 -16 OFFCURVE",
"732 109 OFFCURVE",
"765 266 CURVE SMOOTH",
"884 828 LINE SMOOTH",
"916 981 OFFCURVE",
"813 1110 OFFCURVE",
"644 1110 CURVE SMOOTH",
"474 1110 OFFCURVE",
"321 982 OFFCURVE",
"287 822 CURVE SMOOTH",
"170 272 LINE SMOOTH",
"136 113 OFFCURVE",
"231 -16 OFFCURVE",
"405 -16 CURVE SMOOTH"
);
},
{
closed = 1;
nodes = (
"385 162 OFFCURVE",
"365 201 OFFCURVE",
"383 283 CURVE SMOOTH",
"496 811 LINE SMOOTH",
"513 891 OFFCURVE",
"549 934 OFFCURVE",
"606 934 CURVE SMOOTH",
"664 934 OFFCURVE",
"687 889 OFFCURVE",
"670 811 CURVE SMOOTH",
"557 283 LINE SMOOTH",
"540 204 OFFCURVE",
"501 162 OFFCURVE",
"443 162 CURVE SMOOTH"
);
},
{
closed = 1;
nodes = (
"244 -77 LINE",
"868 1171 LINE",
"800 1171 LINE",
"171 -77 LINE"
);
}
);
width = 745.15789;
}
);
unicode = 00F8;
},
